{"glyphs":{"0":{"ha":694,"x_min":49,"x_max":646,"o":"m 49 481 q 138 877 49 723 q 353 1031 228 1031 q 502 970 445 1031 q 646 545 646 826 q 503 49 646 195 q 338 -30 427 -30 q 180 43 248 -30 q 49 481 49 184 m 202 479 q 222 241 203 338 q 347 62 259 62 q 467 208 434 62 q 492 494 492 305 q 468 783 492 684 q 410 916 444 883 q 353 939 387 939 q 202 479 202 939 z "},"1":{"ha":694,"x_min":91,"x_max":457,"o":"m 91 875 q 100 891 91 890 q 298 972 168 914 q 433 1031 427 1031 q 456 1008 456 1031 q 450 932 456 1001 q 444 739 444 864 l 444 315 q 457 1 444 111 q 442 -19 457 -19 l 301 -19 q 286 1 286 -19 q 298 315 298 95 l 298 730 q 283 842 298 842 l 111 815 q 100 826 103 815 l 91 875 z "},"2":{"ha":694,"x_min":53,"x_max":642,"o":"m 61 7 q 57 21 61 7 q 53 58 53 35 q 60 90 53 81 q 281 329 202 231 q 412 513 359 427 q 465 726 465 600 q 420 857 465 804 q 313 909 376 909 q 176 825 214 909 l 148 760 q 136 753 146 753 l 117 754 q 106 764 109 754 q 73 886 73 883 q 75 891 73 890 q 343 1031 171 1031 q 546 953 472 1031 q 620 749 620 875 q 514 465 620 624 q 264 152 408 305 q 243 123 244 129 l 354 125 q 583 133 537 127 l 631 138 q 642 129 642 138 l 637 -7 q 624 -22 637 -22 q 365 -14 464 -14 l 80 -22 q 61 7 69 -22 z "},"3":{"ha":694,"x_min":57,"x_max":637,"o":"m 57 72 l 90 197 q 100 208 92 208 l 123 209 q 136 201 132 209 q 189 96 170 117 q 300 62 220 62 q 410 103 353 62 q 484 288 484 155 q 430 437 484 387 q 292 487 376 487 l 228 484 q 216 498 216 484 l 216 571 q 228 585 216 585 l 283 579 q 400 623 359 579 q 453 764 453 680 q 418 893 453 848 q 340 939 382 939 q 242 907 279 939 q 178 806 205 876 q 165 798 174 798 l 142 799 q 133 808 136 799 q 100 921 100 916 q 109 935 100 926 q 354 1031 209 1031 q 537 965 467 1031 q 608 805 608 899 q 562 643 608 711 q 454 545 517 575 q 586 458 534 525 q 637 304 637 392 q 515 47 637 133 q 297 -30 407 -30 q 65 53 153 -30 q 57 72 57 61 z "},"4":{"ha":694,"x_min":22,"x_max":673,"o":"m 22 281 q 39 353 22 319 l 423 1005 q 444 1021 434 1021 l 552 1021 q 567 1000 567 1021 q 557 754 557 911 l 557 345 l 640 345 q 673 304 673 345 q 657 258 673 282 q 620 233 642 233 l 557 233 q 567 1 557 130 q 552 -19 567 -19 l 419 -19 q 404 1 404 -19 q 416 233 416 123 l 118 233 q 22 281 22 233 m 145 345 l 416 345 l 416 808 l 145 345 z "},"5":{"ha":694,"x_min":66,"x_max":629,"o":"m 76 66 q 66 81 66 76 q 99 218 66 85 q 110 229 102 229 l 130 231 q 144 222 140 231 q 167 173 148 214 q 201 114 186 132 q 315 64 245 64 q 429 126 385 64 q 472 307 472 189 q 428 490 472 426 q 312 553 384 553 q 157 515 240 553 q 123 502 129 502 q 111 507 117 502 q 104 517 104 513 q 152 1012 104 521 q 165 1024 155 1024 q 352 1015 254 1015 q 514 1023 450 1015 q 584 1031 578 1031 q 597 1025 590 1031 q 604 1015 604 1020 q 581 897 604 1009 q 570 886 578 886 q 410 876 496 876 q 229 888 324 876 l 202 628 q 351 647 269 647 q 554 553 479 647 q 629 317 629 460 q 539 72 629 174 q 313 -30 449 -30 q 76 66 176 -30 z "},"6":{"ha":694,"x_min":46,"x_max":648,"o":"m 193 22 q 46 399 46 125 q 209 857 46 674 q 375 985 286 944 q 585 1032 464 1025 q 597 1021 594 1032 l 601 971 q 590 959 601 962 q 329 835 429 941 q 199 548 229 728 q 353 610 273 610 q 617 445 548 610 q 648 309 648 369 q 589 90 648 189 q 354 -28 515 -27 q 193 22 264 -28 m 190 377 q 277 95 190 170 q 372 58 319 58 q 492 289 492 58 q 464 433 492 365 q 330 517 430 517 q 191 456 247 517 q 190 377 190 438 z "},"7":{"ha":694,"x_min":64,"x_max":631,"o":"m 64 860 l 64 1012 q 75 1027 64 1027 q 123 1021 77 1027 q 355 1015 168 1015 q 578 1027 541 1015 q 595 1031 590 1031 q 615 1019 600 1031 q 631 1002 631 1008 q 589 884 631 997 q 461 518 547 772 q 293 -19 376 264 q 282 -28 290 -28 l 172 -35 q 160 -28 165 -35 q 155 -16 155 -22 q 237 197 155 -9 q 481 863 319 404 l 389 864 q 151 856 224 864 q 73 848 77 848 q 64 860 64 848 z "},"8":{"ha":694,"x_min":43,"x_max":651,"o":"m 43 244 q 146 454 43 354 q 237 537 229 530 l 224 545 q 84 789 84 635 q 162 963 84 894 q 356 1032 240 1032 q 540 970 472 1032 q 608 810 608 907 q 439 567 608 694 l 515 511 q 651 270 651 412 q 565 65 651 159 q 344 -28 479 -28 q 126 43 209 -28 q 43 244 43 114 m 184 244 q 233 101 184 148 q 342 54 281 54 q 452 94 403 54 q 502 235 502 133 q 377 441 502 353 l 315 484 q 184 244 184 384 m 255 913 q 238 895 255 913 q 221 825 221 876 q 241 733 221 773 q 321 648 260 693 l 361 624 q 472 811 472 718 q 442 911 472 872 q 351 949 412 949 q 255 913 289 949 z "},"9":{"ha":694,"x_min":45,"x_max":650,"o":"m 45 712 q 199 996 45 911 q 345 1029 260 1029 q 502 979 430 1029 q 650 601 650 876 q 486 144 650 326 q 111 -33 345 -19 q 99 -20 102 -33 l 94 30 q 104 41 94 38 q 363 165 262 57 q 495 453 465 274 q 343 391 422 391 q 210 415 264 391 q 45 712 45 492 m 201 712 q 229 568 201 635 q 357 486 266 486 q 505 545 448 486 q 506 635 506 563 q 441 883 506 808 q 323 943 388 943 q 201 712 201 943 z "}," ":{"ha":463,"x_min":0,"x_max":0,"o":""},"!":{"ha":438,"x_min":99,"x_max":339,"o":"m 134 16 q 116 33 134 16 q 99 96 99 49 q 135 178 99 144 q 221 213 171 213 q 305 180 271 213 q 339 99 339 146 q 303 18 339 52 q 218 -16 267 -16 q 134 16 168 -16 m 140 722 q 125 822 140 722 q 110 972 110 922 q 140 1053 110 1021 q 219 1085 171 1085 q 298 1053 267 1085 q 328 972 328 1021 q 298 722 328 922 q 266 380 269 521 q 220 311 264 311 q 174 380 175 311 q 140 722 171 521 z "},"#":{"ha":784,"x_min":30,"x_max":754,"o":"m 31 327 l 43 414 q 57 426 46 426 l 206 426 l 233 594 l 88 594 q 75 610 72 594 l 90 699 q 103 709 92 709 l 251 709 l 298 1001 q 312 1012 301 1012 l 372 1012 q 385 996 388 1012 l 338 709 l 509 709 l 553 1001 q 567 1012 556 1012 l 625 1012 q 639 996 640 1012 l 594 709 l 739 709 q 753 693 754 709 l 739 605 q 726 594 736 594 l 576 594 l 548 426 l 694 426 q 708 410 709 426 l 694 323 q 681 312 692 312 l 533 312 l 486 20 q 472 9 483 9 l 414 9 q 400 26 399 9 l 444 312 l 277 312 l 229 20 q 216 9 227 9 l 157 9 q 144 26 142 9 l 189 312 l 45 312 q 31 327 30 312 m 294 426 l 464 426 l 490 594 l 321 594 l 294 426 z "},"$":{"ha":719,"x_min":47,"x_max":666,"o":"m 50 58 q 79 198 73 153 q 91 210 81 210 l 106 212 q 119 203 114 212 q 189 114 144 151 q 290 66 235 77 l 309 422 q 139 531 203 468 q 75 699 75 594 q 156 876 75 804 q 339 956 237 947 l 345 1067 q 415 1088 346 1088 q 429 1073 429 1088 l 422 954 q 608 882 567 940 q 610 869 612 875 q 582 736 587 796 q 571 724 582 724 l 555 723 q 541 730 545 723 q 418 859 495 829 l 400 552 q 564 467 509 510 q 642 376 618 425 q 666 267 666 328 q 568 53 666 136 q 369 -27 491 -14 l 362 -145 q 304 -165 361 -165 l 292 -165 q 278 -152 278 -165 l 285 -23 l 283 -27 q 141 -2 212 -23 q 52 47 71 19 q 50 58 47 52 m 208 732 q 319 586 208 643 l 334 871 q 241 829 275 867 q 208 732 208 791 m 374 64 q 477 113 438 73 q 517 220 517 152 q 486 324 517 288 q 392 388 454 361 l 374 64 z "},"%":{"ha":1274,"x_min":49,"x_max":1225,"o":"m 113 469 q 81 511 113 469 q 49 702 49 553 q 113 934 49 850 q 283 1017 176 1017 q 453 934 389 1017 q 517 703 517 850 q 452 470 517 555 q 282 385 388 385 q 113 469 176 385 m 195 869 q 179 842 195 869 q 163 703 163 814 q 195 534 163 591 q 283 477 228 477 q 370 534 338 477 q 403 703 403 591 q 370 869 403 814 q 283 925 338 925 q 195 869 228 925 m 313 -18 l 860 1017 l 959 1017 l 411 -18 l 313 -18 m 821 66 q 789 109 821 66 q 757 298 757 151 q 821 530 757 446 q 991 613 884 613 q 1161 530 1097 613 q 1225 298 1225 446 q 1161 66 1225 151 q 991 -18 1097 -18 q 821 66 884 -18 m 903 465 q 887 437 903 465 q 871 298 871 410 q 903 130 871 187 q 991 73 936 73 q 1078 130 1046 73 q 1111 298 1111 187 q 1078 465 1111 410 q 991 521 1046 521 q 903 465 936 521 z "},"&":{"ha":1097,"x_min":54,"x_max":1048,"o":"m 54 256 q 123 422 54 343 q 342 585 193 500 q 263 800 263 711 q 334 960 263 888 q 519 1031 406 1031 q 667 975 605 1031 q 728 847 728 920 q 665 701 728 774 q 505 568 601 627 q 675 320 548 494 q 823 670 804 515 q 838 682 823 686 q 901 677 853 677 q 955 679 948 677 q 966 681 962 681 q 977 676 970 681 q 971 652 983 671 q 859 455 959 633 q 735 237 760 277 l 783 174 q 902 83 846 83 q 996 157 958 83 q 1015 164 1004 170 l 1039 152 q 1046 134 1048 148 q 975 13 1020 54 q 882 -28 930 -28 q 746 19 799 -28 q 693 80 720 43 l 659 123 q 378 -28 544 -28 q 146 41 239 -28 q 54 256 54 111 m 218 241 q 389 61 218 61 q 497 91 458 61 q 597 206 536 121 q 389 505 468 376 q 252 387 286 446 q 218 241 218 327 m 444 909 q 426 891 444 909 q 408 807 408 873 q 457 655 408 741 q 560 753 522 701 q 598 847 598 804 q 575 917 598 890 q 515 944 552 944 q 444 909 479 944 z "},"'":{"ha":313,"x_min":65,"x_max":248,"o":"m 65 1040 q 157 1142 65 1142 q 248 1040 248 1142 q 225 876 248 990 l 179 662 l 134 662 l 102 815 q 82 915 99 831 q 65 1040 65 998 z "},"(":{"ha":540,"x_min":118,"x_max":490,"o":"m 202 138 q 160 222 202 138 q 118 515 118 307 q 203 892 118 724 q 458 1210 288 1061 l 490 1183 q 309 861 358 1012 q 259 517 259 711 q 311 170 259 323 q 490 -153 362 18 l 458 -180 q 202 138 286 -30 z "},")":{"ha":540,"x_min":50,"x_max":422,"o":"m 50 -153 q 231 168 182 18 q 281 513 281 319 q 229 859 281 707 q 50 1183 178 1012 l 80 1210 q 337 892 252 1059 q 422 515 422 724 q 337 138 422 307 q 80 -180 252 -31 l 50 -153 z "},"*":{"ha":669,"x_min":103,"x_max":562,"o":"m 103 940 q 119 981 103 963 q 163 1000 136 1000 q 212 989 190 1000 q 258 958 233 978 q 298 930 283 939 q 280 987 294 947 q 266 1054 266 1028 q 283 1102 266 1080 q 327 1124 300 1124 q 372 1107 354 1124 q 391 1065 391 1089 q 387 1018 391 1040 q 375 968 382 996 q 365 929 368 941 q 420 969 382 939 q 494 1000 458 1000 q 545 980 529 1000 q 562 940 562 960 q 441 869 562 869 q 385 867 418 869 q 431 835 395 859 q 482 791 467 811 q 498 744 498 772 q 480 700 498 716 q 439 684 463 684 q 397 701 416 684 q 370 735 378 718 q 348 785 361 753 q 330 829 335 818 q 310 779 324 817 q 277 713 296 742 q 227 684 259 684 q 179 700 195 684 q 163 744 163 716 q 179 793 163 772 q 232 838 195 814 q 277 868 269 861 q 220 869 263 869 q 103 940 103 869 z "},"+":{"ha":814,"x_min":88,"x_max":727,"o":"m 88 463 l 88 547 q 102 560 88 560 l 350 560 l 350 811 q 363 825 350 825 l 450 825 q 464 811 464 825 l 464 560 l 713 560 q 727 547 727 560 l 727 463 q 713 449 727 449 l 464 449 l 464 198 q 450 184 464 184 l 363 184 q 350 198 350 184 l 350 449 l 102 449 q 88 463 88 449 z "},",":{"ha":401,"x_min":34,"x_max":328,"o":"m 47 -224 q 153 -145 100 -210 q 206 -43 206 -80 q 146 9 206 -5 q 102 45 122 16 q 81 104 81 75 q 117 172 81 134 q 184 209 153 209 q 290 157 252 209 q 328 7 328 106 q 302 -89 328 -35 q 239 -178 275 -142 q 154 -241 203 -214 q 60 -275 104 -267 q 47 -224 34 -258 z "},"-":{"ha":814,"x_min":88,"x_max":727,"o":"m 88 463 l 88 547 q 102 560 88 560 l 713 560 q 727 547 727 560 l 727 463 q 713 449 727 449 l 102 449 q 88 463 88 449 z "},".":{"ha":401,"x_min":81,"x_max":321,"o":"m 116 16 q 99 33 116 16 q 81 96 81 49 q 117 178 81 144 q 203 213 153 213 q 287 180 252 213 q 321 99 321 146 q 286 18 321 52 q 200 -16 250 -16 q 116 16 151 -16 z "},"/":{"ha":543,"x_min":16,"x_max":526,"o":"m 45 -119 q 21 -115 26 -119 q 22 -102 16 -111 l 434 1165 q 445 1173 434 1173 l 498 1173 q 522 1169 517 1173 q 521 1156 526 1165 l 109 -110 q 98 -119 109 -119 l 45 -119 z "},":":{"ha":449,"x_min":115,"x_max":335,"o":"m 147 161 q 131 177 147 161 q 115 237 115 193 q 146 315 115 282 q 224 347 178 347 q 302 315 270 347 q 335 237 335 282 q 302 161 335 193 q 224 129 270 129 q 147 161 179 129 m 147 705 q 131 721 147 705 q 115 781 115 736 q 147 859 115 826 q 224 892 179 892 q 302 859 270 892 q 335 781 335 826 q 302 705 335 736 q 224 674 270 674 q 147 705 179 674 z "},";":{"ha":449,"x_min":42,"x_max":335,"o":"m 42 -121 q 174 -24 125 -76 q 244 102 222 27 l 183 140 q 115 244 115 179 q 144 317 115 288 q 222 347 174 347 q 312 311 271 347 q 332 203 332 259 q 251 -22 332 77 q 60 -163 170 -121 l 42 -121 m 147 705 q 131 721 147 705 q 115 781 115 736 q 147 859 115 826 q 224 892 179 892 q 302 859 270 892 q 335 781 335 826 q 302 705 335 736 q 224 674 270 674 q 147 705 179 674 z "},"<":{"ha":753,"x_min":62,"x_max":692,"o":"m 62 472 l 62 547 q 71 559 62 556 l 674 913 q 692 901 692 922 l 692 823 q 684 810 692 812 l 174 509 l 684 208 q 692 194 692 206 l 692 117 l 689 106 q 674 104 685 100 l 71 460 q 62 472 62 461 z "},"=":{"ha":814,"x_min":88,"x_max":727,"o":"m 88 294 l 88 370 q 102 384 88 384 l 713 384 q 727 370 727 384 l 727 294 q 713 281 727 281 l 102 281 q 88 294 88 281 m 88 624 l 88 700 q 102 713 88 713 l 713 713 q 727 700 727 713 l 727 624 q 713 610 727 610 l 102 610 q 88 624 88 610 z "},">":{"ha":753,"x_min":62,"x_max":692,"o":"m 62 114 l 62 191 q 71 203 62 201 l 581 505 l 71 807 q 62 819 62 808 l 62 902 q 66 909 62 905 q 80 910 71 913 l 684 555 q 692 541 692 553 l 692 468 q 684 454 692 457 l 80 102 q 62 114 62 92 z "},"?":{"ha":722,"x_min":43,"x_max":675,"o":"m 43 850 q 139 1021 43 958 q 373 1085 235 1085 q 593 1017 511 1085 q 675 833 675 948 q 610 678 675 746 q 512 592 566 632 q 440 534 458 552 q 404 475 422 517 q 385 385 385 433 q 372 318 385 336 q 330 300 359 300 q 278 381 278 300 q 328 575 278 502 q 395 650 354 612 q 499 844 499 742 q 459 972 499 920 q 359 1025 419 1025 q 254 1000 298 1025 q 209 943 209 974 q 216 882 209 911 q 224 821 224 852 q 199 768 224 791 q 135 745 174 745 q 70 772 96 745 q 43 850 43 799 m 248 16 q 230 33 248 16 q 213 96 213 49 q 249 178 213 144 q 335 213 285 213 q 420 180 385 213 q 454 99 454 146 q 418 18 454 52 q 332 -16 382 -16 q 248 16 282 -16 z "},"@":{"ha":1389,"x_min":79,"x_max":1310,"o":"m 79 345 q 166 653 79 511 q 403 876 254 795 q 727 958 552 958 q 1145 808 981 958 q 1310 435 1310 659 q 1211 165 1310 286 q 1068 66 1161 103 q 852 28 975 28 q 800 54 815 28 q 784 102 784 79 q 787 138 784 126 q 610 31 701 31 q 510 54 552 31 q 448 111 468 76 q 410 236 410 175 q 529 524 410 401 q 784 647 648 647 q 895 602 854 647 q 906 617 899 616 l 987 637 l 996 637 l 1020 629 q 1028 614 1032 624 l 936 216 q 917 114 917 144 l 920 110 q 1101 178 1042 110 q 1161 426 1161 247 q 1118 627 1161 536 q 1006 772 1074 718 q 711 884 864 884 q 384 764 526 884 q 271 603 313 704 q 228 359 228 502 q 294 80 228 216 q 387 -51 331 5 q 532 -143 442 -107 q 732 -179 621 -179 q 1034 -80 910 -179 q 1053 -83 1044 -72 l 1074 -111 q 1072 -130 1082 -123 q 907 -226 987 -194 q 703 -258 826 -258 q 252 -85 425 -258 q 79 345 79 87 m 548 251 q 656 122 548 122 q 737 178 688 122 q 822 315 787 233 q 868 477 868 430 q 843 549 868 525 q 787 572 818 572 q 718 558 757 572 q 651 514 680 544 q 548 251 548 411 z "},"A":{"ha":972,"x_min":9,"x_max":963,"o":"m 9 -8 q 12 1 9 -7 q 468 1023 293 617 q 481 1031 472 1031 l 524 1031 q 537 1023 534 1031 q 751 496 590 897 q 938 47 913 96 q 963 -10 963 -3 q 951 -18 963 -18 l 791 -18 q 779 -8 781 -18 q 662 340 732 151 q 475 346 559 346 q 286 340 392 346 q 161 -8 194 114 q 148 -18 160 -18 l 23 -18 q 9 -8 9 -18 m 327 439 q 480 437 381 437 q 624 438 579 437 q 479 792 566 591 l 327 439 z "},"B":{"ha":952,"x_min":132,"x_max":871,"o":"m 132 -1 l 132 1 q 148 309 148 111 l 148 688 q 132 996 148 880 l 132 997 q 137 1010 132 1004 q 149 1016 142 1016 l 423 1016 q 706 935 633 1016 q 779 762 779 854 q 743 649 779 704 q 655 560 708 594 q 871 278 871 483 q 791 81 871 168 q 667 9 749 37 q 473 -18 586 -18 l 148 -18 q 132 -1 132 -18 m 294 136 q 444 76 294 76 q 649 123 594 76 q 704 264 704 170 q 634 427 704 359 q 438 494 564 494 l 294 494 l 294 136 m 294 587 l 415 587 q 574 623 518 587 q 631 750 631 658 q 572 882 631 842 q 429 922 513 922 q 319 910 345 922 q 294 864 294 898 l 294 587 z "},"C":{"ha":1046,"x_min":66,"x_max":960,"o":"m 66 487 q 111 703 66 601 q 227 877 155 806 q 393 990 298 948 q 581 1032 487 1032 q 762 1012 675 1032 q 890 972 849 991 q 937 948 932 954 q 941 935 941 943 l 941 932 q 913 762 918 849 q 901 750 913 750 l 883 749 q 869 757 875 749 q 566 932 781 932 q 358 841 463 932 q 273 710 307 795 q 239 517 239 625 q 340 208 239 339 q 581 77 442 77 q 761 111 688 77 q 916 233 834 145 q 926 237 920 237 q 960 165 960 237 l 960 155 q 958 145 960 148 q 566 -28 815 -28 q 286 45 401 -28 q 66 487 66 184 z "},"D":{"ha":1097,"x_min":132,"x_max":1031,"o":"m 132 -1 l 132 1 q 148 309 148 111 l 148 688 q 132 996 148 880 l 132 997 q 137 1010 132 1004 q 149 1016 142 1016 q 228 1010 176 1010 l 483 1016 q 871 857 711 1016 q 1031 476 1031 699 q 998 275 1031 363 q 911 133 964 187 q 510 -16 764 -16 l 228 -14 l 160 -16 q 148 -18 155 -16 q 132 -1 132 -18 m 294 126 q 323 87 294 96 q 451 79 351 79 q 616 93 551 79 q 739 144 681 107 q 859 439 859 221 q 716 819 859 688 q 592 893 667 865 q 423 921 517 921 q 294 872 294 921 l 294 126 z "},"E":{"ha":831,"x_min":132,"x_max":758,"o":"m 132 -1 l 132 1 q 148 309 148 111 l 148 688 q 132 996 148 880 l 132 997 q 137 1010 132 1004 q 149 1016 142 1016 q 228 1010 176 1010 l 633 1010 l 728 1016 q 743 983 743 1016 l 743 903 q 726 879 743 879 q 304 897 506 895 q 294 688 294 838 l 294 581 q 637 597 458 581 q 656 572 656 597 l 655 486 q 637 461 655 461 q 294 476 481 476 l 294 309 q 304 100 294 156 q 677 114 503 100 l 741 118 q 758 90 758 118 l 758 9 q 743 -18 758 -18 l 650 -14 l 228 -14 l 160 -16 q 148 -18 155 -16 q 132 -1 132 -18 z "},"F":{"ha":779,"x_min":132,"x_max":743,"o":"m 132 -1 l 132 1 q 148 309 148 111 l 148 688 q 132 996 148 880 l 132 997 q 137 1010 132 1004 q 149 1016 142 1016 q 228 1010 176 1010 l 629 1010 q 726 1016 677 1010 q 743 985 743 1016 l 743 907 q 726 879 743 879 q 304 897 506 895 q 294 688 294 838 l 294 581 q 637 597 458 581 q 656 572 656 597 l 655 486 q 637 461 655 461 q 294 476 481 476 l 294 309 q 309 1 294 107 l 309 0 q 304 -12 309 -7 q 292 -18 298 -18 l 148 -18 q 132 -1 132 -18 z "},"G":{"ha":1108,"x_min":66,"x_max":1006,"o":"m 66 490 q 149 783 66 656 q 356 970 232 909 q 620 1031 480 1031 q 799 1011 709 1031 q 934 972 888 991 q 984 947 979 954 q 989 935 989 940 l 989 932 q 959 755 966 848 q 945 742 959 742 l 928 741 q 914 747 918 741 q 781 882 863 834 q 598 930 699 930 q 341 815 444 930 q 239 506 239 700 q 328 214 239 343 q 447 111 372 151 q 617 72 522 72 q 844 123 781 72 l 844 186 q 829 473 844 368 l 829 475 q 834 487 829 481 q 846 492 840 492 l 990 492 q 1002 487 997 492 q 1006 475 1006 481 l 1006 472 q 990 202 990 362 l 1005 127 q 1001 114 1005 118 q 591 -28 830 -28 q 209 123 351 -28 q 66 490 66 275 z "},"H":{"ha":1122,"x_min":132,"x_max":991,"o":"m 132 1 q 148 309 148 111 l 148 688 q 132 996 148 880 l 132 997 q 137 1010 132 1004 q 149 1016 142 1016 l 293 1016 q 304 1010 300 1016 q 309 998 309 1005 l 309 996 q 294 688 294 898 l 294 578 l 829 578 l 829 688 q 814 996 829 890 l 814 997 q 819 1010 814 1004 q 831 1016 825 1016 l 975 1016 q 990 998 990 1016 l 990 996 q 975 688 975 898 l 975 309 q 991 1 975 117 l 991 0 q 986 -12 991 -7 q 974 -18 981 -18 l 829 -18 q 814 -1 814 -18 l 814 1 q 829 309 829 103 l 829 483 l 294 483 l 294 309 q 309 1 294 107 l 309 0 q 304 -12 309 -7 q 292 -18 298 -18 l 148 -18 q 132 -1 132 -18 l 132 1 z "},"I":{"ha":454,"x_min":138,"x_max":316,"o":"m 138 0 l 138 1 q 155 309 155 111 l 155 688 q 138 996 155 880 l 138 997 q 144 1010 138 1004 q 156 1016 149 1016 l 298 1016 q 311 1010 305 1016 q 316 997 316 1004 l 316 996 q 301 688 301 898 l 301 309 q 316 1 301 107 l 316 0 q 311 -12 316 -7 q 298 -18 305 -18 l 156 -18 q 144 -12 149 -18 q 138 0 138 -7 z "},"J":{"ha":597,"x_min":26,"x_max":475,"o":"m 26 -19 q 28 -9 26 -18 q 69 114 45 20 q 81 123 72 123 l 99 125 q 111 118 107 125 q 190 71 137 71 q 313 377 313 71 l 313 688 q 297 996 313 880 l 297 997 q 302 1010 297 1004 q 315 1016 308 1016 l 458 1016 q 470 1010 465 1016 q 475 998 475 1005 l 475 996 q 460 688 460 898 l 460 411 q 372 79 460 206 q 111 -49 283 -49 q 26 -19 26 -49 z "},"K":{"ha":972,"x_min":132,"x_max":937,"o":"m 132 0 l 132 1 q 148 309 148 111 l 148 688 q 132 996 148 880 l 132 997 q 137 1010 132 1004 q 149 1016 142 1016 l 292 1016 q 304 1010 298 1016 q 309 997 309 1004 l 309 996 q 294 688 294 898 l 294 549 q 305 556 301 551 q 745 1010 486 713 q 754 1015 749 1015 l 907 1016 q 924 1001 924 1010 q 918 991 924 997 q 666 760 803 891 q 456 545 529 628 l 935 4 q 937 -10 937 -3 q 928 -18 937 -18 l 746 -18 q 736 -14 741 -18 q 301 502 396 407 q 294 505 298 505 l 294 309 q 309 1 294 107 l 309 0 q 304 -12 309 -7 q 292 -18 298 -18 l 149 -18 q 137 -12 142 -18 q 132 0 132 -7 z "},"L":{"ha":796,"x_min":133,"x_max":761,"o":"m 133 -1 l 133 1 q 149 309 149 111 l 149 688 q 133 996 149 880 l 133 997 q 138 1010 133 1004 q 151 1016 144 1016 l 294 1016 q 306 1010 301 1016 q 311 998 311 1005 l 311 996 q 296 688 296 898 l 296 309 q 305 109 296 164 q 719 133 480 109 l 745 136 q 760 109 760 136 l 761 16 q 745 -18 761 -18 l 651 -14 l 229 -14 l 163 -16 q 149 -18 156 -16 q 133 -1 133 -18 z "},"M":{"ha":1389,"x_min":94,"x_max":1291,"o":"m 94 -8 q 95 -1 95 -3 q 294 1025 227 636 q 308 1038 297 1038 l 359 1038 q 372 1029 369 1038 q 712 274 566 581 l 1081 1029 q 1093 1038 1086 1038 l 1133 1038 q 1146 1025 1143 1038 q 1291 -3 1207 499 l 1291 -8 q 1280 -18 1291 -18 l 1127 -18 q 1115 -5 1116 -18 q 1031 715 1089 282 q 693 -5 861 376 q 686 -14 689 -14 l 659 -14 q 652 -5 656 -14 q 331 724 498 372 q 220 -7 263 307 q 206 -18 216 -18 l 104 -19 q 94 -8 94 -19 z "},"N":{"ha":1109,"x_min":138,"x_max":991,"o":"m 138 -1 q 150 281 138 66 q 161 664 161 495 q 153 997 161 833 q 159 1009 153 1004 q 171 1015 164 1015 l 255 1015 q 267 1002 259 1015 l 798 316 q 861 237 857 241 q 865 275 865 258 l 865 688 q 849 996 865 880 l 849 998 q 875 1015 849 1015 l 964 1015 q 991 1000 991 1015 q 980 454 991 799 q 967 33 968 109 q 953 -10 966 8 q 917 -28 940 -28 q 840 20 876 -28 l 300 703 q 266 743 281 728 q 264 678 264 731 l 264 309 q 279 1 264 107 l 279 0 q 274 -12 279 -7 q 262 -18 269 -18 l 164 -16 q 138 -1 138 -16 z "},"O":{"ha":1145,"x_min":66,"x_max":1078,"o":"m 213 111 q 140 181 213 111 q 66 481 66 251 q 212 871 66 711 q 572 1031 357 1031 q 932 886 787 1031 q 1078 506 1078 741 q 938 121 1078 271 q 578 -28 798 -28 q 213 111 359 -28 m 239 506 q 348 183 239 300 q 595 66 457 66 q 819 174 732 66 q 906 495 906 282 q 810 822 906 708 q 549 936 713 936 q 342 841 434 936 q 267 707 296 793 q 239 506 239 620 z "},"P":{"ha":864,"x_min":132,"x_max":817,"o":"m 132 0 l 132 1 q 148 309 148 111 l 148 688 q 132 996 148 880 l 132 997 q 137 1010 132 1004 q 149 1016 142 1016 l 222 1010 l 444 1021 q 625 994 548 1021 q 741 922 701 967 q 817 729 817 838 q 730 524 817 620 q 606 444 685 475 q 431 414 526 414 q 294 425 336 414 l 294 309 q 309 1 294 107 l 309 0 q 304 -12 309 -7 q 292 -18 298 -18 l 149 -18 q 137 -12 142 -18 q 132 0 132 -7 m 294 518 q 433 507 334 507 q 593 557 533 507 q 652 738 652 606 q 555 907 652 869 q 429 928 503 928 q 324 914 354 928 q 294 873 294 901 l 294 518 z "},"Q":{"ha":1145,"x_min":66,"x_max":1252,"o":"m 213 111 q 140 181 213 111 q 66 481 66 251 q 212 871 66 711 q 572 1031 357 1031 q 932 886 787 1031 q 1078 509 1078 741 q 1029 260 1078 372 q 891 77 979 149 q 959 37 903 71 q 1076 -31 1015 4 q 1244 -106 1138 -65 q 1252 -123 1252 -110 q 1245 -140 1252 -136 q 1154 -197 1195 -165 q 1107 -229 1112 -229 q 1062 -206 1101 -229 q 936 -119 1023 -183 q 747 -1 849 -56 q 571 -28 667 -28 q 213 111 359 -28 m 239 506 q 348 183 239 300 q 595 66 457 66 q 819 174 732 66 q 906 495 906 282 q 810 822 906 708 q 549 936 713 936 q 342 841 434 936 q 267 707 296 793 q 239 506 239 620 z "},"R":{"ha":926,"x_min":132,"x_max":903,"o":"m 132 0 l 132 1 q 148 309 148 111 l 148 688 q 132 996 148 880 l 132 997 q 137 1010 132 1004 q 149 1016 142 1016 l 218 1012 l 435 1021 q 542 1018 500 1021 q 641 997 583 1015 q 735 944 699 979 q 821 743 821 863 q 753 550 821 624 q 582 453 686 476 q 731 238 618 404 q 899 9 844 72 q 903 -1 903 5 q 898 -12 903 -7 q 886 -18 892 -18 l 713 -18 q 701 -8 704 -18 q 572 239 673 76 q 445 433 471 401 q 294 429 391 429 l 294 309 q 309 1 294 107 l 309 0 q 304 -12 309 -7 q 292 -18 298 -18 l 149 -18 q 137 -12 142 -18 q 132 0 132 -7 m 294 518 l 384 518 q 585 567 510 518 q 659 739 659 616 q 638 834 659 795 q 583 892 617 873 q 431 928 518 928 q 319 922 343 928 q 294 890 294 916 l 294 518 z "},"S":{"ha":781,"x_min":64,"x_max":712,"o":"m 64 60 l 64 62 q 99 220 95 180 q 111 232 102 232 l 127 233 q 140 227 136 233 q 244 114 174 161 q 379 66 315 66 q 499 112 444 66 q 555 237 555 157 q 507 366 555 317 q 384 446 458 414 q 271 498 309 477 q 187 556 232 519 q 95 749 95 628 q 188 951 95 871 q 418 1031 281 1031 q 636 982 555 1031 q 674 945 674 959 l 673 940 q 637 787 643 837 q 627 774 635 774 l 610 773 q 597 781 601 773 q 512 893 567 850 q 391 936 457 936 q 279 898 326 936 q 233 785 233 860 q 301 659 233 709 q 416 600 349 627 q 527 551 484 574 q 616 491 570 529 q 712 277 712 414 q 612 56 712 141 q 362 -28 513 -28 q 200 -11 273 -28 q 96 26 127 7 q 64 60 64 46 z "},"T":{"ha":834,"x_min":9,"x_max":825,"o":"m 9 901 l 9 986 q 26 1016 9 1016 l 119 1010 l 716 1010 l 810 1016 q 825 986 825 1016 l 825 902 q 819 889 825 895 q 808 883 814 883 q 500 897 673 897 q 491 688 491 838 l 491 309 q 506 1 491 107 l 506 0 q 500 -12 506 -7 q 488 -18 495 -18 l 346 -18 q 334 -12 339 -18 q 328 0 328 -7 l 328 1 q 345 309 345 111 l 345 688 q 335 897 345 842 q 92 890 156 897 q 26 883 27 883 q 9 901 9 883 z "},"U":{"ha":1069,"x_min":132,"x_max":954,"o":"m 132 996 l 132 997 q 137 1010 132 1004 q 149 1016 142 1016 l 292 1016 q 304 1010 298 1016 q 309 997 309 1004 l 309 996 q 294 688 294 898 l 294 416 q 393 134 294 216 q 549 84 456 84 q 701 112 643 84 q 785 194 758 140 q 819 300 811 248 q 827 429 827 353 l 827 688 q 820 854 827 750 q 812 998 812 958 q 838 1016 812 1016 l 928 1016 q 954 998 954 1016 l 954 996 q 939 688 939 898 l 939 456 q 808 62 939 176 q 521 -28 707 -28 q 282 46 395 -28 q 185 168 222 85 q 148 365 148 250 l 148 688 q 132 996 148 880 z "},"V":{"ha":975,"x_min":9,"x_max":963,"o":"m 9 1006 q 22 1016 9 1016 l 189 1016 q 202 1005 199 1016 q 494 221 294 688 q 803 1005 755 829 q 817 1016 806 1016 l 951 1016 q 963 1008 963 1016 q 960 997 963 1005 q 505 -20 648 312 q 492 -28 500 -28 l 449 -28 q 435 -20 438 -28 q 221 503 384 103 q 12 996 58 903 q 9 1006 9 1001 z "},"W":{"ha":1470,"x_min":9,"x_max":1458,"o":"m 9 1006 q 22 1016 9 1016 l 182 1016 q 194 1005 191 1016 q 495 208 274 723 q 685 652 669 612 l 551 1006 q 563 1016 551 1016 l 731 1016 q 743 1005 741 1016 q 990 224 776 856 q 1298 1005 1251 825 q 1312 1015 1299 1015 l 1446 1016 q 1458 1006 1458 1016 q 1455 997 1458 1005 q 998 -20 1119 259 q 986 -28 994 -28 l 943 -28 q 930 -20 933 -28 q 739 507 864 170 l 505 -20 q 492 -28 500 -28 l 449 -28 q 435 -20 438 -28 q 221 503 384 103 q 12 996 58 903 q 9 1006 9 1001 z "},"X":{"ha":898,"x_min":20,"x_max":873,"o":"m 20 -7 q 24 3 20 -3 l 361 496 l 33 994 q 30 1006 30 1001 q 41 1016 30 1016 l 205 1016 q 217 1008 212 1016 q 458 614 260 920 q 705 1008 617 844 q 719 1015 709 1015 l 844 1015 q 863 1006 863 1015 q 749 844 863 998 q 519 521 635 690 q 869 3 690 256 q 873 -11 873 -4 q 861 -18 873 -18 l 692 -18 q 681 -11 685 -18 q 572 177 625 96 q 477 321 519 258 q 425 400 434 385 q 178 -11 278 175 q 164 -18 174 -18 l 39 -18 q 20 -7 20 -18 z "},"Y":{"ha":899,"x_min":9,"x_max":887,"o":"m 34 964 q 22 982 34 964 q 9 1008 9 1001 q 22 1016 9 1016 l 186 1016 q 199 1008 195 1016 q 309 805 269 875 q 397 654 350 735 q 464 538 444 572 q 730 1008 636 811 q 742 1016 735 1016 l 871 1016 q 887 1007 887 1016 q 731 764 887 998 q 528 434 575 529 q 533 -4 532 20 l 533 -5 q 521 -18 533 -18 l 376 -18 q 365 -7 365 -18 l 365 -4 q 376 412 376 106 q 193 710 328 494 q 34 964 58 926 z "},"Z":{"ha":962,"x_min":53,"x_max":906,"o":"m 59 -12 q 56 -8 59 -12 q 53 3 53 -5 q 96 66 53 12 q 678 901 279 311 q 125 875 429 901 l 122 875 q 107 902 107 875 l 107 990 q 122 1016 107 1016 l 218 1012 l 688 1012 l 883 1016 q 899 1008 892 1016 q 906 993 906 1001 q 857 902 906 971 l 294 103 l 292 98 q 776 117 475 98 l 876 122 l 879 122 q 892 98 892 122 l 894 15 q 878 -18 894 -18 l 766 -14 l 206 -14 l 72 -18 q 59 -12 65 -18 z "},"[":{"ha":503,"x_min":152,"x_max":464,"o":"m 152 -146 q 156 334 156 9 l 156 697 q 152 1177 156 1019 l 464 1177 l 464 1126 l 297 1109 q 294 697 294 974 l 294 334 q 297 -80 294 57 l 464 -95 l 464 -146 l 152 -146 z "},"\\":{"ha":540,"x_min":16,"x_max":522,"o":"m 16 1175 l 115 1175 l 522 -144 l 420 -144 l 16 1175 z "},"]":{"ha":503,"x_min":39,"x_max":351,"o":"m 39 -95 l 206 -80 q 209 334 209 56 l 209 697 q 206 1109 209 972 l 39 1126 l 39 1177 l 351 1177 q 347 697 347 1021 l 347 334 q 351 -146 347 12 l 39 -146 l 39 -95 z "},"^":{"ha":800,"x_min":153,"x_max":652,"o":"m 186 521 q 159 525 165 521 q 160 540 153 529 l 357 1010 q 369 1019 361 1019 l 434 1019 q 448 1010 445 1019 l 642 540 q 629 521 652 521 l 560 521 q 547 530 549 521 l 400 882 l 255 530 q 243 521 250 521 l 186 521 z "},"_":{"ha":751,"x_min":-5,"x_max":758,"o":"m -5 -88 q 8 -76 -5 -76 l 745 -76 q 758 -88 758 -76 l 758 -157 q 745 -171 758 -171 l 8 -171 q -5 -157 -5 -171 l -5 -88 z "},"`":{"ha":605,"x_min":136,"x_max":407,"o":"m 140 1021 q 136 1039 136 1025 q 144 1059 136 1053 q 252 1097 193 1097 q 288 1088 281 1097 l 396 892 q 407 854 407 872 q 395 827 407 836 q 374 818 382 818 q 363 819 366 818 q 358 820 361 819 q 353 822 355 821 q 348 825 351 823 q 342 829 345 827 q 336 834 340 830 q 330 840 332 838 q 316 853 328 841 l 140 1021 z "},"a":{"ha":743,"x_min":56,"x_max":736,"o":"m 113 17 q 84 40 113 17 q 56 150 56 62 q 128 300 56 237 q 323 389 201 362 q 414 406 347 395 q 481 427 481 416 q 426 575 481 545 q 332 595 382 595 q 174 471 252 595 q 161 464 170 464 l 141 465 q 128 479 132 465 q 116 527 125 492 q 103 582 107 562 q 111 600 103 591 q 336 692 222 692 q 617 429 617 692 l 612 195 q 622 100 612 123 q 670 76 632 76 q 693 81 675 76 l 711 85 q 736 34 727 85 q 732 23 736 27 q 593 -28 682 -28 q 472 56 505 -28 q 370 -11 414 7 q 248 -28 326 -28 q 113 17 170 -28 m 194 157 q 229 102 194 127 q 301 77 263 77 q 382 95 339 77 q 473 164 473 130 l 479 330 l 351 300 q 194 157 194 258 z "},"b":{"ha":779,"x_min":95,"x_max":741,"o":"m 95 1001 l 95 1004 q 110 1021 95 1021 q 228 1051 160 1024 q 237 1053 231 1053 q 252 1044 244 1053 q 259 1023 259 1035 q 250 732 250 890 l 250 633 q 444 693 323 693 q 653 597 566 693 q 741 358 741 502 q 710 184 741 260 q 629 62 680 109 q 396 -28 528 -28 q 217 39 305 -28 q 210 24 217 38 q 198 5 202 11 q 184 -14 194 0 q 163 -28 175 -28 q 106 -3 106 -28 l 113 113 l 113 704 q 95 1001 113 909 m 250 130 q 315 82 273 103 q 387 61 357 61 q 590 346 590 61 q 537 541 590 477 q 408 604 484 604 q 250 521 331 604 l 250 130 z "},"c":{"ha":663,"x_min":45,"x_max":610,"o":"m 133 72 q 89 122 133 72 q 45 333 45 172 q 149 593 45 494 q 382 693 254 693 q 600 647 510 693 q 610 631 610 640 q 574 500 585 540 q 563 491 571 491 l 543 490 q 529 495 533 490 q 390 604 468 604 q 253 532 312 604 q 194 340 194 461 q 254 147 194 218 q 398 76 313 76 q 552 137 483 76 q 564 140 555 140 q 592 119 574 140 q 610 94 610 99 q 608 85 610 88 q 370 -28 518 -28 q 133 72 221 -28 z "},"d":{"ha":819,"x_min":65,"x_max":722,"o":"m 147 75 q 106 127 147 75 q 65 335 65 179 q 168 592 65 491 q 429 693 270 693 q 559 666 495 693 l 559 704 q 544 1001 559 913 l 544 1002 q 566 1022 544 1021 q 616 1031 587 1023 q 663 1046 646 1039 q 688 1053 681 1053 q 702 1044 694 1053 q 709 1023 709 1035 q 696 732 696 864 l 696 297 q 709 129 696 232 q 722 -1 722 26 q 697 -16 722 -16 l 583 -18 q 556 -3 560 -18 l 557 60 q 353 -28 477 -28 q 147 75 229 -28 m 213 342 q 259 144 213 210 q 368 79 305 79 q 467 105 414 79 q 559 179 519 132 l 559 524 q 411 604 507 604 q 288 559 349 604 q 233 477 254 533 q 213 342 213 420 z "},"e":{"ha":700,"x_min":39,"x_max":651,"o":"m 111 77 q 39 328 39 165 q 138 592 39 491 q 369 693 236 693 q 613 551 540 693 q 650 387 650 477 q 638 358 650 369 q 609 347 627 347 l 189 347 q 239 152 189 214 q 406 90 289 90 q 597 170 522 90 q 608 175 602 175 q 617 170 613 175 l 647 130 q 651 121 651 126 q 648 114 651 117 q 527 10 601 49 q 368 -28 453 -28 q 111 77 198 -28 m 197 437 l 349 435 q 499 444 499 435 q 457 561 499 518 q 371 604 415 604 q 289 581 327 604 q 197 437 218 534 z "},"f":{"ha":484,"x_min":15,"x_max":578,"o":"m 22 587 q 19 591 22 587 q 15 600 15 595 q 31 631 15 605 q 50 671 46 658 q 62 680 56 680 l 146 677 l 146 724 q 245 963 146 873 q 492 1053 345 1053 q 549 1044 519 1053 q 578 1021 578 1036 q 566 995 578 1019 q 533 888 555 971 q 521 878 530 878 l 503 876 q 491 883 495 876 q 456 917 480 903 q 406 930 431 930 q 275 814 275 930 l 283 677 l 343 677 q 450 680 399 677 q 465 672 457 680 q 473 659 473 665 q 465 630 473 654 q 454 590 457 606 q 439 579 452 579 q 330 582 401 582 l 283 582 l 283 308 q 298 1 283 96 l 298 -1 q 282 -18 298 -18 l 148 -18 q 136 -12 141 -18 q 132 0 132 -7 l 132 3 q 146 308 146 92 l 146 582 l 37 579 q 22 587 30 579 z "},"g":{"ha":770,"x_min":35,"x_max":745,"o":"m 35 -157 q 78 -52 35 -90 q 176 12 121 -15 q 83 146 83 49 q 171 263 83 209 q 72 447 72 330 q 156 628 72 564 q 347 692 240 692 q 445 680 404 692 q 650 703 521 684 l 686 708 q 698 702 692 708 q 704 689 704 696 l 704 609 q 698 597 704 602 q 688 591 692 591 q 660 594 685 591 q 566 604 635 597 q 617 446 617 545 q 543 279 617 347 q 346 210 469 210 q 235 229 283 210 q 191 164 191 197 q 215 120 191 132 q 279 109 239 109 l 457 118 q 595 102 534 118 q 700 37 655 85 q 745 -87 745 -11 q 637 -271 745 -203 q 346 -339 529 -339 q 122 -296 209 -339 q 35 -157 35 -252 m 156 -127 q 358 -245 156 -245 q 541 -212 464 -245 q 618 -122 618 -179 q 395 1 618 1 l 260 -3 q 188 -62 220 -26 q 156 -127 156 -98 m 206 458 q 351 300 206 300 q 448 339 414 300 q 483 446 483 378 q 342 606 483 606 q 243 568 279 606 q 206 458 206 530 z "},"h":{"ha":848,"x_min":111,"x_max":750,"o":"m 111 0 l 111 1 q 126 278 126 106 l 126 703 q 111 1001 126 913 l 111 1002 q 133 1022 111 1021 q 184 1031 155 1023 q 231 1046 213 1039 q 255 1053 248 1053 q 269 1044 262 1053 q 277 1023 277 1035 q 263 734 263 833 l 263 571 q 519 692 381 692 q 684 625 629 692 q 739 434 739 559 l 735 278 q 750 1 735 109 l 750 0 q 745 -12 750 -7 q 732 -18 739 -18 l 602 -18 q 590 -12 595 -18 q 585 0 585 -7 l 585 1 q 598 278 598 92 l 598 430 q 566 543 598 514 q 483 572 534 572 q 373 543 431 572 q 263 454 315 513 l 263 278 q 277 1 263 111 l 277 0 q 271 -12 277 -7 q 259 -18 266 -18 l 129 -18 q 117 -12 122 -18 q 111 0 111 -7 z "},"i":{"ha":401,"x_min":110,"x_max":294,"o":"m 138 859 q 124 873 138 859 q 110 924 110 887 q 138 987 110 960 q 202 1015 165 1015 q 267 987 239 1015 q 294 924 294 960 q 267 859 294 887 q 202 830 239 830 q 138 859 165 830 m 119 0 l 119 1 q 134 278 134 115 l 134 363 q 127 533 134 429 q 119 665 119 637 q 144 680 119 680 l 256 684 q 283 654 283 684 l 283 652 q 270 388 270 518 l 270 278 q 283 1 270 110 l 283 0 q 277 -12 283 -5 q 266 -18 271 -18 l 137 -18 q 125 -12 130 -18 q 119 0 119 -7 z "},"j":{"ha":420,"x_min":-77,"x_max":311,"o":"m -77 -317 q -74 -304 -77 -315 q -71 -178 -71 -293 q -33 -159 -71 -163 q -20 -165 -24 -159 q 60 -228 14 -228 q 151 148 151 -228 l 151 363 q 137 662 151 568 l 137 666 q 160 681 137 681 l 274 684 q 294 675 286 684 q 302 654 302 667 l 302 652 q 288 388 288 506 l 288 186 q 275 -73 288 11 q 225 -216 262 -157 q 4 -347 141 -347 q -50 -340 -23 -347 q -77 -317 -77 -332 m 154 859 q 140 873 154 859 q 126 924 126 887 q 154 987 126 960 q 218 1015 182 1015 q 283 987 255 1015 q 311 924 311 960 q 283 859 311 887 q 218 830 255 830 q 154 859 182 830 z "},"k":{"ha":777,"x_min":111,"x_max":768,"o":"m 111 0 l 111 1 q 126 309 126 114 l 126 704 q 111 1001 126 913 l 111 1002 q 133 1022 111 1021 q 184 1031 155 1023 q 231 1046 213 1039 q 255 1053 248 1053 q 269 1044 262 1053 q 277 1023 277 1035 q 263 732 263 827 l 263 387 q 309 406 290 391 q 429 522 355 442 q 551 671 503 602 q 562 677 555 677 l 719 681 q 730 675 724 681 q 735 663 735 670 q 730 652 735 656 q 427 368 583 526 q 652 123 537 237 q 768 1 768 8 q 762 -12 768 -5 q 749 -18 755 -18 l 571 -18 q 557 -12 562 -18 q 450 143 490 85 q 317 298 410 201 q 263 309 309 304 q 277 1 263 98 l 277 0 q 271 -12 277 -7 q 259 -18 266 -18 l 129 -18 q 117 -12 122 -18 q 111 0 111 -7 z "},"l":{"ha":389,"x_min":118,"x_max":283,"o":"m 118 0 l 118 1 q 133 309 133 114 l 133 704 q 118 1001 133 913 l 118 1002 q 149 1023 118 1021 q 239 1046 180 1024 l 256 1053 q 276 1044 269 1053 q 283 1023 283 1035 q 270 732 270 827 l 270 309 q 283 1 270 98 l 283 0 q 278 -12 283 -7 q 266 -18 273 -18 l 136 -18 q 123 -12 129 -18 q 118 0 118 -7 z "},"m":{"ha":1246,"x_min":99,"x_max":1160,"o":"m 99 0 l 99 1 q 113 278 113 94 l 113 363 q 99 661 113 579 l 99 662 q 105 675 99 669 q 117 681 111 681 l 228 686 q 250 656 250 686 l 250 568 q 502 692 376 692 q 617 662 566 692 q 686 583 669 632 q 928 692 800 692 q 1100 618 1055 692 q 1145 433 1145 544 l 1145 278 q 1160 1 1145 107 l 1160 0 q 1154 -12 1160 -7 q 1142 -18 1149 -18 l 1012 -18 q 1000 -12 1005 -18 q 994 0 994 -7 l 994 1 q 1008 278 1008 94 l 1008 449 q 871 572 1008 572 q 783 556 822 572 q 696 488 745 540 l 696 278 q 711 1 696 107 l 711 0 q 705 -12 711 -7 q 693 -18 700 -18 l 563 -18 q 551 -12 556 -18 q 545 0 545 -7 l 545 1 q 559 278 559 94 l 559 449 q 527 545 559 517 q 454 572 495 572 q 357 541 414 572 q 250 460 300 510 l 250 278 q 264 1 250 107 l 264 0 q 259 -12 264 -7 q 247 -18 254 -18 l 117 -18 q 104 -12 110 -18 q 99 0 99 -7 z "},"n":{"ha":833,"x_min":100,"x_max":739,"o":"m 100 0 l 100 1 q 115 278 115 103 l 115 363 q 100 661 115 571 l 100 662 q 106 675 100 669 q 118 681 113 681 l 227 686 q 252 658 252 686 l 252 571 q 509 692 370 692 q 673 625 618 692 q 728 434 728 559 l 724 278 q 739 1 724 107 l 739 0 q 734 -12 739 -7 q 722 -18 728 -18 l 591 -18 q 579 -12 585 -18 q 574 0 574 -7 l 574 1 q 587 278 587 104 l 587 430 q 555 543 587 514 q 471 572 524 572 q 361 543 419 572 q 252 454 304 514 l 252 278 q 266 1 252 98 l 266 0 q 260 -12 266 -7 q 248 -18 255 -18 l 118 -18 q 106 -12 111 -18 q 100 0 100 -7 z "},"o":{"ha":773,"x_min":45,"x_max":727,"o":"m 138 70 q 91 119 138 70 q 45 328 45 168 q 140 590 45 487 q 395 693 236 693 q 640 595 553 693 q 727 334 727 496 q 635 72 727 172 q 387 -28 543 -28 q 138 70 231 -28 m 194 343 q 281 109 194 193 q 401 61 330 61 q 525 130 472 61 q 578 302 578 198 q 534 528 578 453 q 390 604 491 604 q 241 528 289 604 q 194 343 194 453 z "},"p":{"ha":808,"x_min":99,"x_max":745,"o":"m 99 -275 q 113 -49 113 -174 l 113 363 q 99 661 113 579 l 99 662 q 105 675 99 669 q 117 681 111 681 l 225 686 q 250 656 250 686 l 250 578 q 466 692 339 692 q 669 592 593 692 q 745 357 745 492 q 653 79 745 186 q 404 -28 562 -28 q 250 -3 312 -28 l 250 -49 q 264 -275 250 -156 l 264 -277 q 258 -290 264 -283 q 247 -296 252 -296 l 117 -296 q 104 -290 110 -296 q 99 -277 99 -283 l 99 -275 m 250 121 q 385 61 304 61 q 513 106 467 61 q 595 338 595 182 q 552 529 595 464 q 435 594 509 594 q 334 551 395 594 q 250 452 274 507 l 250 121 z "},"q":{"ha":807,"x_min":62,"x_max":708,"o":"m 62 334 q 159 591 62 490 q 397 693 255 693 q 545 685 502 693 q 629 677 589 677 l 692 681 q 703 675 697 681 q 708 662 708 669 l 708 661 q 693 363 693 571 l 693 -49 q 708 -275 693 -180 l 708 -277 q 703 -290 708 -283 q 690 -296 697 -296 l 560 -296 q 548 -290 553 -296 q 543 -277 543 -283 l 543 -275 q 556 -49 556 -184 l 556 11 q 376 -28 483 -28 q 195 30 269 -28 q 62 334 62 134 m 212 351 q 345 79 212 133 q 406 66 377 66 q 482 79 434 66 q 556 109 530 91 l 556 362 q 552 575 556 518 q 407 604 513 604 q 269 534 326 604 q 212 351 212 465 z "},"r":{"ha":548,"x_min":107,"x_max":536,"o":"m 107 0 l 107 1 q 121 278 121 94 l 121 363 q 107 661 121 579 l 107 665 q 133 681 107 681 l 233 686 q 258 656 258 686 l 258 555 q 460 692 342 692 q 510 685 484 692 q 536 663 536 678 q 522 612 536 661 q 504 547 507 563 q 486 530 500 530 q 468 534 472 530 q 393 552 449 552 q 298 490 338 552 q 258 358 258 427 l 258 278 q 273 1 258 121 l 273 0 q 267 -12 273 -7 q 255 -18 262 -18 l 125 -18 q 113 -12 118 -18 q 107 0 107 -7 z "},"s":{"ha":612,"x_min":38,"x_max":562,"o":"m 38 26 l 64 159 q 76 170 66 170 l 99 171 q 111 165 107 171 q 283 61 187 61 q 385 92 343 61 q 426 171 426 122 q 385 245 426 220 q 283 289 345 271 q 195 318 222 307 q 136 351 167 330 q 71 491 71 395 q 145 640 71 587 q 328 693 220 693 q 532 644 437 693 q 543 631 543 637 q 511 510 543 625 q 499 500 509 500 l 477 498 q 467 503 472 498 q 424 551 437 537 q 378 584 411 564 q 303 604 345 604 q 228 581 262 604 q 194 519 194 559 q 340 406 194 442 q 502 335 442 381 q 562 203 562 289 q 507 52 562 118 q 266 -28 442 -28 q 46 14 167 -28 q 38 26 38 18 z "},"t":{"ha":515,"x_min":28,"x_max":487,"o":"m 36 587 q 32 590 36 587 q 28 599 28 594 q 35 616 28 604 q 51 646 42 629 q 64 671 60 663 q 79 680 68 680 q 153 677 109 677 q 160 863 153 734 q 178 879 160 876 q 209 887 195 882 q 237 902 222 892 q 266 917 251 911 q 298 888 298 917 q 292 677 292 803 q 464 680 414 677 q 479 672 471 680 q 487 659 487 665 q 479 630 487 654 q 468 590 471 606 q 453 579 465 579 q 290 582 419 582 l 286 195 q 302 99 286 119 q 368 79 319 79 q 418 87 385 79 q 452 95 450 95 q 472 71 460 95 q 484 39 484 46 q 479 30 484 31 q 292 -28 387 -28 q 190 14 231 -28 q 149 133 149 56 l 153 582 l 50 579 q 36 587 43 579 z "},"u":{"ha":830,"x_min":100,"x_max":731,"o":"m 100 662 l 100 663 q 106 675 100 670 q 118 681 111 681 l 248 681 q 260 675 255 681 q 266 663 266 670 l 266 662 q 252 385 252 571 l 252 232 q 290 109 252 132 q 372 85 328 85 q 473 131 416 85 q 567 237 530 176 l 567 385 q 553 662 567 564 l 553 663 q 559 675 553 670 q 571 681 564 681 l 701 681 q 713 675 708 681 q 719 663 719 670 l 719 662 q 704 385 704 563 l 704 297 q 718 129 704 232 q 731 -1 731 26 q 707 -16 731 -16 l 598 -18 q 578 -3 581 -18 l 572 110 q 350 -28 469 -28 q 173 39 231 -28 q 115 199 115 106 l 115 385 q 100 662 115 556 z "},"v":{"ha":713,"x_min":16,"x_max":699,"o":"m 16 671 q 27 682 16 682 l 184 681 q 197 671 193 681 q 378 156 298 345 q 481 441 416 243 q 559 673 547 640 q 572 682 564 682 l 685 681 q 699 671 699 681 q 696 662 699 670 q 419 -9 499 214 q 406 -18 415 -18 l 313 -18 q 300 -9 304 -18 q 19 662 163 347 q 16 671 16 666 z "},"w":{"ha":1116,"x_min":16,"x_max":1100,"o":"m 16 670 q 27 681 16 681 l 184 680 q 197 670 193 680 q 382 146 307 326 q 506 465 430 250 q 434 666 434 651 q 445 681 434 681 l 601 681 q 614 671 613 681 q 765 146 673 397 q 954 671 853 354 q 967 682 959 682 l 1086 681 q 1100 671 1100 681 q 1097 662 1100 670 q 810 -9 1017 487 q 796 -18 806 -18 l 700 -19 q 688 -9 694 -19 q 560 324 678 16 q 437 -11 534 259 q 423 -20 431 -20 l 317 -19 q 304 -11 308 -19 q 19 661 189 288 q 16 670 16 665 z "},"x":{"ha":703,"x_min":22,"x_max":682,"o":"m 26 661 q 22 674 22 667 q 34 681 22 681 l 198 681 q 209 675 203 681 q 271 565 218 661 q 357 425 324 469 q 451 559 391 469 q 529 675 511 650 q 540 681 534 681 l 665 681 q 682 670 682 680 q 677 659 682 665 l 419 342 q 662 4 553 146 q 666 -10 666 -3 q 654 -18 666 -18 l 498 -18 q 487 -12 492 -18 q 418 100 471 12 q 334 232 365 187 q 253 106 304 187 q 178 -12 202 24 q 167 -18 172 -18 l 46 -18 q 27 -7 27 -18 q 33 4 27 -1 l 269 320 l 26 661 z "},"y":{"ha":781,"x_min":28,"x_max":754,"o":"m 28 671 q 41 681 28 681 l 186 681 q 199 673 195 681 q 388 159 296 381 q 600 673 543 494 q 613 681 604 681 l 741 681 q 754 673 754 681 q 742 644 754 666 q 536 231 730 621 q 304 -289 343 -159 q 289 -298 298 -298 l 155 -298 q 145 -291 145 -298 q 204 -190 145 -283 q 307 0 263 -96 q 31 662 194 300 q 28 671 28 666 z "},"z":{"ha":643,"x_min":18,"x_max":624,"o":"m 24 -11 q 21 -7 24 -11 q 18 2 18 -4 q 34 29 18 8 q 54 57 50 50 l 416 579 l 77 563 l 75 563 q 60 586 60 563 l 60 656 q 75 681 60 681 l 163 677 l 477 677 l 602 681 q 624 658 624 681 q 605 631 624 654 q 575 591 586 608 l 222 83 q 488 93 423 88 q 575 99 553 98 l 598 100 q 613 77 613 100 l 613 7 q 598 -18 613 -18 l 510 -14 l 161 -14 l 37 -18 q 24 -11 30 -18 z "},"{":{"ha":515,"x_min":61,"x_max":469,"o":"m 61 490 l 61 541 q 193 589 155 553 q 232 673 232 624 q 193 823 232 723 q 155 986 155 922 q 223 1128 155 1080 q 416 1177 292 1177 l 469 1177 l 469 1127 l 426 1123 q 326 1084 357 1116 q 294 994 294 1053 q 317 841 294 936 q 339 708 339 746 q 159 515 339 544 q 339 323 339 486 q 317 190 339 285 q 294 37 294 95 q 326 -54 294 -22 q 426 -92 357 -85 l 469 -96 l 469 -146 l 416 -146 q 223 -98 292 -146 q 155 43 155 -50 q 193 208 155 107 q 232 349 232 308 q 61 490 232 469 z "},"|":{"ha":324,"x_min":111,"x_max":214,"o":"m 111 -127 l 111 1161 q 125 1175 111 1175 l 201 1175 q 214 1161 214 1175 l 214 -127 q 201 -141 214 -141 l 125 -141 q 111 -127 111 -141 z "},"}":{"ha":515,"x_min":46,"x_max":454,"o":"m 46 -96 l 90 -92 q 190 -54 159 -85 q 221 37 221 -22 q 199 190 221 95 q 176 323 176 285 q 357 515 176 486 q 176 708 176 544 q 199 841 176 746 q 221 994 221 936 q 190 1084 221 1053 q 90 1123 159 1116 l 46 1127 l 46 1177 l 99 1177 q 292 1128 224 1177 q 361 986 361 1080 q 322 823 361 922 q 283 673 283 723 q 322 589 283 624 q 454 541 361 553 l 454 490 q 283 349 283 469 q 322 208 283 308 q 361 43 361 107 q 292 -98 361 -50 q 99 -146 224 -146 l 46 -146 l 46 -96 z "},"~":{"ha":817,"x_min":71,"x_max":747,"o":"m 71 407 q 123 572 75 518 q 254 627 172 627 q 340 607 302 627 q 431 543 378 587 q 575 473 513 473 q 681 631 666 473 l 747 623 q 695 456 743 511 q 566 401 647 401 q 478 420 515 401 q 390 483 441 439 q 310 541 339 526 q 248 556 281 556 q 138 400 151 556 l 71 407 z "},"§":{"ha":764,"x_min":65,"x_max":700,"o":"m 184 212 q 65 444 65 304 q 178 675 65 583 q 114 843 114 750 q 191 1010 114 936 q 387 1085 269 1085 q 490 1063 439 1085 q 561 1027 541 1042 q 616 981 581 1012 q 625 959 627 970 l 597 844 q 586 831 594 834 l 564 829 q 551 836 556 827 q 467 951 509 909 q 372 993 425 993 q 286 960 320 993 q 251 876 251 926 q 369 732 251 783 q 667 509 601 637 q 700 374 700 448 q 587 151 700 243 q 651 -17 651 76 q 574 -184 651 -110 q 378 -258 496 -258 q 275 -237 326 -258 q 205 -201 225 -217 q 151 -156 184 -186 q 140 -133 138 -144 l 167 -18 q 179 -7 170 -9 l 201 -4 q 216 -11 210 -1 q 299 -125 258 -84 q 393 -167 340 -167 q 479 -134 445 -167 q 514 -52 514 -102 q 396 94 514 43 q 184 212 281 140 m 235 623 q 183 514 183 567 q 201 435 183 461 q 229 395 218 410 q 263 362 240 380 q 299 334 286 345 q 342 307 312 324 q 384 284 373 290 q 429 260 395 278 l 471 240 q 529 203 499 225 q 582 319 582 262 q 546 418 582 377 q 486 476 510 458 q 450 502 461 494 q 410 525 438 510 q 372 546 382 540 q 332 567 362 552 l 294 586 q 235 623 262 602 z "},"¨":{"ha":586,"x_min":64,"x_max":498,"o":"m 90 827 q 77 839 90 827 q 64 887 64 852 q 90 949 64 922 q 151 975 115 975 q 211 949 186 975 q 236 887 236 922 q 211 827 236 852 q 151 802 186 802 q 90 827 115 802 m 351 827 q 338 839 351 827 q 326 887 326 852 q 351 949 326 922 q 411 975 376 975 q 472 949 446 975 q 498 887 498 922 q 472 827 498 852 q 411 802 446 802 q 351 827 376 802 z "},"°":{"ha":412,"x_min":39,"x_max":374,"o":"m 89 694 q 64 718 89 694 q 39 812 39 742 q 89 931 39 882 q 208 981 138 981 q 326 931 277 981 q 374 812 374 882 q 326 694 374 742 q 208 646 277 646 q 89 694 138 646 m 142 880 q 130 865 142 880 q 118 811 118 850 q 142 744 118 772 q 207 716 167 716 q 271 745 247 716 q 296 811 296 773 q 273 880 296 849 q 208 910 250 910 q 142 880 167 910 z "},"±":{"ha":1389,"x_min":206,"x_max":1190,"o":"m 206 19 l 206 132 l 1190 132 l 1190 19 l 206 19 m 206 624 l 206 736 l 637 736 l 637 1096 l 751 1096 l 751 736 l 1183 736 l 1183 624 l 751 624 l 751 263 l 637 263 l 637 624 l 206 624 z "},"´":{"ha":526,"x_min":122,"x_max":396,"o":"m 133 836 q 127 840 133 836 q 122 862 122 845 q 142 910 122 879 l 259 1095 q 292 1104 266 1104 q 387 1065 346 1104 q 391 1058 391 1061 l 395 1042 q 391 1028 396 1034 l 213 860 q 161 826 179 826 q 133 836 144 826 z "},"Å":{"ha":972,"x_min":9,"x_max":963,"o":"m 9 -8 q 12 1 9 -7 q 380 821 293 617 q 469 1025 468 1024 q 399 1063 430 1034 q 354 1164 354 1104 q 399 1265 354 1223 q 503 1306 444 1306 q 606 1265 562 1306 q 651 1164 651 1223 q 613 1069 651 1105 q 536 1025 575 1034 q 726 559 540 1021 q 938 47 913 96 q 963 -10 963 -3 q 951 -18 963 -18 l 791 -18 q 779 -8 781 -18 q 662 340 732 151 q 475 346 559 346 q 286 340 392 346 q 161 -8 194 114 q 148 -18 160 -18 l 23 -18 q 9 -8 9 -18 m 327 439 q 480 437 381 437 q 624 438 579 437 q 479 792 566 591 l 327 439 m 456 1216 q 447 1205 456 1216 q 438 1164 438 1195 q 456 1112 438 1134 q 502 1090 475 1090 q 547 1112 529 1090 q 566 1164 566 1134 q 548 1216 566 1195 q 502 1237 530 1237 q 456 1216 473 1237 z "},"×":{"ha":1389,"x_min":245,"x_max":1145,"o":"m 245 149 l 621 524 l 245 898 l 321 972 l 696 597 l 1072 972 l 1145 899 l 769 524 l 1145 149 l 1072 73 l 696 449 l 320 73 l 245 149 z "},"÷":{"ha":1389,"x_min":191,"x_max":1198,"o":"m 191 469 l 191 575 l 1198 575 l 1198 469 l 191 469 m 621 95 q 605 111 621 95 q 590 170 590 126 q 621 243 590 213 q 694 274 651 274 q 768 243 738 274 q 799 170 799 213 q 768 95 799 126 q 694 64 738 64 q 621 95 651 64 m 621 802 q 605 817 621 802 q 590 876 590 833 q 621 950 590 920 q 694 981 651 981 q 768 950 738 981 q 799 876 799 920 q 768 802 799 833 q 694 770 738 770 q 621 802 651 770 z "},"Α":{"ha":972,"x_min":5,"x_max":962,"o":"m 22 -18 q 20 -18 22 -18 q 12 -14 18 -18 q 12 1 5 -11 q 468 1023 293 617 q 481 1031 472 1031 l 524 1031 q 537 1023 534 1031 q 751 496 590 897 q 960 1 913 96 l 962 -12 q 940 -17 959 -20 q 863 -14 921 -14 q 786 -17 804 -14 q 765 -8 768 -20 q 648 340 719 151 q 468 343 608 343 q 286 340 328 343 q 161 -8 194 114 q 144 -17 159 -20 q 87 -14 130 -14 q 35 -16 45 -14 q 22 -18 26 -18 m 327 439 q 481 435 445 435 q 610 438 518 435 q 472 776 553 586 l 327 439 z "},"Β":{"ha":952,"x_min":132,"x_max":871,"o":"m 132 1 q 148 309 148 111 l 148 688 q 132 996 148 880 q 138 1010 132 1002 q 160 1014 145 1017 q 228 1010 175 1010 l 423 1016 q 706 935 633 1016 q 779 762 779 854 q 743 649 779 704 q 655 560 708 594 q 871 278 871 483 q 791 81 871 168 q 667 9 749 37 q 473 -18 586 -18 l 228 -14 l 149 -18 q 133 -4 133 -20 l 132 1 m 308 136 q 337 91 308 106 q 444 76 366 76 q 573 89 522 76 q 648 128 624 102 q 682 184 673 155 q 690 255 690 213 q 627 427 690 361 q 438 494 563 494 l 308 494 l 308 136 m 308 587 l 415 587 q 566 622 515 587 q 617 750 617 656 q 564 883 617 844 q 441 922 510 922 q 346 916 373 922 q 313 899 319 909 q 308 864 308 888 l 308 587 z "},"Γ":{"ha":743,"x_min":122,"x_max":751,"o":"m 122 1 q 140 309 140 126 l 140 688 q 125 996 140 894 l 125 1001 q 141 1016 127 1019 q 220 1010 167 1010 l 642 1010 q 732 1016 684 1010 q 745 1010 739 1016 q 751 997 751 1004 q 749 939 749 954 q 750 910 749 925 q 746 888 751 895 q 734 882 741 882 q 309 901 511 901 q 300 688 300 842 l 300 309 q 315 1 300 99 l 315 -4 q 297 -18 312 -23 q 220 -14 274 -14 l 141 -18 q 128 -13 134 -19 q 122 1 122 -7 z "},"Δ":{"ha":983,"x_min":33,"x_max":941,"o":"m 33 11 q 42 37 33 14 l 435 1023 q 449 1031 439 1031 l 544 1031 q 557 1023 556 1031 l 935 35 q 941 9 941 16 q 895 -14 941 -14 l 75 -14 q 33 11 33 -14 m 182 81 l 741 81 l 465 812 l 182 81 z "},"Ε":{"ha":831,"x_min":132,"x_max":758,"o":"m 132 1 q 148 309 148 111 l 148 688 q 132 996 148 880 q 138 1010 132 1002 q 160 1014 145 1017 q 228 1010 175 1010 l 633 1010 q 726 1016 677 1010 q 738 1010 732 1016 q 743 997 743 1004 q 741 939 741 954 q 742 902 741 925 q 726 879 743 879 q 317 897 519 895 q 308 688 308 838 l 308 581 q 637 597 458 581 q 654 587 651 597 q 655 555 658 578 q 652 529 652 533 l 656 486 q 637 461 656 461 q 308 476 481 476 l 308 309 q 317 100 308 156 q 681 114 517 100 l 741 118 q 757 97 758 118 q 755 60 755 76 q 758 1 755 45 q 741 -18 758 -18 q 650 -14 704 -14 l 228 -14 l 149 -18 q 133 -4 133 -20 l 132 1 z "},"Ζ":{"ha":962,"x_min":50,"x_max":906,"o":"m 56 9 q 96 66 62 18 q 429 547 216 225 q 665 901 643 868 q 125 868 507 901 q 113 874 118 868 q 109 895 107 880 q 110 931 110 909 q 107 997 110 954 q 113 1010 107 1004 q 125 1016 118 1016 q 218 1010 174 1010 l 688 1010 q 882 1020 800 1010 l 883 1020 q 899 1013 892 1020 q 906 997 906 1005 q 857 906 906 975 l 308 103 l 305 98 q 779 122 471 98 l 876 129 q 888 123 883 129 q 894 110 894 117 q 890 60 890 77 l 894 1 q 875 -18 894 -18 q 766 -14 838 -14 l 206 -14 l 72 -18 q 56 -8 62 -18 q 56 9 50 1 z "},"Η":{"ha":1122,"x_min":132,"x_max":990,"o":"m 132 1 q 148 309 148 111 l 148 688 q 132 996 148 880 q 138 1010 132 1002 q 151 1016 145 1017 q 228 1010 183 1010 q 305 1016 273 1010 q 321 1001 319 1017 l 323 996 q 308 688 308 898 l 308 578 l 815 578 l 815 688 q 800 996 815 890 q 807 1011 800 1004 q 833 1015 814 1019 q 897 1010 852 1010 q 974 1016 941 1010 q 990 1001 987 1017 l 990 996 q 975 688 975 898 l 975 309 q 990 1 975 107 q 969 -17 990 -20 q 895 -14 948 -14 q 823 -17 841 -14 q 800 -4 806 -20 l 800 1 q 815 309 815 103 l 815 483 l 308 483 l 308 309 q 323 1 308 107 q 317 -13 323 -7 q 295 -16 311 -19 q 227 -14 279 -14 q 155 -17 174 -14 q 132 1 137 -20 z "},"Θ":{"ha":1145,"x_min":66,"x_max":1078,"o":"m 213 111 q 140 181 213 111 q 66 481 66 251 q 212 871 66 711 q 572 1031 357 1031 q 932 886 787 1031 q 1078 506 1078 741 q 938 121 1078 271 q 578 -28 798 -28 q 213 111 359 -28 m 254 506 q 356 182 254 298 q 595 66 458 66 q 812 174 731 66 q 892 495 892 281 q 802 823 892 709 q 549 936 712 936 q 350 841 435 936 q 279 707 305 793 q 254 506 254 621 m 324 553 q 338 570 321 570 l 343 570 q 551 555 448 555 q 774 570 655 555 q 795 552 795 570 q 789 490 789 511 l 795 444 q 780 426 798 426 l 774 426 q 559 441 662 441 q 343 426 456 441 q 329 432 335 426 q 326 453 323 438 q 328 490 328 468 l 324 553 z "},"Ι":{"ha":454,"x_min":132,"x_max":323,"o":"m 132 1 q 148 309 148 111 l 148 688 q 132 996 148 880 q 138 1010 132 1002 q 151 1016 145 1017 q 227 1010 183 1010 q 284 1013 271 1010 q 301 1015 297 1015 q 323 996 323 1015 q 308 688 308 898 l 308 309 q 323 1 308 107 q 317 -13 323 -7 q 295 -16 311 -19 q 227 -14 279 -14 q 159 -16 175 -14 q 138 -13 144 -19 q 132 1 132 -7 z "},"Κ":{"ha":972,"x_min":132,"x_max":952,"o":"m 132 1 q 148 309 148 111 l 148 688 q 132 996 148 880 q 138 1010 132 1002 q 151 1016 145 1017 q 227 1010 183 1010 q 284 1013 271 1010 q 301 1015 297 1015 q 323 996 323 1015 q 308 688 308 898 l 308 549 q 319 556 315 551 q 758 1010 499 713 q 776 1014 762 1017 q 840 1010 789 1010 q 921 1016 890 1010 q 932 991 948 1002 q 680 760 817 891 q 469 545 543 628 l 948 4 q 950 -2 948 3 q 951 -14 952 -7 q 929 -17 949 -20 q 841 -14 909 -14 q 758 -16 773 -14 q 736 -14 742 -19 q 315 488 396 407 q 308 491 312 491 l 308 309 q 323 1 308 107 q 317 -13 323 -7 q 295 -16 311 -19 q 227 -14 279 -14 q 159 -16 175 -14 q 138 -13 144 -19 q 132 1 132 -7 z "},"Λ":{"ha":966,"x_min":-4,"x_max":954,"o":"m 12 -18 q 10 -18 12 -18 q 2 -14 8 -18 q 3 1 -4 -11 q 460 1019 339 739 q 472 1027 464 1027 l 515 1027 q 528 1019 525 1027 q 743 492 579 895 q 951 1 907 88 l 954 -11 q 924 -16 951 -19 q 848 -14 898 -14 q 762 -18 799 -14 q 747 -8 750 -20 q 464 762 651 327 q 406 629 426 675 q 360 521 387 582 q 323 435 334 460 q 291 355 313 410 q 231 206 269 300 q 160 -8 194 113 q 139 -17 157 -20 q 82 -14 121 -14 q 29 -16 43 -14 q 12 -18 15 -18 z "},"Μ":{"ha":1389,"x_min":92,"x_max":1291,"o":"m 95 -1 q 294 1025 227 636 q 308 1038 297 1038 l 359 1038 q 372 1029 369 1038 q 712 274 566 581 l 1081 1029 q 1093 1038 1086 1038 l 1133 1038 q 1146 1025 1143 1038 q 1291 -3 1207 499 l 1291 -8 q 1275 -18 1291 -20 q 1204 -11 1238 -11 q 1131 -18 1169 -11 q 1115 -5 1116 -22 q 1031 715 1089 282 q 693 -5 861 376 q 681 -14 689 -14 l 651 -14 q 650 -11 647 -14 q 652 -5 652 -8 q 331 724 498 372 q 220 -7 263 307 q 197 -16 216 -20 q 157 -12 178 -12 q 123 -16 137 -12 q 106 -20 110 -19 q 98 -16 103 -20 q 95 -1 92 -12 z "},"Ν":{"ha":1109,"x_min":138,"x_max":990,"o":"m 138 1 q 161 536 161 239 q 153 997 161 833 q 161 1011 153 1005 q 176 1015 168 1017 q 195 1012 183 1012 l 235 1010 l 254 1013 q 267 1009 263 1016 l 798 323 q 861 244 857 248 q 865 275 865 264 l 865 688 q 849 996 865 880 q 856 1010 849 1002 q 868 1016 863 1017 q 920 1010 903 1010 q 964 1015 937 1010 q 990 997 990 1019 q 966 416 971 720 q 960 33 962 113 q 917 -28 958 -28 q 840 14 871 -28 l 300 696 q 266 736 281 722 q 264 678 264 724 l 264 309 q 279 1 264 107 q 256 -17 279 -20 q 209 -14 233 -14 q 161 -17 184 -14 q 138 1 138 -20 z "},"Ξ":{"ha":1001,"x_min":54,"x_max":949,"o":"m 60 -23 q 57 -20 60 -23 q 57 -9 54 -16 q 60 11 60 -1 l 61 52 q 58 119 61 110 q 71 136 54 127 l 76 136 q 384 121 174 121 l 618 121 q 926 136 829 121 l 932 136 q 945 114 949 127 q 941 52 941 100 l 945 -9 q 942 -24 948 -19 q 926 -30 936 -30 q 618 -14 811 -14 l 384 -14 q 76 -30 191 -14 q 60 -23 66 -30 m 60 867 q 57 870 60 867 q 57 882 54 873 q 60 901 60 890 l 61 941 q 57 1009 61 1001 q 73 1025 56 1021 l 76 1027 q 384 1010 183 1010 l 618 1010 q 926 1027 819 1010 q 932 1025 928 1027 q 945 1006 949 1023 q 941 941 941 990 l 945 882 q 942 867 948 873 q 926 860 936 860 q 618 878 802 878 l 384 878 q 76 860 201 878 q 60 867 66 860 m 216 553 q 229 570 213 567 l 236 570 q 500 555 340 555 q 774 570 661 555 q 795 552 795 570 q 789 490 789 511 l 795 444 q 780 426 798 426 l 774 426 q 513 441 678 441 q 236 426 347 441 q 217 453 210 426 q 220 490 220 468 l 216 553 z "},"Ο":{"ha":1145,"x_min":66,"x_max":1078,"o":"m 213 111 q 140 181 213 111 q 66 481 66 251 q 212 871 66 711 q 572 1031 357 1031 q 932 886 787 1031 q 1078 506 1078 741 q 938 121 1078 271 q 578 -28 798 -28 q 213 111 359 -28 m 254 506 q 356 182 254 298 q 595 66 458 66 q 812 174 731 66 q 892 495 892 281 q 802 823 892 709 q 549 936 712 936 q 350 841 435 936 q 279 707 305 793 q 254 506 254 621 z "},"Π":{"ha":1095,"x_min":126,"x_max":968,"o":"m 126 1 q 142 309 142 117 l 142 688 q 127 996 142 894 l 127 1001 q 144 1016 130 1019 q 222 1010 170 1010 l 872 1010 l 951 1016 q 967 1001 964 1017 l 967 996 q 952 688 952 894 l 952 309 q 968 1 952 117 q 947 -17 968 -20 q 872 -14 925 -14 l 793 -18 q 777 -4 777 -20 l 777 1 q 792 309 792 99 l 792 688 q 781 903 792 860 q 771 914 774 913 q 753 916 768 916 l 342 916 q 313 903 323 916 q 302 688 302 857 l 302 309 q 317 1 302 99 l 317 -4 q 296 -18 315 -22 q 222 -14 277 -14 l 144 -18 q 132 -13 137 -19 q 126 1 126 -7 z "},"Ρ":{"ha":864,"x_min":132,"x_max":817,"o":"m 132 1 q 148 309 148 111 l 148 688 q 132 996 148 880 q 138 1010 132 1002 q 151 1016 145 1017 q 228 1010 183 1010 l 444 1021 q 625 994 548 1021 q 741 922 701 967 q 817 729 817 838 q 730 524 817 620 q 606 444 685 475 q 438 414 526 414 q 308 425 350 414 l 308 309 q 323 1 308 107 q 317 -13 323 -7 q 295 -16 311 -19 q 227 -14 279 -14 q 159 -16 175 -14 q 138 -13 144 -19 q 132 1 132 -7 m 308 518 q 416 507 347 507 q 585 556 530 507 q 639 730 639 605 q 580 891 639 854 q 438 928 521 928 q 332 915 355 928 q 308 873 308 902 l 308 518 z "},"Σ":{"ha":918,"x_min":18,"x_max":850,"o":"m 18 0 l 18 37 q 23 49 18 43 l 24 52 q 53 83 43 71 l 374 481 l 95 883 q 49 940 64 926 q 34 959 34 954 l 34 997 q 52 1012 34 1012 l 190 1010 l 711 1010 q 803 1016 754 1010 q 815 1010 810 1016 q 821 997 821 1004 q 818 939 818 954 q 819 903 818 925 q 803 882 821 882 q 368 901 537 895 l 340 901 q 275 899 293 901 l 540 519 q 540 503 547 510 l 208 90 q 833 115 532 99 q 850 94 850 115 q 846 45 846 61 l 850 1 q 831 -18 850 -18 q 741 -14 795 -14 l 142 -14 l 35 -16 q 23 -11 28 -16 q 18 0 18 -5 z "},"Τ":{"ha":834,"x_min":9,"x_max":825,"o":"m 15 882 q 12 885 15 882 q 10 898 9 888 q 11 942 11 907 q 10 990 11 977 q 16 1010 9 1004 q 28 1016 22 1016 q 119 1010 77 1010 l 716 1010 q 807 1016 758 1010 q 825 997 825 1016 q 822 936 822 954 q 823 903 822 918 q 819 882 825 888 q 806 876 814 875 q 507 897 707 895 q 498 688 498 838 l 498 309 q 513 1 498 107 q 507 -14 513 -7 q 485 -17 500 -20 q 417 -14 469 -14 q 349 -16 365 -14 q 328 -13 334 -19 q 321 1 321 -7 q 338 309 338 111 l 338 688 q 328 897 338 841 q 58 882 156 897 l 28 876 q 15 882 20 875 z "},"Υ":{"ha":899,"x_min":8,"x_max":892,"o":"m 35 962 q 24 980 35 962 q 10 1001 12 997 q 11 1011 8 1005 q 45 1014 14 1017 q 113 1010 77 1010 q 199 1016 148 1010 q 213 1008 209 1016 q 366 733 283 872 q 472 552 448 594 q 730 1008 637 814 q 745 1016 735 1019 q 806 1010 780 1010 q 852 1013 831 1010 q 876 1015 872 1016 q 886 1010 880 1015 q 883 994 892 1005 q 706 726 840 928 q 529 438 572 524 q 536 48 532 103 q 540 -9 540 -7 q 536 -15 540 -11 q 515 -16 532 -19 q 448 -14 499 -14 q 373 -18 397 -14 q 358 -4 357 -18 q 369 422 369 106 q 190 716 321 505 q 35 962 58 928 z "},"Φ":{"ha":1046,"x_min":42,"x_max":1005,"o":"m 49 435 q 45 452 49 435 q 42 510 42 469 q 65 604 42 551 q 134 706 88 656 q 258 792 179 755 q 438 841 338 829 q 426 996 433 947 q 433 1011 426 1004 q 458 1015 439 1019 q 522 1010 477 1010 q 591 1015 566 1010 q 616 996 616 1019 q 604 844 609 952 q 893 734 781 827 q 1005 513 1005 642 q 892 282 1005 385 q 604 159 780 179 q 617 1 608 65 q 611 -13 617 -7 q 589 -16 605 -19 q 522 -14 574 -14 q 448 -17 469 -14 q 426 1 426 -20 q 438 159 433 46 q 262 199 338 168 q 145 269 186 231 q 80 354 104 307 q 49 435 56 401 m 209 511 q 441 244 209 282 l 441 758 q 271 692 334 746 q 209 511 209 637 m 601 243 q 819 374 779 264 q 838 500 838 425 q 777 686 838 629 q 601 757 716 742 l 601 243 z "},"Χ":{"ha":898,"x_min":15,"x_max":888,"o":"m 33 -17 q 31 -17 33 -17 q 22 -12 28 -16 q 24 3 15 -7 l 361 496 l 33 994 q 30 998 33 996 q 29 1010 27 1001 q 55 1015 31 1019 q 130 1010 79 1010 q 203 1015 182 1010 q 231 1008 225 1019 q 468 628 259 948 q 604 831 562 764 q 705 1008 646 898 q 723 1014 711 1017 q 783 1010 735 1010 q 838 1013 830 1010 q 850 1014 846 1015 q 861 1008 854 1013 q 859 994 868 1004 q 734 823 838 966 q 529 534 629 681 q 883 3 761 176 q 886 -1 883 1 q 886 -12 888 -4 q 864 -17 884 -20 q 782 -14 844 -14 q 703 -16 720 -14 q 681 -11 686 -19 q 572 177 625 96 q 477 321 519 258 q 425 400 434 385 q 178 -11 278 175 q 160 -17 172 -20 q 100 -14 148 -14 q 45 -16 53 -14 q 33 -17 37 -18 z "},"Ψ":{"ha":1073,"x_min":20,"x_max":1053,"o":"m 50 899 q 20 926 20 907 q 34 956 20 945 q 65 966 47 966 l 123 966 q 240 902 201 966 q 279 720 279 838 q 454 385 279 448 l 454 688 q 439 996 454 890 q 446 1010 439 1002 q 458 1016 453 1017 q 535 1010 491 1010 q 592 1013 579 1010 q 609 1015 605 1015 q 631 996 631 1015 q 614 688 614 888 l 614 381 q 700 434 665 396 q 795 738 795 533 q 949 966 795 966 l 1005 966 q 1038 955 1024 966 q 1053 925 1053 944 q 1017 896 1053 906 q 967 869 981 886 q 939 728 939 833 q 836 412 939 517 q 614 301 746 320 q 631 1 614 115 q 625 -13 631 -7 q 603 -16 618 -19 q 535 -14 587 -14 q 467 -16 483 -14 q 446 -13 452 -19 q 439 1 439 -7 q 454 302 454 99 q 237 408 327 321 q 164 527 191 453 q 137 680 137 601 q 127 812 137 760 q 81 887 118 865 q 50 899 62 899 z "},"Ω":{"ha":1081,"x_min":62,"x_max":1034,"o":"m 62 1 q 65 61 65 42 q 64 96 65 80 q 68 118 62 111 q 81 123 73 125 q 376 104 180 106 l 369 171 q 150 329 236 220 q 64 583 64 438 q 187 887 64 753 q 339 991 245 951 q 545 1031 433 1031 q 899 901 770 1031 q 1028 583 1028 770 q 942 331 1028 444 q 723 171 856 218 l 719 104 q 985 119 895 104 l 1015 123 q 1028 118 1023 125 q 1032 96 1034 111 q 1031 61 1031 80 q 1034 1 1031 42 q 1016 -18 1034 -18 q 925 -14 979 -14 l 681 -14 q 633 22 633 -14 l 633 23 l 646 222 q 652 233 646 229 q 803 377 755 293 q 850 583 850 461 q 768 845 850 746 q 543 944 686 944 q 320 842 399 944 q 241 600 241 739 q 288 383 241 461 q 441 232 334 305 q 446 222 446 228 l 458 24 l 458 23 q 444 -4 458 5 q 411 -14 429 -14 l 172 -14 q 80 -18 117 -14 q 62 1 62 -18 z "},"α":{"ha":876,"x_min":39,"x_max":888,"o":"m 39 302 q 62 456 39 387 q 199 634 103 576 q 393 692 294 692 q 605 502 544 692 l 669 675 q 682 685 671 685 l 755 677 l 825 685 q 838 680 831 685 q 837 665 844 675 l 652 294 l 673 209 q 751 92 703 92 q 785 101 773 92 q 817 142 798 110 q 833 149 822 152 l 875 136 q 883 118 888 130 q 821 7 857 42 q 730 -28 785 -28 q 594 137 632 -28 l 589 163 q 476 17 534 62 q 340 -28 418 -28 q 115 60 191 -28 q 39 302 39 149 m 256 533 q 229 498 256 533 q 202 335 202 463 q 238 134 202 208 q 347 60 274 60 q 438 117 392 60 q 524 285 484 175 l 547 345 l 540 373 q 476 549 510 494 q 385 604 442 604 q 256 533 311 604 z "},"β":{"ha":793,"x_min":61,"x_max":742,"o":"m 64 -335 q 99 -15 99 -241 l 99 663 q 412 1093 99 1093 q 602 1031 519 1093 q 685 860 685 970 q 525 632 685 724 q 742 316 742 549 q 653 74 742 176 q 439 -28 564 -28 q 250 8 313 -28 l 250 -95 q 228 -332 250 -327 l 99 -381 q 83 -376 88 -387 l 65 -347 q 64 -335 61 -342 m 250 129 q 419 60 304 60 q 536 140 492 60 q 581 315 581 221 q 547 486 581 408 q 441 578 513 564 q 387 581 426 581 q 338 580 349 581 q 320 587 328 579 q 312 600 312 594 q 324 625 312 605 q 347 671 336 644 q 368 680 353 680 l 407 677 q 441 680 430 677 q 503 739 477 686 q 528 854 528 792 q 493 960 528 916 q 397 1005 458 1005 q 349 999 369 1005 q 302 971 328 993 q 250 758 250 926 l 250 129 z "},"γ":{"ha":764,"x_min":8,"x_max":774,"o":"m 11 624 q 22 640 8 637 q 128 675 81 652 q 203 697 175 697 q 245 670 232 697 l 245 669 q 420 221 377 355 q 526 490 479 366 q 579 675 572 614 q 600 684 579 692 q 659 677 621 677 q 722 686 697 677 q 760 686 746 694 q 764 666 774 677 q 661 507 713 604 l 499 190 q 456 100 483 157 q 461 79 457 92 q 467 58 465 65 q 507 -194 507 -115 q 391 -377 507 -377 q 299 -323 327 -377 q 271 -199 271 -270 q 302 -50 271 -127 l 343 42 q 152 526 279 252 q 124 566 137 559 q 90 574 111 574 q 35 567 68 574 q 19 578 20 564 l 11 624 m 378 -95 q 359 -195 359 -163 q 363 -250 359 -228 q 382 -289 376 -285 q 397 -234 397 -289 q 378 -95 397 -179 z "},"δ":{"ha":751,"x_min":45,"x_max":709,"o":"m 132 73 q 88 123 132 73 q 45 303 45 174 q 119 538 45 433 q 294 688 193 643 l 281 699 q 163 821 190 777 q 137 924 137 864 q 195 1039 137 985 q 340 1093 252 1093 q 494 1073 429 1093 q 601 1023 559 1053 q 643 969 643 994 q 605 910 643 944 q 549 876 567 876 q 516 901 544 876 q 435 966 488 926 q 328 1005 382 1005 q 243 949 243 1005 q 274 890 243 924 q 404 773 305 857 l 514 678 q 655 532 618 594 q 709 346 709 437 q 607 68 709 164 q 361 -28 505 -28 q 132 73 218 -28 m 245 509 q 224 468 245 509 q 203 323 203 427 q 247 139 203 218 q 380 60 290 60 q 491 100 444 60 q 552 328 552 151 q 522 452 552 388 q 438 563 492 515 l 362 628 q 245 509 288 591 z "},"ε":{"ha":620,"x_min":54,"x_max":578,"o":"m 54 167 q 60 220 54 193 q 98 290 66 248 q 183 355 129 331 q 84 498 84 404 q 141 620 84 557 q 222 671 170 651 q 342 692 274 692 q 556 647 469 692 q 567 627 571 639 l 530 515 q 519 506 528 506 l 499 505 q 486 511 490 505 q 340 604 431 604 q 235 500 235 604 q 258 414 235 433 q 335 396 281 396 l 430 403 q 473 350 473 403 q 429 297 473 297 l 334 307 q 247 271 277 307 q 217 172 217 235 q 346 60 217 60 q 467 98 404 60 q 529 138 490 111 q 549 133 543 146 l 574 83 q 571 68 578 75 q 326 -28 469 -28 q 118 29 182 -28 q 54 167 54 87 z "},"ζ":{"ha":669,"x_min":46,"x_max":631,"o":"m 281 3 q 46 292 46 58 q 324 846 46 525 q 294 845 313 845 q 188 884 243 845 q 118 1000 133 924 q 121 1010 117 1006 q 210 1090 157 1055 q 218 1093 216 1093 l 232 1093 q 245 1081 245 1093 q 263 996 251 1021 q 298 950 275 970 q 334 930 320 930 q 406 952 369 930 q 564 1031 479 1031 q 619 1020 608 1031 q 631 987 631 1009 q 612 934 631 966 q 555 887 593 902 q 439 863 517 872 q 252 554 297 680 q 206 330 206 429 q 233 196 206 232 q 355 137 259 160 q 452 115 396 127 q 559 62 509 103 q 609 -60 609 20 q 491 -281 609 -171 q 450 -313 457 -313 q 442 -312 444 -313 l 407 -292 q 399 -266 392 -277 q 475 -110 475 -164 q 385 -20 475 -42 q 332 -9 368 -16 q 281 3 297 -1 z "},"η":{"ha":830,"x_min":100,"x_max":730,"o":"m 100 1 q 115 278 115 103 l 115 363 q 100 661 115 571 q 115 680 100 681 q 167 680 130 680 q 240 686 203 680 l 243 686 q 266 658 266 686 l 266 572 q 530 692 378 692 q 724 434 724 692 l 724 -9 l 730 -222 q 713 -328 730 -320 l 589 -381 q 571 -376 576 -387 l 555 -347 q 553 -335 551 -340 q 574 -9 574 -285 l 574 407 q 557 536 574 500 q 483 572 540 572 q 368 539 426 572 q 266 454 311 506 l 266 278 q 279 1 266 98 q 273 -13 279 -7 q 252 -16 267 -19 q 190 -14 236 -14 q 128 -16 144 -14 q 106 -13 113 -19 q 100 1 100 -7 z "},"θ":{"ha":758,"x_min":46,"x_max":713,"o":"m 46 532 q 149 944 46 795 q 385 1093 251 1093 q 565 1007 476 1093 q 692 749 654 921 q 713 530 713 651 q 552 46 713 191 q 381 -28 416 -28 q 376 -28 378 -28 q 157 91 255 -28 q 77 266 107 152 q 46 532 46 380 m 202 483 q 258 186 205 313 q 384 60 311 60 q 507 185 457 60 q 559 483 556 311 l 202 483 m 202 578 l 559 578 q 501 881 555 757 q 376 1005 448 1005 q 283 939 324 1005 q 202 578 209 815 z "},"ι":{"ha":435,"x_min":85,"x_max":442,"o":"m 90 658 q 92 673 85 666 q 110 678 99 680 q 163 677 121 677 q 245 692 206 677 q 264 680 264 701 q 267 530 267 581 l 267 141 q 272 95 267 106 q 289 84 277 84 q 382 142 338 84 q 401 145 392 155 l 434 119 q 437 102 442 113 q 362 7 407 47 q 257 -33 317 -33 q 157 6 197 -33 q 117 110 117 45 l 117 498 q 90 658 117 602 z "},"κ":{"ha":773,"x_min":100,"x_max":720,"o":"m 100 1 q 115 278 115 115 l 115 363 q 100 662 115 560 q 106 675 100 669 q 120 680 111 681 q 174 680 129 680 q 251 684 218 680 l 252 684 q 279 654 279 684 l 279 652 q 266 396 266 521 q 307 434 281 403 l 408 559 q 510 669 477 644 q 590 693 543 693 q 697 663 637 693 q 704 654 700 662 q 705 639 708 646 l 652 533 q 640 526 648 526 l 628 525 q 616 530 620 525 q 541 563 593 563 q 458 481 525 563 l 404 415 q 393 394 393 404 q 399 376 393 384 q 712 9 548 182 q 713 -9 720 1 q 692 -17 705 -20 q 610 -14 680 -14 q 506 -18 540 -14 q 492 -11 496 -18 q 282 298 404 140 q 266 302 279 301 l 266 278 q 279 1 266 110 q 273 -13 279 -7 q 252 -16 267 -19 q 190 -14 236 -14 q 128 -16 144 -14 q 106 -13 113 -19 q 100 1 100 -7 z "},"λ":{"ha":764,"x_min":15,"x_max":730,"o":"m 22 5 l 359 688 l 324 793 q 262 993 281 916 l 245 1040 l 231 1073 q 229 1078 231 1074 q 231 1089 227 1082 q 254 1090 235 1096 q 287 1085 273 1085 q 317 1086 301 1085 q 347 1091 332 1086 q 363 1080 362 1096 q 406 909 369 1038 q 487 654 444 781 q 585 378 530 528 q 663 163 640 228 q 694 77 685 99 q 714 34 704 54 q 730 1 724 14 l 730 0 l 711 -16 q 667 -14 705 -14 l 629 -14 q 591 -18 600 -15 q 578 -8 582 -20 q 528 164 544 113 l 414 499 l 202 -5 q 191 -14 201 -14 q 92 -26 114 -19 q 66 -31 71 -34 l 28 -12 q 22 5 15 -7 z "},"μ":{"ha":831,"x_min":92,"x_max":830,"o":"m 95 -335 q 117 -11 117 -279 l 122 91 l 113 174 l 113 385 q 99 662 113 566 q 105 676 99 670 q 127 680 111 682 q 189 677 142 677 q 250 680 235 677 q 272 676 266 682 q 278 662 278 670 q 264 385 264 571 l 264 239 q 284 117 264 157 q 356 76 304 76 q 467 104 408 76 q 552 168 526 133 l 552 385 q 538 662 552 564 q 545 676 538 670 q 566 680 551 682 q 628 677 582 677 q 690 680 674 677 q 711 676 705 682 q 718 662 718 670 q 703 385 703 563 l 704 195 q 724 84 704 104 q 753 76 732 76 q 793 82 774 76 q 815 75 811 88 l 827 37 q 825 23 830 28 q 692 -28 774 -28 q 609 -3 644 -28 q 559 69 574 23 q 323 -28 457 -28 q 258 -18 286 -28 q 264 -96 258 -24 q 270 -221 270 -167 q 260 -323 270 -275 q 252 -332 258 -331 l 130 -381 q 114 -376 119 -385 l 96 -347 q 95 -335 92 -340 z "},"ν":{"ha":741,"x_min":71,"x_max":694,"o":"m 71 675 q 92 680 73 684 q 168 677 111 677 q 239 680 224 677 q 258 670 255 684 q 419 137 305 438 q 553 438 553 349 q 537 571 553 528 q 525 602 533 582 q 519 625 517 621 q 568 675 533 654 q 628 697 604 697 q 694 598 694 697 q 400 -23 694 382 q 389 -28 396 -28 l 338 -28 q 324 -20 326 -28 q 72 663 197 369 l 71 675 z "},"ξ":{"ha":661,"x_min":45,"x_max":609,"o":"m 45 275 q 221 548 45 437 q 110 694 110 589 q 142 794 110 750 q 241 886 175 838 q 144 926 186 898 q 94 989 103 954 q 94 998 91 993 q 163 1089 111 1039 q 172 1093 167 1093 l 186 1093 q 199 1080 199 1093 q 240 1000 201 1035 q 330 959 279 966 q 532 1031 452 1031 q 566 1019 553 1031 q 576 989 579 1006 l 576 987 q 507 891 563 928 q 503 890 505 890 q 380 872 445 872 l 351 873 q 298 838 317 852 q 250 745 250 799 q 289 656 250 692 q 407 621 328 621 q 529 625 486 621 q 541 620 537 625 l 549 608 q 543 579 555 600 q 519 525 530 559 q 506 515 515 513 q 403 519 473 519 q 264 458 332 519 q 197 317 197 397 q 230 198 197 236 q 355 137 263 160 q 452 115 396 127 q 559 62 509 103 q 609 -60 609 20 q 491 -281 609 -171 q 450 -313 457 -313 q 442 -312 444 -313 l 407 -292 q 399 -266 392 -277 q 475 -110 475 -164 q 385 -20 475 -42 q 332 -9 368 -16 q 282 3 297 -1 q 45 275 45 56 z "},"ο":{"ha":773,"x_min":45,"x_max":728,"o":"m 138 70 q 91 119 138 70 q 45 328 45 168 q 140 589 45 487 q 395 692 236 692 q 641 594 553 692 q 728 334 728 496 q 635 72 728 172 q 387 -28 543 -28 q 138 70 231 -28 m 209 343 q 224 216 209 275 q 284 108 239 156 q 400 60 330 60 q 517 127 471 60 q 564 302 564 195 q 527 530 564 457 q 390 604 490 604 q 250 530 290 604 q 209 343 209 457 z "},"π":{"ha":888,"x_min":28,"x_max":868,"o":"m 31 499 q 94 631 53 586 q 210 677 136 677 l 718 677 q 809 679 776 677 q 845 678 842 681 l 861 665 q 864 648 868 658 q 784 552 840 601 q 727 545 777 545 l 655 545 q 647 323 647 395 q 651 187 647 252 q 667 100 655 122 q 711 79 680 79 q 795 107 742 79 q 814 102 808 113 l 831 64 q 829 47 836 54 q 625 -28 746 -28 q 547 3 574 -28 q 515 110 521 35 q 514 246 514 127 q 536 545 514 365 l 366 545 q 368 374 368 484 q 334 14 368 144 q 326 4 331 7 q 167 -33 283 -14 q 155 -26 160 -34 l 142 -8 q 142 7 137 0 q 182 72 167 43 q 214 169 197 100 q 237 321 232 237 q 241 545 241 404 l 210 545 q 141 534 159 545 q 92 476 123 522 q 76 471 87 468 l 41 483 q 31 499 28 487 z "},"ρ":{"ha":815,"x_min":68,"x_max":769,"o":"m 71 -335 q 107 -15 107 -239 l 107 285 q 124 454 107 385 q 158 548 141 524 q 205 602 175 572 q 426 692 293 692 q 640 628 559 692 q 736 504 703 581 q 769 342 769 427 q 665 68 769 164 q 395 -28 560 -28 q 258 3 316 -28 l 258 -95 q 245 -323 258 -259 q 236 -332 243 -330 l 106 -381 q 90 -376 95 -387 l 72 -347 q 71 -335 68 -340 m 258 117 q 410 60 319 60 q 553 125 500 60 q 606 308 606 190 l 606 316 q 533 552 606 481 q 397 604 481 604 q 258 353 258 604 l 258 117 z "},"σ":{"ha":884,"x_min":43,"x_max":837,"o":"m 134 66 q 89 114 134 66 q 43 312 43 161 q 156 575 43 463 q 284 651 202 621 q 468 681 366 681 l 688 677 q 780 679 746 677 q 817 678 814 681 l 831 665 q 836 656 836 662 q 834 648 837 651 q 754 552 810 601 q 697 545 747 545 l 673 545 q 574 547 602 545 q 709 288 709 454 q 637 84 709 184 q 536 3 601 35 q 387 -28 471 -28 q 134 66 225 -28 m 254 475 q 227 441 254 475 q 199 304 199 407 q 250 130 199 202 q 397 58 300 58 q 509 117 467 58 q 552 280 552 175 q 526 441 552 385 q 441 545 500 496 q 254 475 309 544 z "},"τ":{"ha":681,"x_min":26,"x_max":667,"o":"m 28 499 q 92 631 50 586 q 208 677 133 677 l 518 677 q 610 679 578 677 q 646 678 643 681 l 662 665 q 667 656 666 662 q 665 648 667 651 q 585 552 640 601 q 528 545 578 545 l 400 545 q 377 190 377 292 q 416 81 377 88 q 461 79 429 79 q 532 92 494 79 q 548 85 543 96 l 567 47 q 563 30 572 34 q 372 -28 473 -28 q 275 18 311 -28 q 239 138 239 64 q 278 545 239 212 l 208 545 q 138 534 156 545 q 88 476 119 522 q 73 471 83 468 l 37 483 q 28 499 26 487 z "},"υ":{"ha":760,"x_min":117,"x_max":708,"o":"m 117 671 q 136 692 117 692 q 216 684 187 684 q 266 692 244 684 l 271 692 q 298 663 298 692 l 298 662 q 282 388 282 537 l 282 292 q 309 119 282 171 q 426 66 336 66 q 566 155 515 66 q 616 366 616 244 q 608 458 616 438 q 599 486 601 479 q 589 503 597 494 q 580 516 582 513 q 568 526 578 519 q 557 534 559 533 q 528 553 556 536 q 458 589 499 571 q 450 600 450 594 l 450 620 q 488 681 463 650 q 540 712 514 712 q 640 663 591 712 q 708 391 708 591 q 621 81 708 191 q 412 -28 533 -28 q 193 49 254 -28 q 132 267 132 126 l 132 363 q 117 671 132 594 z "},"φ":{"ha":911,"x_min":46,"x_max":865,"o":"m 46 351 q 123 556 46 463 q 274 685 199 650 q 290 682 283 689 l 319 650 q 317 629 328 637 q 202 338 202 538 q 252 127 202 187 q 385 57 302 66 l 385 401 q 402 545 385 490 q 464 646 419 600 q 595 692 511 692 q 796 595 727 692 q 865 366 865 499 q 839 212 865 281 q 774 102 812 142 q 669 24 735 61 q 513 -24 604 -12 q 494 -319 513 -247 q 487 -328 491 -327 l 370 -380 q 354 -376 361 -384 l 335 -347 q 335 -332 330 -339 q 385 -24 384 -259 q 130 88 214 -11 q 46 351 46 187 m 511 60 q 711 345 711 98 q 682 534 711 463 q 595 605 652 605 q 533 570 555 605 q 511 427 511 534 l 511 60 z "},"χ":{"ha":796,"x_min":-16,"x_max":799,"o":"m -11 566 q -11 582 -16 576 q 75 658 23 624 q 175 692 126 692 q 239 678 224 692 q 261 660 255 665 q 276 640 267 655 q 289 616 285 624 q 302 585 293 608 q 315 551 311 563 q 330 508 319 538 q 346 461 340 477 l 406 292 l 598 680 q 621 686 604 690 q 647 681 639 681 l 753 692 q 769 687 762 692 q 766 671 776 682 q 591 407 704 579 q 449 190 479 235 l 545 -75 q 604 -219 589 -195 q 654 -243 620 -243 l 663 -243 q 739 -208 696 -243 q 765 -209 754 -198 l 792 -240 q 793 -256 799 -250 q 627 -372 712 -372 q 493 -307 541 -372 q 392 -88 445 -243 l 351 33 q 169 -320 180 -298 q 151 -345 157 -342 l 71 -372 l 20 -372 q 2 -362 11 -372 q -1 -343 -7 -353 l 311 134 l 220 388 q 160 534 178 503 q 111 564 142 564 q 75 553 100 564 q 35 528 49 541 q 14 528 22 514 l -11 566 z "},"ψ":{"ha":986,"x_min":110,"x_max":959,"o":"m 110 661 q 116 675 110 669 q 138 680 122 682 q 199 677 153 677 q 261 680 245 677 q 283 676 277 682 q 289 663 289 670 q 372 126 297 237 q 479 57 408 69 q 481 361 481 133 q 463 1066 481 589 q 477 1081 463 1081 l 540 1077 l 610 1093 q 628 1078 629 1093 l 608 837 q 586 279 586 646 l 586 155 q 587 57 586 84 q 704 151 650 71 q 781 420 758 232 q 792 557 792 505 q 784 662 792 609 q 790 676 784 670 q 812 680 796 682 q 871 677 827 677 q 930 680 914 677 q 953 676 947 682 q 959 663 959 670 q 928 381 958 555 q 812 101 898 208 q 593 -14 727 -5 q 597 -157 597 -65 q 582 -327 597 -250 q 574 -338 579 -336 l 456 -381 q 441 -376 448 -385 l 423 -355 q 422 -342 419 -350 q 475 -14 465 -231 q 233 107 302 -5 q 152 358 174 202 q 130 519 141 426 q 110 661 118 612 z "},"ω":{"ha":1066,"x_min":60,"x_max":1023,"o":"m 60 274 q 127 519 60 399 q 302 696 194 639 q 319 693 312 700 l 347 662 q 347 644 355 654 q 217 285 217 495 q 254 113 217 165 q 347 60 290 60 q 413 92 382 60 q 477 202 444 123 q 484 262 484 225 l 480 346 l 476 396 q 486 427 476 418 q 582 463 534 463 q 621 411 621 463 q 608 340 621 404 q 595 245 595 275 q 597 206 595 214 q 659 94 625 127 q 739 60 693 60 q 834 127 803 60 q 865 313 865 195 l 865 331 q 845 474 865 410 q 801 569 825 538 q 757 623 777 600 q 736 652 736 647 q 738 658 736 656 l 758 690 q 774 696 762 699 q 945 572 868 667 q 1023 327 1023 476 q 941 75 1023 178 q 739 -28 859 -28 q 626 2 682 -28 q 536 103 570 33 q 348 -28 465 -28 q 149 35 231 -28 q 84 130 109 69 q 60 274 60 191 z "},"Ё":{"ha":831,"x_min":123,"x_max":754,"o":"m 125 1 q 140 309 140 103 l 140 688 q 125 996 140 890 q 130 1010 123 1004 q 151 1014 136 1017 q 220 1010 167 1010 l 627 1010 l 720 1016 q 735 983 735 1016 l 732 939 l 735 903 q 720 879 735 879 q 566 889 675 882 q 309 897 457 897 q 300 688 300 838 l 300 581 q 629 597 450 581 l 632 597 q 648 572 648 597 l 644 529 l 648 477 q 629 461 646 458 q 300 476 473 476 l 300 309 q 309 100 300 156 q 560 107 458 100 q 686 115 662 114 q 735 119 709 117 q 751 91 751 119 l 749 47 q 750 23 749 39 q 732 -18 754 -22 q 642 -14 696 -14 l 220 -14 l 141 -18 q 129 -13 134 -19 q 125 1 123 -7 m 216 1098 q 203 1111 216 1098 q 190 1160 190 1124 q 216 1221 190 1195 q 277 1248 241 1248 q 338 1221 312 1248 q 365 1160 365 1195 q 338 1098 365 1124 q 277 1072 312 1072 q 216 1098 241 1072 m 508 1098 q 495 1111 508 1098 q 481 1160 481 1124 q 508 1221 481 1195 q 570 1248 534 1248 q 631 1221 605 1248 q 656 1160 656 1195 q 631 1098 656 1124 q 570 1072 605 1072 q 508 1098 534 1072 z "},"А":{"ha":972,"x_min":8,"x_max":963,"o":"m 12 1 q 468 1023 293 617 q 481 1031 472 1031 l 524 1031 q 537 1023 534 1031 q 751 496 590 897 q 960 1 913 96 q 958 -12 963 -5 q 937 -16 954 -19 q 863 -14 921 -14 q 786 -17 804 -14 q 765 -8 768 -20 q 648 340 719 151 q 468 343 608 343 q 286 340 328 343 q 161 -8 194 114 q 144 -17 159 -20 q 87 -14 130 -14 q 33 -17 45 -14 q 14 -14 20 -20 q 12 1 8 -7 m 327 439 q 481 435 445 435 q 610 438 518 435 q 472 776 553 586 l 327 439 z "},"Б":{"ha":869,"x_min":127,"x_max":819,"o":"m 129 1 q 144 309 144 103 l 144 688 q 129 996 144 890 q 134 1010 127 1002 q 159 1014 141 1017 q 228 1010 176 1010 l 629 1010 q 720 1016 671 1010 q 734 1010 727 1017 q 739 979 741 1004 q 736 937 736 954 q 739 891 736 920 q 720 867 742 863 q 312 901 513 899 q 304 688 304 850 l 304 594 l 427 594 q 779 464 699 594 q 812 385 804 423 q 819 282 819 347 q 791 157 819 217 q 723 64 764 96 q 391 -18 621 -18 l 228 -14 l 145 -18 q 133 -13 138 -19 q 129 1 127 -7 m 304 130 q 321 78 304 94 q 399 62 339 62 q 508 77 460 62 q 582 113 556 92 q 627 174 608 134 q 647 269 647 214 q 639 355 647 324 q 608 420 631 387 q 407 492 562 492 l 304 492 l 304 130 z "},"В":{"ha":952,"x_min":130,"x_max":871,"o":"m 132 1 q 148 309 148 111 l 148 688 q 132 996 148 880 q 137 1010 130 1004 q 159 1014 144 1017 q 228 1010 175 1010 l 423 1016 q 706 935 633 1016 q 779 762 779 854 q 743 649 779 704 q 655 560 708 594 q 871 278 871 483 q 791 81 871 168 q 667 9 749 37 q 473 -18 586 -18 l 228 -14 l 149 -18 q 136 -13 142 -19 q 132 1 130 -7 m 308 136 q 337 91 308 106 q 444 76 366 76 q 573 89 522 76 q 648 128 624 102 q 682 184 673 155 q 690 255 690 213 q 627 427 690 361 q 438 494 563 494 l 308 494 l 308 136 m 308 587 l 415 587 q 566 622 515 587 q 617 750 617 656 q 564 883 617 844 q 441 922 510 922 q 346 916 373 922 q 313 899 319 909 q 308 864 308 888 l 308 587 z "},"Г":{"ha":743,"x_min":121,"x_max":750,"o":"m 122 1 q 140 309 140 126 l 140 688 q 125 996 140 894 q 129 1010 123 1004 q 151 1014 134 1017 q 220 1010 167 1010 l 642 1010 l 735 1016 q 750 989 750 1016 l 749 952 l 750 910 q 735 882 750 882 q 309 901 545 901 q 300 688 300 842 l 300 309 q 315 1 300 99 q 310 -13 316 -7 q 289 -16 304 -19 q 220 -14 274 -14 l 141 -18 q 127 -13 134 -19 q 122 1 121 -7 z "},"Д":{"ha":1095,"x_min":28,"x_max":970,"o":"m 28 16 l 28 18 q 106 65 28 60 q 125 66 118 65 l 142 71 q 209 178 179 76 q 278 468 239 281 q 330 898 330 734 q 320 996 330 922 q 324 1010 319 1004 q 336 1016 330 1017 q 430 1010 378 1010 l 780 1010 l 857 1016 q 870 1010 864 1017 q 875 996 876 1004 q 860 688 860 894 l 860 309 q 871 121 860 178 q 910 62 883 65 q 970 18 970 58 l 968 16 l 951 -214 q 945 -227 951 -221 q 935 -232 940 -232 l 884 -232 q 868 -216 871 -232 q 814 -50 846 -85 q 722 -14 781 -14 l 275 -14 q 156 -95 187 -14 q 129 -216 142 -133 q 113 -232 126 -232 l 64 -232 q 52 -226 57 -232 q 46 -214 46 -220 l 28 16 m 311 87 q 339 81 311 81 l 656 81 q 688 95 682 81 q 700 309 700 138 l 700 688 q 688 903 700 854 q 677 914 681 913 q 661 916 674 916 l 484 916 q 448 907 457 916 q 437 873 439 898 q 395 519 420 661 q 340 239 369 377 q 311 87 311 100 z "},"Е":{"ha":831,"x_min":130,"x_max":758,"o":"m 132 1 q 148 309 148 111 l 148 688 q 132 996 148 880 q 137 1010 130 1004 q 159 1014 144 1017 q 228 1010 175 1010 l 633 1010 l 727 1016 q 743 983 743 1016 l 741 939 l 742 903 q 727 879 742 879 q 569 889 674 882 q 317 897 464 897 q 308 688 308 838 l 308 581 q 637 597 458 581 l 640 597 q 656 572 656 597 l 652 529 l 656 477 q 637 461 654 458 q 308 476 481 476 l 308 309 q 317 100 308 156 q 568 107 467 100 q 694 115 670 114 q 743 119 718 117 q 758 91 758 119 l 755 47 l 758 15 q 753 -14 758 -8 q 726 -16 749 -19 q 650 -14 704 -14 l 228 -14 l 149 -18 q 136 -13 142 -19 q 132 1 130 -7 z "},"Ж":{"ha":1428,"x_min":35,"x_max":1393,"o":"m 61 -19 q 43 -9 52 -20 q 43 9 35 1 q 168 194 104 77 q 311 401 232 311 q 349 446 334 429 q 369 468 363 464 q 387 484 374 472 q 408 499 400 495 q 431 511 416 503 q 483 529 446 519 q 412 646 453 557 q 349 769 372 735 q 221 867 279 867 q 133 837 175 867 q 122 834 127 833 l 104 838 q 95 848 98 841 l 52 989 q 56 1004 50 997 q 69 1015 62 1012 q 156 1031 125 1031 q 431 829 297 1031 q 496 711 461 784 q 557 606 530 637 q 631 567 585 574 l 631 688 q 616 996 631 890 q 621 1010 614 1004 q 648 1014 628 1017 q 711 1010 667 1010 q 775 1014 755 1010 q 802 1010 795 1017 q 807 996 808 1004 q 791 688 791 888 l 791 567 q 867 603 840 572 q 931 709 895 633 q 997 829 967 784 q 1272 1031 1131 1031 q 1359 1015 1305 1031 q 1372 1004 1366 1012 q 1377 989 1378 997 l 1333 848 q 1324 838 1331 841 l 1308 834 q 1295 837 1301 831 q 1218 867 1253 867 q 1080 768 1149 867 q 1016 645 1057 734 q 945 529 975 556 q 997 511 982 519 q 1021 498 1012 502 q 1042 483 1029 494 q 1059 467 1054 472 q 1078 447 1065 463 q 1097 427 1092 431 q 1118 401 1101 422 q 1139 376 1134 381 q 1263 189 1202 301 q 1385 9 1324 77 q 1385 -9 1393 1 q 1369 -19 1378 -20 q 1289 -14 1331 -14 q 1185 -20 1246 -14 q 1173 -14 1177 -20 q 1067 184 1124 68 q 997 321 1009 300 q 912 425 956 395 q 791 467 868 456 l 791 309 q 807 1 791 117 q 802 -13 808 -7 q 779 -16 795 -19 q 711 -14 764 -14 q 644 -16 659 -14 q 621 -13 628 -19 q 616 1 614 -7 q 631 309 631 103 l 631 467 q 547 444 582 460 q 483 394 511 429 q 441 336 454 359 q 397 255 427 312 q 256 -14 305 68 q 243 -20 252 -20 q 137 -14 175 -14 q 61 -19 99 -14 z "},"З":{"ha":837,"x_min":42,"x_max":783,"o":"m 42 183 q 59 243 42 218 q 110 269 76 269 q 163 250 144 269 q 197 190 182 231 q 262 85 221 118 q 389 52 304 52 q 543 108 473 52 q 613 274 613 164 q 518 461 613 384 q 385 506 464 506 l 273 506 q 243 517 255 506 q 231 547 231 529 q 243 578 231 566 q 273 590 255 590 l 345 590 q 515 649 464 590 q 567 780 567 708 q 511 901 567 852 q 393 951 454 951 q 233 911 290 951 q 136 722 176 871 q 121 712 134 712 l 75 715 q 62 730 60 715 l 94 1001 q 107 1012 96 1012 q 262 1021 179 1012 q 405 1031 345 1031 q 538 1007 465 1031 q 664 928 610 983 q 718 798 718 873 q 566 559 718 632 q 783 297 783 486 q 746 144 783 210 q 648 41 709 77 q 384 -33 532 -33 q 122 56 236 -33 q 42 183 42 118 z "},"И":{"ha":1124,"x_min":130,"x_max":996,"o":"m 132 1 q 148 309 148 111 l 148 688 q 132 996 148 880 q 137 1010 130 1004 q 163 1014 144 1017 q 227 1010 183 1010 q 291 1014 271 1010 q 317 1010 311 1017 q 323 996 324 1004 q 308 688 308 898 l 308 309 q 309 161 308 208 l 803 1000 q 822 1016 814 1017 q 899 1010 854 1010 q 962 1014 943 1010 q 989 1010 982 1017 q 994 996 996 1004 q 978 688 978 888 l 978 309 q 994 1 978 117 q 989 -13 996 -7 q 966 -16 982 -19 q 899 -14 951 -14 q 831 -16 846 -14 q 808 -13 815 -19 q 803 1 802 -7 q 818 309 818 103 l 818 688 q 817 836 818 791 l 321 -7 q 304 -18 312 -19 q 227 -14 279 -14 q 159 -16 175 -14 q 137 -13 144 -19 q 132 1 130 -7 z "},"Й":{"ha":1124,"x_min":130,"x_max":996,"o":"m 132 1 q 148 309 148 111 l 148 688 q 132 996 148 880 q 137 1010 130 1004 q 163 1014 144 1017 q 227 1010 183 1010 q 291 1014 271 1010 q 317 1010 311 1017 q 323 996 324 1004 q 308 688 308 898 l 308 309 q 309 161 308 208 l 803 1000 q 822 1016 814 1017 q 899 1010 854 1010 q 962 1014 943 1010 q 989 1010 982 1017 q 994 996 996 1004 q 978 688 978 888 l 978 309 q 994 1 978 117 q 989 -13 996 -7 q 966 -16 982 -19 q 899 -14 951 -14 q 831 -16 846 -14 q 808 -13 815 -19 q 803 1 802 -7 q 818 309 818 103 l 818 688 q 817 836 818 791 l 321 -7 q 304 -18 312 -19 q 227 -14 279 -14 q 159 -16 175 -14 q 137 -13 144 -19 q 132 1 130 -7 m 334 1194 q 352 1240 334 1222 q 404 1259 370 1259 q 453 1241 437 1259 q 469 1199 469 1223 l 468 1179 q 488 1153 468 1166 q 541 1139 509 1139 q 594 1153 574 1139 q 614 1179 614 1166 l 613 1199 q 629 1241 613 1223 q 679 1259 646 1259 q 730 1240 712 1259 q 749 1194 749 1222 q 688 1097 749 1128 q 541 1065 627 1065 q 395 1097 456 1065 q 334 1194 334 1128 z "},"К":{"ha":977,"x_min":130,"x_max":940,"o":"m 132 1 q 148 309 148 111 l 148 688 q 132 996 148 880 q 137 1010 130 1004 q 163 1014 144 1017 q 227 1010 183 1010 q 291 1014 271 1010 q 317 1010 311 1017 q 323 996 324 1004 q 308 688 308 898 l 308 567 q 390 603 361 572 q 456 709 419 633 q 525 829 494 784 q 815 1031 665 1031 q 906 1015 846 1031 q 919 1004 913 1012 q 924 989 925 997 l 879 848 q 869 838 876 841 l 850 834 q 840 837 844 833 q 760 867 796 867 q 610 768 685 867 q 543 645 585 734 q 471 529 500 556 q 567 486 530 515 q 636 419 604 457 q 674 376 669 381 q 803 189 739 301 q 932 9 867 77 q 932 -9 940 1 q 914 -19 924 -20 q 835 -14 879 -14 q 723 -20 791 -14 q 711 -14 715 -20 q 600 182 652 79 q 515 341 547 286 q 435 427 483 396 q 308 468 388 458 l 308 309 q 323 1 308 107 q 317 -13 324 -7 q 295 -16 311 -19 q 227 -14 279 -14 q 159 -16 175 -14 q 137 -13 144 -19 q 132 1 130 -7 z "},"Л":{"ha":983,"x_min":15,"x_max":856,"o":"m 24 -13 q 19 -5 24 -13 q 20 13 15 3 q 33 66 26 23 q 45 124 41 110 q 57 138 49 138 l 73 140 q 85 133 81 140 q 161 88 113 88 q 232 283 221 88 l 255 735 q 258 859 258 806 q 247 996 258 913 q 251 1010 245 1004 q 263 1016 256 1017 q 355 1010 304 1010 l 758 1010 l 836 1016 q 848 1010 842 1017 q 853 996 854 1004 q 838 688 838 894 l 838 309 q 854 1 838 117 q 849 -13 856 -7 q 827 -16 842 -19 q 758 -14 811 -14 l 680 -18 q 667 -13 673 -19 q 662 1 661 -7 q 678 309 678 109 l 678 688 q 666 907 678 850 q 663 912 665 909 q 659 916 661 916 q 656 919 658 917 q 648 921 654 921 l 411 921 q 384 907 393 921 q 368 745 373 863 l 353 315 q 282 30 345 96 q 214 -16 250 -4 q 106 -28 179 -28 q 24 -13 33 -28 z "},"М":{"ha":1370,"x_min":84,"x_max":1283,"o":"m 85 -1 q 285 1025 217 636 q 298 1038 288 1038 l 350 1038 q 362 1029 359 1038 q 703 274 556 581 l 1072 1029 q 1084 1038 1077 1038 l 1123 1038 q 1137 1025 1134 1038 q 1282 -3 1198 499 q 1278 -14 1283 -9 q 1259 -16 1272 -19 q 1187 -14 1245 -14 q 1111 -18 1130 -14 q 1092 -5 1092 -22 q 1010 694 1066 281 q 684 -5 857 388 q 671 -14 680 -14 l 642 -14 q 629 -5 632 -14 q 319 701 475 372 q 210 -7 247 260 q 193 -17 208 -20 q 148 -14 178 -14 q 107 -17 118 -14 q 90 -15 96 -20 q 85 -1 84 -9 z "},"Н":{"ha":1122,"x_min":130,"x_max":991,"o":"m 132 1 q 148 309 148 111 l 148 688 q 132 996 148 880 q 137 1010 130 1004 q 163 1014 144 1017 q 228 1010 183 1010 q 292 1014 273 1010 q 318 1010 312 1017 q 323 996 324 1004 q 308 688 308 898 l 308 578 l 815 578 l 815 688 q 800 996 815 890 q 806 1010 799 1004 q 832 1014 812 1017 q 897 1010 852 1010 q 961 1014 941 1010 q 986 1010 981 1017 q 990 996 991 1004 q 975 688 975 898 l 975 309 q 990 1 975 107 q 985 -13 991 -7 q 964 -16 979 -19 q 895 -14 948 -14 q 825 -16 841 -14 q 804 -13 810 -19 q 800 1 799 -7 q 815 309 815 103 l 815 483 l 308 483 l 308 309 q 323 1 308 107 q 317 -13 324 -7 q 295 -16 311 -19 q 227 -14 279 -14 q 158 -16 174 -14 q 136 -13 142 -19 q 132 1 130 -7 z "},"О":{"ha":1145,"x_min":66,"x_max":1078,"o":"m 213 111 q 140 181 213 111 q 66 481 66 251 q 212 871 66 711 q 572 1031 357 1031 q 932 886 787 1031 q 1078 506 1078 741 q 938 121 1078 271 q 578 -28 798 -28 q 213 111 359 -28 m 254 506 q 356 182 254 298 q 595 66 458 66 q 812 174 731 66 q 892 495 892 281 q 802 823 892 709 q 549 936 712 936 q 350 841 435 936 q 279 707 305 793 q 254 506 254 621 z "},"П":{"ha":1095,"x_min":125,"x_max":970,"o":"m 126 1 q 142 309 142 117 l 142 688 q 127 996 142 894 q 132 1010 126 1004 q 153 1014 137 1017 q 222 1010 170 1010 l 872 1010 l 951 1016 q 963 1010 958 1017 q 967 996 968 1004 q 952 688 952 894 l 952 309 q 968 1 952 117 q 964 -13 970 -7 q 941 -16 958 -19 q 872 -14 925 -14 l 793 -18 q 781 -13 787 -19 q 777 1 776 -7 q 792 309 792 99 l 792 688 q 781 903 792 860 q 771 914 774 913 q 753 916 768 916 l 342 916 q 313 903 323 916 q 302 688 302 857 l 302 309 q 317 1 302 99 q 313 -13 319 -7 q 292 -16 308 -19 q 222 -14 277 -14 l 144 -18 q 131 -13 137 -19 q 126 1 125 -7 z "},"Р":{"ha":864,"x_min":130,"x_max":817,"o":"m 132 1 q 148 309 148 111 l 148 688 q 132 996 148 880 q 137 1010 130 1004 q 163 1014 144 1017 q 228 1010 183 1010 l 444 1021 q 625 994 548 1021 q 741 922 701 967 q 817 729 817 838 q 730 524 817 620 q 606 444 685 475 q 438 414 526 414 q 308 425 350 414 l 308 309 q 323 1 308 107 q 317 -13 324 -7 q 295 -16 311 -19 q 227 -14 279 -14 q 159 -16 175 -14 q 137 -13 144 -19 q 132 1 130 -7 m 308 518 q 416 507 347 507 q 585 556 530 507 q 639 730 639 605 q 580 891 639 854 q 438 928 521 928 q 332 915 355 928 q 308 873 308 902 l 308 518 z "},"С":{"ha":1046,"x_min":66,"x_max":960,"o":"m 66 487 q 111 703 66 601 q 227 877 155 806 q 393 989 298 948 q 581 1031 487 1031 q 762 1010 675 1031 q 890 972 849 990 q 937 946 932 954 q 941 932 943 939 q 913 762 918 849 q 901 750 913 750 l 883 749 q 869 757 875 749 q 566 932 781 932 q 366 841 465 932 q 285 710 316 795 q 254 517 254 625 q 349 207 254 336 q 581 77 444 77 q 761 111 688 77 q 916 233 834 145 q 935 236 922 240 q 951 219 947 232 q 958 177 956 206 q 958 145 960 148 q 566 -28 815 -28 q 286 45 401 -28 q 66 487 66 184 z "},"Т":{"ha":834,"x_min":8,"x_max":827,"o":"m 14 882 q 11 885 14 882 q 10 903 8 888 q 12 930 12 918 q 12 955 12 943 q 10 977 11 967 q 11 996 9 986 q 16 1012 12 1006 q 49 1014 20 1017 q 119 1010 77 1010 l 716 1010 q 787 1014 758 1010 q 821 1009 815 1017 q 825 975 827 1001 q 823 928 823 948 q 825 898 823 907 q 819 882 826 888 q 806 876 812 875 q 507 897 707 895 q 498 688 498 838 l 498 309 q 513 1 498 107 q 507 -13 514 -7 q 485 -16 500 -19 q 417 -14 469 -14 q 349 -16 365 -14 q 327 -13 334 -19 q 321 1 320 -7 q 338 309 338 111 l 338 688 q 328 897 338 841 q 58 882 156 897 l 28 876 q 14 882 20 875 z "},"У":{"ha":897,"x_min":47,"x_max":884,"o":"m 47 31 l 47 38 q 52 47 47 43 q 153 190 87 81 q 168 195 157 199 l 190 191 q 199 180 197 190 q 234 116 206 145 q 300 87 262 87 q 362 115 339 87 q 416 214 385 142 q 58 996 235 639 q 60 1010 56 1002 q 73 1016 65 1017 q 160 1010 106 1010 q 247 1016 214 1010 q 262 1005 259 1019 q 499 410 302 863 q 723 1005 680 841 q 740 1014 726 1017 q 801 1010 754 1010 q 860 1014 848 1010 q 878 1011 872 1017 q 880 997 884 1005 l 541 243 q 409 26 476 99 q 239 -47 342 -47 q 130 -28 184 -47 q 52 22 76 -8 q 47 31 47 30 z "},"Ф":{"ha":1039,"x_min":42,"x_max":997,"o":"m 42 502 q 438 826 42 798 q 425 996 434 925 q 430 1010 423 1004 q 456 1014 437 1017 q 520 1010 476 1010 q 584 1014 564 1010 q 610 1010 604 1017 q 614 996 616 1004 q 601 826 606 935 q 967 656 892 808 q 997 509 997 597 q 963 358 997 422 q 601 187 886 206 q 614 1 604 79 q 610 -13 616 -7 q 588 -16 604 -19 q 520 -14 572 -14 q 452 -16 468 -14 q 430 -13 437 -19 q 425 1 423 -7 q 438 187 435 72 q 246 220 321 193 q 133 280 171 248 q 68 369 95 312 q 42 502 42 426 m 282 697 q 217 508 217 652 q 282 316 217 363 q 351 281 316 292 q 439 267 385 271 l 439 746 q 349 731 384 741 q 282 697 315 722 m 600 267 q 687 281 654 273 q 754 313 720 290 q 822 504 822 358 q 762 697 822 650 q 694 732 730 723 q 600 746 659 742 l 600 267 z "},"Х":{"ha":898,"x_min":19,"x_max":888,"o":"m 24 3 l 361 496 l 33 994 q 33 1009 28 1001 q 46 1016 37 1017 q 130 1010 79 1010 q 203 1015 182 1010 q 231 1008 225 1019 q 468 628 259 948 q 604 831 562 764 q 705 1008 646 898 q 723 1014 711 1017 q 783 1010 735 1010 q 841 1014 830 1010 q 858 1010 852 1017 q 851 984 864 1002 q 734 823 838 966 q 529 534 629 681 q 883 3 761 176 q 884 -12 888 -4 q 861 -16 879 -19 q 782 -14 844 -14 q 703 -16 720 -14 q 681 -11 686 -19 q 572 177 625 96 q 477 321 519 258 q 425 400 434 385 q 178 -11 278 175 q 160 -17 172 -20 q 100 -14 148 -14 q 42 -17 53 -14 q 25 -13 31 -20 q 24 3 19 -5 z "},"Ц":{"ha":1085,"x_min":125,"x_max":1061,"o":"m 126 996 q 131 1010 125 1004 q 153 1014 137 1017 q 222 1010 170 1010 l 301 1016 q 313 1010 308 1017 q 317 996 319 1004 q 302 688 302 898 l 302 309 q 315 95 302 137 q 345 81 319 81 l 750 81 q 780 95 774 81 q 792 309 792 138 l 792 688 q 777 996 792 898 q 781 1010 776 1004 q 802 1014 787 1017 q 872 1010 818 1010 l 951 1016 q 964 1010 958 1017 q 968 996 970 1004 q 952 688 952 880 l 952 309 q 963 121 952 178 q 1001 62 974 65 q 1061 18 1061 57 l 1061 16 l 1042 -214 q 1036 -227 1042 -221 q 1025 -232 1031 -232 l 975 -232 q 959 -216 962 -232 q 905 -48 937 -83 q 814 -14 873 -14 l 222 -14 l 144 -18 q 132 -13 137 -19 q 127 1 126 -7 q 142 309 142 103 l 142 688 q 126 996 142 880 z "},"Ч":{"ha":978,"x_min":115,"x_max":850,"o":"m 117 996 q 122 1010 115 1004 q 144 1014 129 1017 q 212 1010 159 1010 l 290 1016 q 302 1010 297 1017 q 307 996 308 1004 q 292 688 292 898 l 292 644 q 330 524 292 557 q 452 490 369 490 q 673 551 572 490 l 673 688 q 658 996 673 890 q 663 1010 656 1004 q 690 1014 670 1017 q 753 1010 709 1010 q 817 1014 798 1010 q 843 1010 837 1017 q 848 996 849 1004 q 833 688 833 898 l 833 309 q 849 1 833 117 q 844 -13 850 -7 q 821 -16 837 -19 q 753 -14 806 -14 q 686 -16 701 -14 q 663 -13 670 -19 q 658 1 656 -7 q 673 309 673 103 l 673 450 q 395 363 534 363 q 193 444 255 363 q 132 652 132 524 l 132 688 q 117 996 132 890 z "},"Ш":{"ha":1484,"x_min":127,"x_max":1360,"o":"m 129 996 q 134 1010 127 1004 q 157 1014 141 1017 q 225 1010 172 1010 l 304 1016 q 317 1010 311 1017 q 321 996 323 1004 q 305 688 305 888 l 305 309 q 317 95 305 137 q 347 81 321 81 l 620 81 q 651 95 646 81 q 662 309 662 134 l 662 688 q 646 996 662 880 q 651 1010 644 1004 q 673 1014 658 1017 q 742 1010 689 1010 l 821 1016 q 833 1010 827 1017 q 838 996 840 1004 q 822 688 822 888 l 822 309 q 834 95 822 137 q 864 81 838 81 l 1139 81 q 1171 95 1165 81 q 1181 309 1181 134 l 1181 688 q 1166 996 1181 898 q 1171 1010 1165 1004 q 1192 1014 1177 1017 q 1261 1010 1207 1010 l 1340 1016 q 1354 1010 1347 1017 q 1359 996 1360 1004 q 1341 688 1341 871 l 1341 309 q 1358 1 1341 117 q 1352 -13 1359 -7 q 1330 -16 1345 -19 q 1261 -14 1314 -14 l 228 -14 l 148 -18 q 135 -13 141 -19 q 130 1 129 -7 q 145 309 145 103 l 145 688 q 129 996 145 880 z "},"Щ":{"ha":1465,"x_min":127,"x_max":1450,"o":"m 129 996 q 134 1010 127 1004 q 157 1014 141 1017 q 225 1010 172 1010 l 304 1016 q 317 1010 311 1017 q 321 996 323 1004 q 305 688 305 888 l 305 309 q 317 95 305 137 q 347 81 321 81 l 620 81 q 651 95 646 81 q 662 309 662 134 l 662 688 q 646 996 662 880 q 651 1010 644 1004 q 673 1014 658 1017 q 742 1010 689 1010 l 821 1016 q 833 1010 827 1017 q 838 996 840 1004 q 822 688 822 888 l 822 309 q 834 95 822 137 q 864 81 838 81 l 1139 81 q 1171 95 1165 81 q 1181 309 1181 134 l 1181 688 q 1166 996 1181 898 q 1171 1010 1165 1004 q 1192 1014 1177 1017 q 1261 1010 1207 1010 l 1340 1016 q 1354 1010 1347 1017 q 1359 996 1360 1004 q 1341 688 1341 871 l 1341 309 q 1353 121 1341 178 q 1392 62 1364 65 q 1450 18 1450 57 l 1450 16 l 1431 -214 q 1426 -227 1431 -221 q 1415 -232 1420 -232 l 1366 -232 q 1355 -227 1360 -232 q 1348 -216 1350 -221 q 1295 -48 1326 -83 q 1203 -14 1263 -14 l 228 -14 l 148 -18 q 135 -13 141 -19 q 130 1 129 -7 q 145 309 145 103 l 145 688 q 129 996 145 880 z "},"Ъ":{"ha":1118,"x_min":62,"x_max":1076,"o":"m 69 873 q 66 877 69 873 q 64 895 62 880 q 66 932 66 910 q 64 979 66 954 q 69 1010 62 1004 q 83 1016 76 1017 q 174 1010 132 1010 l 467 1010 l 549 1016 q 562 1010 556 1017 q 567 996 568 1004 q 552 688 557 936 l 552 590 l 659 590 q 993 510 905 590 q 1057 417 1039 469 q 1076 288 1076 365 q 1050 152 1076 210 q 986 62 1024 94 q 889 12 948 31 q 779 -12 830 -7 q 663 -16 728 -16 l 475 -14 l 393 -18 q 380 -13 387 -19 q 376 1 374 -7 q 392 309 392 111 l 392 688 q 382 884 392 833 q 117 871 217 884 q 98 869 106 869 q 83 867 91 868 q 69 873 76 865 m 643 65 q 894 285 894 65 q 846 437 894 378 q 670 495 799 495 l 552 495 l 552 118 q 564 75 552 85 q 643 65 576 65 z "},"Ы":{"ha":1215,"x_min":127,"x_max":1085,"o":"m 129 996 q 134 1010 127 1004 q 157 1014 141 1017 q 225 1010 172 1010 l 304 1016 q 317 1010 311 1017 q 321 996 323 1004 q 305 688 305 888 l 305 590 l 412 590 q 604 571 524 590 q 726 524 684 552 q 793 452 769 496 q 824 371 818 408 q 830 269 830 334 q 803 146 830 203 q 736 58 776 88 q 630 9 696 27 q 509 -12 564 -8 q 372 -16 453 -16 l 229 -14 l 148 -18 q 135 -13 141 -19 q 130 1 129 -7 q 145 309 145 103 l 145 688 q 129 996 145 880 m 305 118 q 317 75 305 85 q 395 65 330 65 q 517 83 461 65 q 600 136 574 102 q 648 283 648 198 q 423 495 648 495 l 305 495 l 305 118 m 892 4 q 907 311 907 106 l 907 689 q 892 997 907 891 q 898 1012 891 1005 q 924 1015 905 1019 q 988 1012 944 1012 q 1052 1015 1032 1012 q 1078 1012 1072 1019 q 1084 997 1085 1005 q 1067 689 1067 890 l 1067 311 q 1084 4 1067 119 q 1078 -11 1085 -4 q 1056 -15 1072 -18 q 988 -12 1040 -12 q 920 -15 936 -12 q 898 -11 905 -18 q 892 4 891 -4 z "},"Ь":{"ha":863,"x_min":127,"x_max":830,"o":"m 129 996 q 134 1010 127 1004 q 157 1014 141 1017 q 225 1010 172 1010 l 304 1016 q 317 1010 311 1017 q 321 996 323 1004 q 305 688 305 888 l 305 590 l 412 590 q 604 571 524 590 q 726 524 684 552 q 793 452 769 496 q 824 371 818 408 q 830 269 830 334 q 803 146 830 203 q 736 58 776 88 q 630 9 696 27 q 509 -12 564 -8 q 372 -16 453 -16 l 229 -14 l 148 -18 q 135 -13 141 -19 q 130 1 129 -7 q 145 309 145 103 l 145 688 q 129 996 145 880 m 305 118 q 317 75 305 85 q 395 65 330 65 q 517 83 461 65 q 600 136 574 102 q 648 283 648 198 q 423 495 648 495 l 305 495 l 305 118 z "},"Э":{"ha":933,"x_min":49,"x_max":882,"o":"m 52 711 q 84 948 81 846 q 104 962 84 962 q 230 997 123 963 q 431 1031 336 1031 q 758 898 635 1031 q 882 512 882 765 q 757 113 882 259 q 426 -33 632 -33 q 149 56 266 -33 q 71 189 71 117 q 86 245 71 222 q 134 269 102 269 q 221 190 198 269 q 442 46 270 46 q 589 106 526 46 q 716 450 707 220 q 559 408 639 408 l 556 408 q 423 438 503 408 q 307 468 343 468 q 243 455 271 468 q 206 442 216 442 q 188 451 197 442 q 179 475 179 460 q 245 542 179 514 q 375 570 311 570 q 509 546 439 570 q 626 522 579 522 q 715 540 673 522 q 677 732 708 650 q 602 860 647 815 q 418 947 515 947 q 238 873 320 947 q 125 699 156 800 q 110 689 122 686 l 64 694 q 52 711 49 697 z "},"Ю":{"ha":1398,"x_min":130,"x_max":1352,"o":"m 132 1 q 148 309 148 111 l 148 688 q 132 996 148 880 q 137 1010 130 1004 q 163 1014 144 1017 q 227 1010 183 1010 q 291 1014 271 1010 q 317 1010 311 1017 q 323 996 324 1004 q 308 688 308 898 l 308 548 l 430 548 q 576 895 449 758 q 886 1031 704 1031 q 1227 888 1103 1031 q 1352 505 1352 745 q 1230 116 1352 264 q 883 -33 1108 -33 q 564 101 694 -33 q 427 453 434 235 l 308 453 l 308 309 q 323 1 308 107 q 317 -13 324 -7 q 295 -16 311 -19 q 227 -14 279 -14 q 159 -16 175 -14 q 137 -13 144 -19 q 132 1 130 -7 m 602 506 q 688 180 602 297 q 896 62 774 62 q 1097 172 1017 62 q 1177 479 1177 282 q 884 936 1177 936 q 699 842 784 936 q 629 707 655 795 q 602 506 602 620 z "},"Я":{"ha":867,"x_min":-16,"x_max":751,"o":"m 5 -18 q -9 -9 -3 -19 q -9 9 -16 1 q 158 235 33 57 q 316 456 283 414 q 157 557 218 486 q 96 745 96 629 q 183 944 96 861 q 302 1007 236 993 q 461 1021 368 1021 l 654 1010 l 731 1016 q 745 1010 738 1017 q 750 996 751 1004 q 734 688 734 880 l 734 309 q 750 1 734 111 q 745 -13 751 -7 q 724 -16 739 -19 q 654 -14 708 -14 l 578 -18 q 564 -13 571 -19 q 559 1 557 -7 q 574 309 574 107 l 574 429 q 491 431 537 429 q 321 200 419 346 q 202 -8 222 54 q 179 -17 198 -20 q 84 -14 160 -14 l 83 -14 q 5 -18 35 -14 m 334 902 q 274 736 274 863 q 332 567 274 610 q 513 524 389 524 l 574 524 l 574 880 q 568 911 574 901 q 469 935 556 935 q 334 902 382 935 z "},"а":{"ha":743,"x_min":56,"x_max":738,"o":"m 113 17 q 84 40 113 17 q 56 149 56 62 q 127 298 56 236 q 323 389 199 361 l 465 420 q 468 454 468 423 q 456 523 468 486 q 419 574 444 560 q 378 592 395 589 q 332 595 361 595 q 174 471 252 595 q 161 464 170 464 l 141 465 q 129 476 132 465 l 103 579 q 111 600 102 590 q 336 692 222 692 q 617 429 617 692 l 612 195 q 633 84 612 106 q 662 76 642 76 q 702 83 682 76 q 724 75 722 90 l 736 37 q 732 23 738 28 q 593 -28 682 -28 q 472 56 505 -28 q 370 -11 414 7 q 248 -28 326 -28 q 113 17 170 -28 m 209 168 q 237 102 209 126 q 315 77 264 77 q 444 134 366 77 q 460 164 460 146 l 465 330 l 351 300 q 209 168 209 262 z "},"б":{"ha":766,"x_min":52,"x_max":730,"o":"m 52 353 q 129 768 52 627 q 245 906 168 840 q 427 979 321 972 q 572 1029 533 986 q 608 1085 590 1048 q 620 1093 612 1093 l 637 1093 q 646 1090 640 1093 l 684 1059 q 689 1046 692 1054 q 423 850 654 871 q 288 807 328 842 q 210 689 248 772 q 186 583 190 647 q 408 692 263 692 q 662 581 583 692 q 730 332 730 480 q 646 78 730 184 q 406 -28 562 -28 q 151 67 251 -28 q 52 353 52 163 m 214 363 q 267 140 214 221 q 407 60 319 60 q 515 123 464 60 q 567 321 567 187 q 524 529 567 454 q 399 604 480 604 q 309 578 347 604 q 252 513 271 552 q 214 363 214 438 z "},"в":{"ha":715,"x_min":117,"x_max":662,"o":"m 118 3 q 134 278 134 100 l 134 385 q 118 662 134 553 q 123 677 117 671 q 142 680 129 682 q 209 677 155 677 l 374 680 q 583 632 525 680 q 640 499 640 585 q 606 412 640 450 q 530 355 572 374 q 623 289 585 332 q 662 189 662 245 q 598 33 662 81 q 430 -16 534 -16 l 209 -14 l 136 -18 q 123 -12 129 -19 q 118 3 117 -5 m 285 581 l 286 562 l 286 401 l 361 401 q 452 429 420 401 q 483 509 483 457 q 455 581 483 560 q 361 601 427 601 l 357 601 q 296 597 308 601 q 285 581 285 594 m 286 119 q 297 72 286 81 q 369 62 308 62 q 499 184 499 62 q 466 285 499 248 q 374 321 433 321 l 286 321 l 286 119 z "},"г":{"ha":605,"x_min":119,"x_max":567,"o":"m 121 3 q 137 278 137 102 l 137 354 q 121 662 137 552 q 125 676 119 670 q 148 680 132 682 q 217 677 164 677 l 464 677 q 548 680 502 677 q 566 652 566 680 l 563 608 q 565 581 563 594 q 560 560 567 567 q 547 556 553 553 q 288 572 469 571 l 288 278 q 302 3 288 98 q 297 -12 304 -5 q 277 -16 290 -19 q 212 -14 264 -14 l 138 -18 q 125 -12 132 -19 q 121 3 119 -5 z "},"д":{"ha":804,"x_min":23,"x_max":772,"o":"m 23 -197 l 33 8 q 89 55 35 49 q 153 111 142 61 q 210 524 210 368 q 199 661 210 589 q 205 675 198 669 q 227 680 212 682 q 290 677 243 677 l 586 677 q 649 680 633 677 q 671 675 665 682 q 677 661 678 669 q 662 354 662 571 l 662 118 q 712 56 662 65 q 762 9 762 46 l 772 -197 q 758 -212 772 -212 l 719 -212 q 705 -201 708 -212 q 655 -84 694 -146 q 601 -33 635 -53 q 526 -14 567 -14 l 260 -14 q 140 -81 178 -14 q 91 -202 102 -148 q 77 -213 88 -213 l 37 -212 q 23 -197 23 -212 m 258 129 q 247 77 247 81 q 263 73 247 73 l 463 73 q 509 95 506 73 q 510 136 510 106 l 510 529 q 505 578 510 567 q 491 590 500 589 q 463 591 481 591 l 338 591 q 315 581 321 591 q 308 563 308 571 q 258 129 292 288 z "},"е":{"ha":700,"x_min":39,"x_max":654,"o":"m 111 77 q 39 328 39 165 q 138 591 39 491 q 369 692 236 692 q 503 663 445 692 q 591 589 560 635 q 651 387 651 495 q 639 358 651 369 q 609 347 627 347 l 202 347 q 237 171 203 225 q 395 90 289 90 q 597 170 522 90 q 617 170 608 180 l 647 130 q 648 114 654 122 q 527 10 601 49 q 368 -28 453 -28 q 111 77 198 -28 m 210 435 l 477 435 q 484 436 483 435 q 486 444 486 437 q 450 562 486 519 q 369 604 414 604 q 277 566 324 604 q 210 435 231 528 z "},"ж":{"ha":1021,"x_min":0,"x_max":1023,"o":"m 26 -17 q 21 -19 26 -17 q 7 -9 15 -20 q 8 9 0 1 q 102 132 50 57 q 193 254 153 206 q 326 355 260 336 q 290 422 313 369 q 237 513 266 475 q 172 552 209 552 q 95 534 117 552 q 76 532 88 529 q 61 544 64 536 l 31 658 q 48 682 28 671 q 119 692 68 692 q 224 651 170 692 q 313 555 279 610 q 351 485 330 530 q 390 420 373 439 q 437 395 407 400 q 420 661 437 564 q 426 675 419 669 q 448 680 433 682 q 511 677 464 677 q 574 680 559 677 q 597 675 590 682 q 602 661 604 669 q 587 395 590 582 q 634 420 617 400 q 673 485 651 439 q 711 555 694 530 q 800 651 745 610 q 913 692 854 692 q 968 684 941 692 q 991 658 996 677 l 963 544 q 947 533 960 537 q 928 534 935 529 q 861 552 906 552 q 786 513 815 552 q 734 421 757 475 q 699 355 711 368 q 766 322 739 345 q 832 253 793 300 q 922 131 871 206 q 1015 9 972 56 q 1015 -10 1023 0 q 996 -17 1008 -20 q 922 -14 985 -14 q 841 -16 860 -14 q 817 -11 822 -19 q 732 149 781 50 q 659 271 684 247 q 587 301 635 294 l 587 277 q 602 3 587 98 q 597 -12 604 -5 q 574 -16 590 -19 q 511 -14 559 -14 q 448 -16 464 -14 q 426 -12 433 -19 q 420 3 419 -5 q 437 277 437 102 l 437 301 q 384 286 397 297 q 365 271 370 274 q 352 257 359 267 q 342 243 345 247 q 332 227 339 240 q 322 210 324 213 q 295 154 320 206 q 206 -11 270 102 q 182 -17 202 -20 q 100 -14 163 -14 q 26 -17 38 -14 z "},"з":{"ha":727,"x_min":43,"x_max":591,"o":"m 43 141 q 60 182 43 164 q 102 199 77 199 q 149 184 126 199 q 176 130 172 170 q 292 56 189 56 q 370 73 338 56 q 431 187 431 106 q 404 279 431 241 q 330 316 377 316 l 231 316 q 203 330 213 316 q 194 359 194 343 q 205 389 194 374 q 231 403 216 403 l 292 403 q 393 438 362 403 q 425 516 425 473 q 385 583 425 559 q 296 608 346 608 q 201 572 245 608 q 127 467 156 537 q 114 458 123 458 l 94 460 q 81 471 84 460 l 57 574 q 65 593 56 583 q 305 692 180 692 q 496 658 430 692 q 578 513 578 616 q 551 431 578 472 q 483 369 525 391 q 560 306 529 350 q 591 191 591 262 q 511 28 591 85 q 283 -28 431 -28 q 111 20 178 -28 q 43 141 43 69 z "},"и":{"ha":891,"x_min":117,"x_max":765,"o":"m 118 3 q 133 277 133 94 l 133 387 q 118 661 133 570 q 123 675 117 669 q 146 680 130 682 q 209 677 161 677 q 272 680 256 677 q 294 676 288 682 q 300 662 301 670 q 285 387 288 571 l 285 153 l 587 674 q 608 680 591 684 q 673 677 625 677 q 736 680 720 677 q 758 676 751 682 q 764 662 765 670 q 749 387 751 571 l 749 277 q 764 3 749 98 q 758 -12 765 -5 q 736 -16 751 -19 q 673 -14 720 -14 q 610 -16 625 -14 q 587 -12 594 -19 q 582 3 581 -5 q 597 277 597 94 l 597 510 l 294 -11 q 273 -17 290 -20 q 209 -14 256 -14 q 146 -16 161 -14 q 123 -12 130 -19 q 118 3 117 -5 z "},"й":{"ha":891,"x_min":117,"x_max":765,"o":"m 118 3 q 133 277 133 94 l 133 387 q 118 661 133 570 q 123 675 117 669 q 146 680 130 682 q 209 677 161 677 q 272 680 256 677 q 294 676 288 682 q 300 662 301 670 q 285 387 288 571 l 285 153 l 587 674 q 608 680 591 684 q 673 677 625 677 q 736 680 720 677 q 758 676 751 682 q 764 662 765 670 q 749 387 751 571 l 749 277 q 764 3 749 98 q 758 -12 765 -5 q 736 -16 751 -19 q 673 -14 720 -14 q 610 -16 625 -14 q 587 -12 594 -19 q 582 3 581 -5 q 597 277 597 94 l 597 510 l 294 -11 q 273 -17 290 -20 q 209 -14 256 -14 q 146 -16 161 -14 q 123 -12 130 -19 q 118 3 117 -5 m 255 913 q 277 958 255 940 q 329 977 298 977 q 378 960 359 977 q 396 917 396 943 l 392 892 q 410 856 392 872 q 456 840 427 840 q 502 856 484 840 q 519 891 519 872 l 517 916 q 538 959 517 941 q 588 977 559 977 q 637 959 617 977 q 656 913 656 941 q 596 804 656 844 q 454 764 536 764 q 314 804 373 764 q 255 913 255 845 z "},"к":{"ha":751,"x_min":123,"x_max":754,"o":"m 125 3 q 140 277 140 94 l 140 387 q 125 661 140 570 q 130 675 123 669 q 151 680 136 682 q 215 677 167 677 q 279 680 263 677 q 300 675 294 682 q 305 661 307 669 q 290 393 293 581 q 343 416 324 397 q 387 483 362 434 q 426 555 411 532 q 521 652 464 612 q 637 692 578 692 q 716 675 696 692 q 722 658 724 667 l 690 544 q 675 532 688 537 q 656 533 663 528 q 585 552 633 552 q 505 514 536 552 q 450 422 475 476 q 412 355 425 369 q 484 322 456 345 q 553 254 513 300 q 646 132 593 208 q 746 9 700 57 q 747 -9 754 1 q 726 -17 739 -20 q 650 -14 713 -14 q 552 -18 586 -14 q 538 -12 543 -18 q 475 102 524 12 q 414 214 427 191 l 403 233 q 390 252 395 248 q 376 265 385 255 q 360 279 368 275 q 336 290 353 282 q 290 301 320 298 l 290 277 q 305 3 290 98 q 300 -12 307 -5 q 279 -16 294 -19 q 215 -14 263 -14 q 151 -16 167 -14 q 130 -12 136 -19 q 125 3 123 -5 z "},"л":{"ha":821,"x_min":27,"x_max":701,"o":"m 30 -7 q 32 12 27 3 q 42 60 37 20 q 52 115 47 100 q 65 129 56 129 l 80 132 q 92 126 88 132 q 99 113 95 121 q 104 104 103 106 q 108 98 104 103 q 113 91 111 92 q 120 85 115 90 q 146 81 125 81 q 193 202 189 81 l 198 401 q 199 487 199 423 q 184 662 199 551 q 189 676 183 670 q 215 680 194 682 q 288 677 236 677 l 605 677 l 682 681 q 695 676 689 682 q 700 662 701 670 q 685 354 685 560 l 685 277 q 700 3 685 98 q 694 -12 701 -5 q 675 -16 688 -19 q 609 -14 662 -14 l 536 -18 q 523 -12 529 -19 q 518 3 517 -5 q 534 277 534 102 l 534 354 q 522 574 534 517 q 512 585 515 583 q 495 586 509 586 l 343 586 q 316 574 326 586 q 304 411 309 548 l 298 233 q 251 26 294 80 q 109 -28 208 -28 q 30 -7 37 -28 z "},"м":{"ha":1043,"x_min":95,"x_max":936,"o":"m 96 3 q 125 248 114 88 q 136 498 136 407 q 130 662 136 589 q 136 676 129 670 q 154 680 144 682 q 193 677 164 677 l 201 677 l 324 680 q 338 671 335 680 l 514 197 l 720 671 q 734 680 724 680 q 806 677 770 677 l 883 681 q 896 676 890 682 q 899 642 902 670 q 895 564 895 613 q 902 355 895 515 l 906 278 q 935 3 914 94 q 930 -12 936 -5 q 911 -16 924 -19 q 845 -14 898 -14 l 772 -18 q 759 -13 765 -19 q 754 1 753 -7 q 760 106 760 54 q 754 277 760 157 l 750 354 q 748 383 750 358 q 744 439 746 408 q 739 495 742 471 l 530 4 q 484 -20 521 -20 q 437 4 448 -20 l 245 491 q 228 178 228 302 q 232 1 228 54 q 226 -14 233 -7 q 208 -17 218 -20 q 164 -14 198 -14 l 114 -18 q 100 -14 106 -20 q 96 3 95 -7 z "},"н":{"ha":867,"x_min":117,"x_max":765,"o":"m 118 3 q 133 277 133 94 l 133 387 q 118 661 133 570 q 123 675 117 669 q 146 680 130 682 q 209 677 161 677 q 272 680 256 677 q 294 675 288 682 q 300 661 301 669 q 285 397 288 582 l 597 397 q 582 661 597 572 q 587 675 581 669 q 610 680 594 682 q 673 677 625 677 q 736 680 720 677 q 758 675 751 682 q 764 661 765 669 q 749 387 751 579 l 749 277 q 764 3 749 98 q 758 -12 765 -5 q 736 -16 751 -19 q 673 -14 720 -14 q 610 -16 625 -14 q 587 -12 594 -19 q 582 3 581 -5 q 597 277 597 94 l 597 309 l 285 309 l 285 277 q 300 3 285 98 q 294 -12 301 -5 q 272 -16 288 -19 q 209 -14 256 -14 q 146 -16 161 -14 q 123 -12 130 -19 q 118 3 117 -5 z "},"о":{"ha":773,"x_min":45,"x_max":728,"o":"m 138 70 q 91 119 138 70 q 45 328 45 168 q 140 589 45 487 q 395 692 236 692 q 641 594 553 692 q 728 334 728 496 q 635 72 728 172 q 387 -28 543 -28 q 138 70 231 -28 m 209 343 q 224 216 209 275 q 284 108 239 156 q 400 60 330 60 q 517 127 471 60 q 564 302 564 195 q 527 530 564 457 q 390 604 490 604 q 250 530 290 604 q 209 343 209 457 z "},"п":{"ha":882,"x_min":127,"x_max":762,"o":"m 129 3 q 145 278 145 100 l 145 354 q 130 662 145 560 q 135 676 129 670 q 157 680 141 682 q 225 677 172 677 l 665 677 l 743 681 q 756 676 750 682 q 761 662 762 670 q 745 354 745 552 l 745 277 q 760 3 745 98 q 754 -12 761 -5 q 735 -16 747 -19 q 670 -14 723 -14 l 597 -18 q 584 -12 590 -19 q 579 3 578 -5 q 594 277 594 94 l 594 354 q 583 574 594 524 q 573 585 576 583 q 555 586 570 586 l 335 586 q 308 574 317 586 q 297 354 297 528 l 297 278 q 312 1 297 96 q 307 -13 313 -7 q 286 -16 300 -19 q 220 -14 273 -14 l 146 -18 q 134 -12 140 -19 q 129 3 127 -5 z "},"р":{"ha":808,"x_min":98,"x_max":745,"o":"m 99 -357 q 113 -49 113 -255 l 113 363 q 99 661 113 579 q 104 675 98 667 q 121 681 111 682 q 166 680 130 680 q 239 686 202 680 l 241 686 q 264 656 264 686 l 264 578 q 463 692 354 692 q 669 592 593 692 q 745 357 745 492 q 653 79 745 186 q 404 -28 562 -28 q 264 -3 327 -28 l 264 -49 q 278 -357 264 -248 q 273 -371 279 -363 q 259 -377 266 -378 q 189 -372 227 -372 q 131 -375 151 -372 q 104 -372 111 -378 q 99 -357 98 -365 m 264 121 q 395 60 320 60 q 545 152 503 60 q 582 338 582 229 q 435 594 582 594 q 342 551 396 594 q 264 452 289 509 l 264 121 z "},"с":{"ha":663,"x_min":45,"x_max":614,"o":"m 133 72 q 89 122 133 72 q 45 333 45 172 q 149 593 45 494 q 383 692 254 692 q 600 647 513 692 q 610 627 614 639 l 574 500 q 563 491 571 491 l 543 490 q 529 495 533 490 q 391 604 468 604 q 261 534 313 604 q 209 340 209 464 q 262 146 209 217 q 399 76 315 76 q 552 137 483 76 q 562 140 555 140 l 567 140 q 578 136 574 140 l 606 103 q 608 85 614 92 q 370 -28 518 -28 q 133 72 221 -28 z "},"т":{"ha":689,"x_min":35,"x_max":652,"o":"m 35 643 q 40 674 35 669 q 53 680 45 680 q 137 677 99 677 l 549 677 q 614 678 587 677 q 646 674 642 680 q 651 643 651 669 l 648 608 q 650 574 648 587 q 644 553 652 560 q 628 549 636 547 q 419 564 614 563 l 419 278 q 434 3 419 98 q 429 -12 435 -5 q 409 -16 422 -19 q 343 -14 396 -14 l 270 -18 q 257 -12 263 -19 q 252 3 251 -5 q 267 278 267 94 l 267 564 q 58 549 72 563 q 42 552 49 545 q 37 568 35 559 q 38 608 38 578 l 35 643 z "},"у":{"ha":781,"x_min":28,"x_max":755,"o":"m 31 662 q 33 675 28 669 q 52 680 38 682 q 122 677 65 677 q 194 680 179 677 q 213 673 209 684 q 408 165 271 496 q 600 673 503 372 q 616 680 604 684 q 676 677 628 677 q 734 680 724 677 q 749 677 743 684 q 751 662 755 670 q 512 136 682 519 q 304 -370 342 -247 q 286 -380 298 -382 q 227 -372 262 -372 q 174 -377 191 -372 q 150 -375 156 -382 q 149 -359 144 -368 q 328 -15 252 -189 q 31 662 290 85 z "},"ф":{"ha":1086,"x_min":50,"x_max":1038,"o":"m 50 298 q 140 585 50 479 q 355 692 231 692 q 469 656 419 692 l 469 745 q 452 1034 469 941 q 456 1047 450 1040 q 468 1054 461 1054 q 602 1092 519 1058 l 608 1093 q 627 1084 620 1093 q 635 1063 635 1076 l 635 1062 q 620 773 620 948 l 620 643 q 769 692 677 692 q 965 596 892 692 q 1038 350 1038 500 q 951 85 1038 199 q 732 -28 864 -28 q 620 0 662 -28 l 620 -49 q 637 -357 620 -244 q 633 -372 639 -365 q 610 -375 627 -378 q 540 -372 593 -372 l 471 -377 q 457 -373 464 -380 q 452 -357 450 -366 q 469 -49 469 -251 l 469 15 q 320 -28 412 -28 q 123 68 197 -28 q 50 298 50 164 m 217 343 q 228 210 217 269 q 273 105 239 151 q 370 60 308 60 q 469 118 433 60 l 469 555 q 373 604 427 604 q 217 343 217 604 m 620 110 q 716 60 655 60 q 869 321 869 60 q 724 604 869 604 q 620 548 659 604 l 620 110 z "},"х":{"ha":703,"x_min":20,"x_max":682,"o":"m 26 661 q 25 675 20 667 q 52 680 30 682 q 122 677 73 677 q 194 680 171 677 q 222 675 217 684 q 368 438 350 461 q 465 578 419 509 q 522 665 510 647 q 549 680 534 684 q 601 677 564 677 q 655 680 637 677 q 677 674 673 682 q 677 659 682 666 l 430 355 q 525 214 449 328 q 675 4 601 100 q 677 -11 681 -3 q 651 -16 673 -19 q 581 -14 629 -14 q 513 -17 533 -14 q 487 -12 492 -20 q 418 100 471 12 q 334 232 365 187 q 253 106 304 187 q 178 -12 202 24 q 158 -17 172 -20 q 105 -14 144 -14 q 52 -17 66 -14 q 33 -12 38 -20 q 33 4 27 -3 l 269 320 l 26 661 z "},"ц":{"ha":882,"x_min":119,"x_max":844,"o":"m 121 1 q 137 309 137 111 l 137 387 q 121 661 137 556 q 127 676 119 669 q 146 680 134 684 q 212 677 159 677 l 285 681 q 298 675 292 682 q 302 661 304 669 q 288 387 288 570 l 288 309 q 298 90 288 140 q 309 79 305 80 q 327 77 312 77 l 545 77 q 574 90 564 77 q 585 309 585 136 l 585 385 q 570 662 585 567 q 575 676 568 670 q 595 680 582 682 q 662 677 609 677 l 735 681 q 748 675 742 682 q 753 661 754 669 q 735 385 735 555 l 735 309 q 747 121 735 178 q 785 62 758 65 q 844 18 844 57 l 844 16 l 825 -194 q 808 -212 822 -212 l 760 -212 q 743 -195 746 -212 q 701 -55 728 -96 q 597 -14 674 -14 l 217 -14 l 138 -18 q 125 -13 132 -19 q 121 1 119 -7 z "},"ч":{"ha":788,"x_min":73,"x_max":669,"o":"m 75 662 q 79 677 73 671 q 98 680 85 682 q 165 677 111 677 l 237 681 q 251 677 244 684 q 256 662 258 670 q 243 460 243 564 q 259 324 243 355 q 335 293 275 293 q 502 351 438 293 l 502 387 q 486 661 502 562 q 491 675 484 669 q 513 680 498 682 q 576 677 529 677 q 640 680 624 677 q 662 675 655 682 q 667 661 669 669 q 652 387 655 579 l 652 277 q 667 3 652 98 q 662 -12 669 -5 q 640 -16 655 -19 q 576 -14 624 -14 q 513 -16 529 -14 q 491 -12 498 -19 q 486 3 484 -5 q 502 250 502 102 q 312 198 425 198 q 146 260 199 198 q 92 450 92 321 q 75 662 92 543 z "},"ш":{"ha":1246,"x_min":119,"x_max":1128,"o":"m 121 1 q 137 309 137 111 l 137 387 q 121 661 137 556 q 127 676 119 669 q 146 680 134 684 q 212 677 159 677 l 285 681 q 298 675 292 682 q 302 661 304 669 q 288 387 288 570 l 288 309 q 298 90 288 140 q 309 79 305 80 q 327 77 312 77 l 509 77 q 537 90 528 77 q 548 309 548 136 l 548 387 q 533 661 548 566 q 538 675 532 669 q 557 680 545 682 q 623 677 570 677 l 696 681 q 709 675 703 682 q 713 661 715 669 q 699 387 699 570 l 699 309 q 709 90 699 140 q 720 79 716 80 q 738 77 724 77 l 941 77 q 945 85 944 81 q 948 90 947 88 q 959 309 959 133 l 959 385 q 944 662 959 567 q 949 676 943 670 q 970 680 956 682 q 1036 677 983 677 l 1109 681 q 1122 675 1116 682 q 1127 661 1128 669 q 1109 385 1109 555 l 1109 309 q 1126 1 1109 111 q 1121 -13 1127 -7 q 1099 -16 1115 -19 q 1029 -14 1082 -14 l 217 -14 l 138 -18 q 125 -13 132 -19 q 121 1 119 -7 z "},"щ":{"ha":1256,"x_min":119,"x_max":1218,"o":"m 121 1 q 137 309 137 111 l 137 387 q 121 661 137 556 q 127 676 119 669 q 146 680 134 684 q 212 677 159 677 l 285 681 q 298 675 292 682 q 302 661 304 669 q 288 387 288 570 l 288 309 q 298 90 288 140 q 309 79 305 80 q 327 77 312 77 l 509 77 q 537 90 528 77 q 548 309 548 136 l 548 387 q 533 661 548 566 q 538 675 532 669 q 557 680 545 682 q 623 677 570 677 l 696 681 q 709 675 703 682 q 713 661 715 669 q 699 387 699 570 l 699 309 q 709 90 699 140 q 720 79 716 80 q 738 77 724 77 l 941 77 q 945 85 944 81 q 948 90 947 88 q 959 309 959 133 l 959 385 q 944 662 959 567 q 949 676 943 670 q 970 680 956 682 q 1036 677 983 677 l 1109 681 q 1122 675 1116 682 q 1127 661 1128 669 q 1109 385 1109 555 l 1109 309 q 1121 121 1109 178 q 1160 62 1133 65 q 1218 18 1218 57 l 1218 16 l 1199 -194 q 1183 -212 1196 -212 l 1134 -212 q 1123 -206 1128 -212 q 1116 -195 1118 -201 q 1083 -70 1101 -104 q 1038 -24 1065 -35 q 971 -14 1012 -14 l 217 -14 l 138 -18 q 125 -13 132 -19 q 121 1 119 -7 z "},"ъ":{"ha":842,"x_min":35,"x_max":808,"o":"m 35 643 q 40 674 35 669 q 53 680 45 680 q 137 677 99 677 l 361 677 l 431 681 q 445 675 438 682 q 450 661 452 669 q 435 410 435 567 l 541 410 q 808 210 808 410 q 734 45 808 106 q 528 -16 659 -16 l 361 -14 l 288 -18 q 275 -12 281 -19 q 270 3 269 -5 q 285 277 285 94 l 285 387 q 281 564 285 483 q 57 548 87 563 q 42 553 49 547 q 37 569 35 560 q 38 608 38 578 l 35 643 m 435 122 q 452 77 435 88 q 527 66 468 66 q 617 90 586 66 q 648 187 648 114 q 623 293 648 260 q 526 326 598 326 l 435 326 l 435 122 z "},"ы":{"ha":1053,"x_min":126,"x_max":936,"o":"m 127 3 q 142 277 142 94 l 142 387 q 127 661 142 570 q 132 677 126 670 q 151 680 138 684 q 218 677 164 677 l 289 681 q 303 676 296 684 q 309 661 311 669 q 293 410 293 557 l 399 410 q 666 210 666 410 q 591 45 666 106 q 385 -16 517 -16 l 218 -14 l 145 -18 q 132 -12 138 -19 q 127 3 126 -5 m 293 122 q 309 77 293 88 q 385 66 326 66 q 475 90 444 66 q 506 187 506 114 q 481 293 506 260 q 384 326 456 326 l 293 326 l 293 122 m 754 3 q 769 277 769 94 l 769 387 q 754 661 769 570 q 759 675 753 669 q 781 680 765 682 q 844 677 796 677 q 908 680 892 677 q 930 675 924 682 q 935 661 936 669 q 920 387 922 579 l 920 277 q 935 3 920 98 q 930 -12 936 -5 q 908 -16 924 -19 q 844 -14 892 -14 q 781 -16 796 -14 q 759 -12 765 -19 q 754 3 753 -5 z "},"ь":{"ha":700,"x_min":126,"x_max":666,"o":"m 127 3 q 142 277 142 94 l 142 387 q 127 661 142 570 q 132 677 126 670 q 151 680 138 684 q 218 677 164 677 l 289 681 q 303 676 296 684 q 309 661 311 669 q 293 410 293 557 l 399 410 q 666 210 666 410 q 591 45 666 106 q 385 -16 517 -16 l 218 -14 l 145 -18 q 132 -12 138 -19 q 127 3 126 -5 m 293 122 q 309 77 293 88 q 385 66 326 66 q 475 90 444 66 q 506 187 506 114 q 481 293 506 260 q 384 326 456 326 l 293 326 l 293 122 z "},"э":{"ha":670,"x_min":47,"x_max":617,"o":"m 52 37 l 87 163 q 99 172 90 172 l 119 175 q 133 167 129 175 q 278 60 183 60 q 400 121 353 60 q 453 297 448 183 l 209 297 q 195 303 201 297 q 189 317 189 309 l 190 320 l 199 376 q 220 392 201 392 l 449 392 q 390 547 435 490 q 292 604 345 604 q 197 574 239 604 q 133 496 156 545 q 119 490 130 490 l 99 491 q 87 500 90 491 l 52 627 q 62 647 47 639 q 295 692 152 692 q 528 596 438 692 q 617 339 617 500 q 519 75 617 178 q 284 -28 420 -28 q 62 16 148 -28 q 52 37 47 24 z "},"ю":{"ha":1061,"x_min":114,"x_max":1017,"o":"m 115 3 q 130 277 130 94 l 130 387 q 115 661 130 570 q 121 675 114 669 q 143 680 127 682 q 206 677 159 677 q 269 680 254 677 q 291 675 285 682 q 296 661 297 669 q 281 387 283 579 l 281 380 l 404 380 q 498 606 419 521 q 709 692 576 692 q 977 532 901 692 q 1017 323 1017 444 q 954 95 1017 203 q 861 5 921 39 q 719 -28 800 -28 q 493 68 576 -28 q 401 293 410 164 l 281 293 l 281 277 q 296 3 281 98 q 291 -12 297 -5 q 269 -16 285 -19 q 206 -14 254 -14 q 143 -16 159 -14 q 121 -12 127 -19 q 115 3 114 -5 m 595 532 q 577 496 595 532 q 559 370 559 460 q 570 219 559 279 q 620 109 582 159 q 715 60 658 60 q 816 114 773 60 q 859 317 859 168 q 822 535 859 467 q 708 604 785 604 q 595 532 631 604 z "},"я":{"ha":686,"x_min":0,"x_max":591,"o":"m 26 -17 q 21 -19 26 -17 q 7 -9 15 -20 q 8 9 0 1 q 111 144 49 56 q 221 286 174 233 q 94 345 142 290 q 45 479 45 399 q 311 681 45 681 l 499 677 l 571 681 q 585 675 578 682 q 590 661 591 669 q 575 388 575 570 l 575 275 q 590 3 575 94 q 585 -14 591 -7 q 566 -17 579 -20 q 499 -14 553 -14 l 429 -18 q 414 -12 422 -19 q 408 3 407 -5 q 425 262 425 107 l 425 285 q 353 253 374 275 q 292 151 332 231 q 206 -11 252 71 q 182 -17 202 -20 q 100 -14 163 -14 q 26 -17 38 -14 m 203 496 q 313 369 203 369 l 425 369 l 425 560 q 404 594 425 586 q 319 602 382 602 q 229 577 255 602 q 203 496 203 552 z "},"ё":{"ha":700,"x_min":39,"x_max":654,"o":"m 111 77 q 39 328 39 165 q 138 591 39 491 q 369 692 236 692 q 503 663 445 692 q 591 589 560 635 q 651 387 651 495 q 639 358 651 369 q 609 347 627 347 l 202 347 q 237 171 203 225 q 395 90 289 90 q 597 170 522 90 q 617 170 608 180 l 647 130 q 648 114 654 122 q 527 10 601 49 q 368 -28 453 -28 q 111 77 198 -28 m 165 827 q 152 839 165 827 q 140 887 140 852 q 165 949 140 922 q 225 975 190 975 q 286 949 260 975 q 312 887 312 922 q 286 827 312 852 q 225 802 260 802 q 165 827 190 802 m 210 435 l 477 435 q 484 436 483 435 q 486 444 486 437 q 450 562 486 519 q 369 604 414 604 q 277 566 324 604 q 210 435 231 528 m 427 827 q 414 839 427 827 q 401 887 401 852 q 427 949 401 922 q 487 975 452 975 q 548 949 522 975 q 574 887 574 922 q 548 827 574 852 q 487 802 522 802 q 427 827 452 802 z "},"‐":{"ha":1389,"x_min":525,"x_max":864,"o":"m 525 486 l 525 545 l 864 545 l 864 486 l 525 486 z "},"―":{"ha":1389,"x_min":0,"x_max":1389,"o":"m 0 500 l 0 556 l 1389 556 l 1389 500 l 0 500 z "},"‘":{"ha":377,"x_min":102,"x_max":339,"o":"m 102 868 q 163 1042 102 962 q 321 1164 224 1122 l 339 1130 q 184 966 224 1063 l 251 917 q 309 812 309 872 q 282 745 309 770 q 215 720 255 720 q 134 750 175 720 q 102 868 102 808 z "},"’":{"ha":377,"x_min":39,"x_max":275,"o":"m 39 753 q 194 918 153 819 l 126 968 q 68 1072 68 1012 q 96 1138 68 1112 q 164 1164 123 1164 q 244 1134 205 1164 q 275 1015 275 1080 q 215 842 275 922 q 57 720 155 762 l 39 753 z "},"“":{"ha":677,"x_min":102,"x_max":639,"o":"m 102 868 q 163 1042 102 962 q 321 1164 224 1122 l 339 1130 q 184 966 224 1063 l 251 917 q 309 812 309 872 q 282 745 309 770 q 215 720 255 720 q 134 750 175 720 q 102 868 102 808 m 403 868 q 463 1042 403 962 q 621 1164 524 1122 l 639 1130 q 543 1058 579 1096 q 484 967 506 1020 l 552 917 q 610 812 610 872 q 583 745 610 770 q 516 720 556 720 q 435 750 476 720 q 403 868 403 806 z "},"”":{"ha":677,"x_min":39,"x_max":575,"o":"m 39 753 q 194 918 153 819 l 126 968 q 68 1072 68 1012 q 96 1138 68 1112 q 164 1164 123 1164 q 244 1134 205 1164 q 275 1015 275 1080 q 215 842 275 922 q 57 720 155 762 l 39 753 m 340 753 q 495 918 453 819 l 427 968 q 370 1072 370 1009 q 397 1138 370 1112 q 466 1164 425 1164 q 544 1134 507 1164 q 575 1003 575 1084 q 515 842 575 922 q 359 720 454 762 l 340 753 z "},"‥":{"ha":1389,"x_min":247,"x_max":1142,"o":"m 276 456 q 261 471 276 456 q 247 528 247 486 q 276 599 247 570 q 347 628 305 628 q 418 599 389 628 q 448 528 448 570 q 418 456 448 486 q 347 427 389 427 q 276 456 305 427 m 970 456 q 956 471 970 456 q 941 528 941 486 q 970 599 941 570 q 1042 628 1000 628 q 1113 599 1084 628 q 1142 528 1142 570 q 1113 456 1142 486 q 1042 427 1084 427 q 970 456 1000 427 z "},"…":{"ha":1389,"x_min":132,"x_max":1257,"o":"m 161 456 q 146 471 161 456 q 132 528 132 486 q 161 599 132 570 q 232 628 190 628 q 303 599 274 628 q 332 528 332 570 q 303 456 332 486 q 232 427 274 427 q 161 456 190 427 m 623 456 q 609 471 623 456 q 594 528 594 486 q 623 599 594 570 q 694 628 652 628 q 766 599 736 628 q 795 528 795 570 q 766 456 795 486 q 694 427 736 427 q 623 456 652 427 m 1086 456 q 1071 471 1086 456 q 1057 528 1057 486 q 1086 599 1057 570 q 1157 628 1115 628 q 1228 599 1199 628 q 1257 528 1257 570 q 1228 456 1257 486 q 1157 427 1199 427 q 1086 456 1115 427 z "},"‰":{"ha":1389,"x_min":12,"x_max":1378,"o":"m 69 469 q 41 508 69 469 q 12 707 12 547 q 69 947 12 868 q 214 1027 126 1027 q 359 948 302 1027 q 416 707 416 869 q 359 469 416 545 q 214 392 302 392 q 69 469 126 392 m 214 990 q 137 709 137 990 q 214 427 137 427 q 272 490 252 427 q 292 707 292 552 q 272 926 292 863 q 214 990 252 990 m 199 -11 l 681 1019 l 735 996 l 254 -34 l 199 -11 m 587 58 q 558 96 587 58 q 529 295 529 134 q 587 535 529 456 q 732 614 644 614 q 876 536 819 614 q 933 296 933 457 q 877 58 933 134 q 732 -19 821 -19 q 587 58 644 -19 m 731 578 q 692 578 731 578 q 654 296 654 578 q 732 15 654 15 q 789 77 770 15 q 808 296 808 140 q 731 578 808 578 m 1029 58 q 1001 96 1029 58 q 972 296 972 134 q 1029 536 972 457 q 1175 614 1086 614 q 1320 536 1263 614 q 1378 296 1378 457 q 1321 58 1378 134 q 1175 -19 1264 -19 q 1029 58 1086 -19 m 1176 578 q 1137 578 1176 578 q 1099 296 1099 578 q 1175 15 1099 15 q 1233 78 1213 15 q 1253 296 1253 141 q 1176 578 1253 578 z "},"′":{"ha":385,"x_min":109,"x_max":292,"o":"m 109 640 l 119 1112 q 201 1139 159 1139 q 292 1042 292 1139 q 148 636 292 966 l 109 640 z "},"″":{"ha":684,"x_min":109,"x_max":589,"o":"m 109 640 l 119 1112 q 201 1139 159 1139 q 292 1042 292 1139 q 148 636 292 966 l 109 640 m 407 640 l 416 1112 q 499 1139 456 1139 q 566 1116 543 1139 q 589 1051 589 1092 q 505 776 589 987 q 446 636 457 665 l 407 640 z "},"※":{"ha":1389,"x_min":194,"x_max":1195,"o":"m 194 68 l 654 528 l 195 986 l 236 1027 l 694 568 l 1153 1027 l 1194 986 l 735 528 l 1194 69 l 1153 30 l 694 487 l 235 27 l 194 68 m 224 454 q 209 470 224 454 q 194 528 194 486 q 224 601 194 570 q 298 632 255 632 q 372 601 342 632 q 403 528 403 570 q 372 454 403 486 q 298 423 342 423 q 224 454 255 423 m 621 58 q 605 74 621 58 q 590 132 590 90 q 621 205 590 174 q 694 236 651 236 q 768 205 738 236 q 799 132 799 174 q 768 58 799 90 q 694 27 738 27 q 621 58 651 27 m 621 850 q 605 866 621 850 q 590 924 590 882 q 621 997 590 966 q 694 1028 651 1028 q 768 997 738 1028 q 799 924 799 966 q 768 850 799 882 q 694 819 738 819 q 621 850 651 819 m 1017 454 q 1001 470 1017 454 q 986 528 986 486 q 1017 601 986 570 q 1090 632 1047 632 q 1164 601 1134 632 q 1195 528 1195 570 q 1164 454 1195 486 q 1090 423 1134 423 q 1017 454 1047 423 z "},"℃":{"ha":1227,"x_min":54,"x_max":1154,"o":"m 104 745 q 79 769 104 745 q 54 863 54 793 q 104 982 54 933 q 222 1031 153 1031 q 340 982 292 1031 q 389 863 389 933 q 340 745 389 793 q 222 696 292 696 q 104 745 153 696 m 157 930 q 145 916 157 930 q 133 862 133 901 q 157 795 133 823 q 222 766 182 766 q 286 795 262 766 q 311 862 311 825 q 288 930 311 899 q 223 960 264 960 q 157 930 182 960 m 404 223 q 379 278 404 223 q 354 450 354 332 q 393 663 354 568 q 497 821 433 757 q 645 920 562 884 q 813 956 728 956 q 974 940 898 956 q 1084 909 1050 924 q 1126 888 1119 895 q 1130 875 1133 882 q 1103 723 1111 814 q 1090 711 1103 711 l 1076 708 q 1062 716 1066 708 q 798 863 987 863 q 625 777 711 863 q 556 659 583 735 q 529 477 529 582 q 557 283 529 373 q 650 132 585 193 q 810 71 715 71 q 967 98 905 71 q 1099 202 1029 126 q 1116 205 1108 212 l 1149 182 q 1154 172 1154 179 q 1152 161 1154 165 q 811 -28 1004 -28 q 561 43 667 -28 q 404 223 454 114 z "},"№":{"ha":1430,"x_min":-7,"x_max":1478,"o":"m 39 1 q 16 15 39 1 q -7 70 -7 30 q 12 129 -7 110 q 57 148 30 148 q 136 92 109 148 q 165 47 159 47 q 212 79 201 47 q 222 228 222 111 l 222 849 q 186 911 214 880 q 132 943 159 943 l 123 943 q 90 968 90 943 l 90 997 q 107 1012 90 1012 l 311 1012 q 323 1006 320 1012 l 730 324 q 788 231 776 244 q 791 275 791 250 l 791 742 q 824 968 791 906 q 963 1031 857 1031 q 1072 1002 1025 1031 q 1118 932 1118 972 q 1099 873 1118 892 q 1053 854 1080 854 q 974 909 1001 854 q 963 932 968 922 l 955 947 q 945 955 949 955 q 909 943 921 955 q 887 774 887 920 l 887 33 q 867 -14 887 5 q 825 -33 848 -33 q 732 15 764 -33 l 327 697 l 320 708 l 320 260 q 286 34 320 96 q 146 -28 252 -28 q 39 1 84 -28 m 1013 87 q 1007 93 1013 87 q 1002 115 1002 98 q 1017 153 1002 133 q 1054 172 1032 172 l 1378 172 q 1413 134 1413 172 q 1396 98 1413 118 q 1358 77 1379 77 l 1039 77 q 1013 87 1023 77 m 1084 340 q 1052 371 1084 340 q 1020 503 1020 401 q 1083 670 1020 605 q 1250 735 1146 735 q 1416 673 1354 735 q 1478 509 1478 610 q 1413 343 1478 408 q 1248 278 1347 278 q 1084 340 1149 278 m 1161 519 q 1261 351 1161 351 q 1335 481 1335 351 q 1317 621 1335 578 q 1249 663 1299 663 q 1179 628 1198 663 q 1161 519 1161 593 z "},"℡":{"ha":1389,"x_min":37,"x_max":1350,"o":"m 37 910 l 37 1020 l 486 1020 l 486 910 l 321 910 l 321 0 l 201 0 l 201 910 l 37 910 m 553 0 l 553 808 l 905 808 l 905 705 l 674 705 l 674 468 l 848 468 l 848 372 l 674 372 l 674 103 l 920 103 l 920 0 l 553 0 m 1008 0 l 1008 808 l 1127 808 l 1127 107 l 1350 107 l 1350 0 l 1008 0 z "},"Ⅰ":{"ha":1389,"x_min":613,"x_max":776,"o":"m 613 0 l 613 1000 l 776 1000 l 776 0 l 613 0 z "},"Ⅱ":{"ha":1389,"x_min":403,"x_max":986,"o":"m 403 0 l 403 1000 l 564 1000 l 564 0 l 403 0 m 825 0 l 825 1000 l 986 1000 l 986 0 l 825 0 z "},"Ⅲ":{"ha":1389,"x_min":193,"x_max":1196,"o":"m 193 0 l 193 1000 l 354 1000 l 354 0 l 193 0 m 613 0 l 613 1000 l 776 1000 l 776 0 l 613 0 m 1035 0 l 1035 1000 l 1196 1000 l 1196 0 l 1035 0 z "},"Ⅳ":{"ha":1389,"x_min":210,"x_max":1312,"o":"m 210 0 l 210 1000 l 372 1000 l 372 0 l 210 0 m 498 1000 l 667 1000 l 815 484 q 865 305 826 448 q 905 159 903 163 l 911 159 q 958 326 922 193 q 1002 484 994 458 l 1149 1000 l 1312 1000 l 1000 0 l 811 0 l 498 1000 z "},"Ⅴ":{"ha":1389,"x_min":288,"x_max":1101,"o":"m 288 1000 l 457 1000 l 605 484 q 647 332 609 471 q 696 159 685 193 l 701 159 q 751 337 712 194 q 792 484 791 480 l 939 1000 l 1101 1000 l 789 0 l 600 0 l 288 1000 z "},"Ⅵ":{"ha":1389,"x_min":76,"x_max":1179,"o":"m 76 1000 l 245 1000 l 393 484 q 439 321 404 452 q 484 159 475 190 l 490 159 q 582 484 502 198 l 728 1000 l 890 1000 l 579 0 l 389 0 l 76 1000 m 1016 0 l 1016 1000 l 1179 1000 l 1179 0 l 1016 0 z "},"Ⅶ":{"ha":1389,"x_min":30,"x_max":1289,"o":"m 30 1000 l 199 1000 l 305 484 q 376 159 350 256 l 382 159 q 454 484 408 251 l 559 1000 l 722 1000 l 479 0 l 274 0 l 30 1000 m 807 0 l 807 1000 l 968 1000 l 968 0 l 807 0 m 1127 0 l 1127 1000 l 1289 1000 l 1289 0 l 1127 0 z "},"Ⅷ":{"ha":1389,"x_min":26,"x_max":1290,"o":"m 26 1000 l 170 1000 l 296 159 l 301 159 q 353 484 338 378 l 427 1000 l 563 1000 l 381 0 l 217 0 l 26 1000 m 655 0 l 655 1000 l 789 1000 l 789 0 l 655 0 m 905 0 l 905 1000 l 1039 1000 l 1039 0 l 905 0 m 1156 0 l 1156 1000 l 1290 1000 l 1290 0 l 1156 0 z "},"Ⅸ":{"ha":1389,"x_min":209,"x_max":1289,"o":"m 209 0 l 209 1000 l 369 1000 l 369 0 l 209 0 m 521 0 l 806 515 l 538 1000 l 716 1000 l 836 766 q 913 616 887 662 l 918 616 q 986 766 977 750 l 1101 1000 l 1271 1000 l 1004 507 l 1289 0 l 1111 0 l 981 248 q 899 408 951 304 l 894 408 q 861 341 879 378 q 833 282 844 304 q 817 248 822 260 l 692 0 l 521 0 z "},"Ⅹ":{"ha":1389,"x_min":309,"x_max":1078,"o":"m 309 0 l 594 515 l 327 1000 l 505 1000 l 701 616 l 707 616 q 776 766 746 703 l 890 1000 l 1059 1000 l 792 507 l 1078 0 l 899 0 l 769 248 q 688 408 718 351 l 682 408 q 606 248 648 332 l 480 0 l 309 0 z "},"←":{"ha":1389,"x_min":111,"x_max":1236,"o":"m 111 528 l 387 803 l 445 745 l 270 570 l 1236 570 l 1236 486 l 270 486 l 445 311 l 387 252 l 111 528 z "},"↑":{"ha":1389,"x_min":419,"x_max":970,"o":"m 419 836 l 694 1111 l 970 836 l 911 777 l 736 952 l 736 -14 l 652 -14 l 652 952 l 477 777 l 419 836 z "},"→":{"ha":1389,"x_min":153,"x_max":1278,"o":"m 153 486 l 153 570 l 1119 570 l 944 745 l 1002 803 l 1278 528 l 1002 252 l 944 311 l 1119 486 l 153 486 z "},"↓":{"ha":1389,"x_min":419,"x_max":970,"o":"m 419 220 l 477 278 l 652 103 l 652 1069 l 736 1069 l 736 103 l 911 278 l 970 220 l 694 -56 l 419 220 z "},"⇒":{"ha":1389,"x_min":153,"x_max":1278,"o":"m 153 374 l 153 445 l 1095 445 l 1177 528 l 1095 612 l 153 612 l 153 681 l 1025 681 l 898 808 l 947 859 l 1278 528 l 947 197 l 898 247 l 1025 374 l 153 374 z "},"⇔":{"ha":1389,"x_min":111,"x_max":1278,"o":"m 111 528 l 442 859 l 491 808 l 363 681 l 1025 681 l 898 808 l 947 859 l 1278 528 l 947 197 l 898 247 l 1025 374 l 363 374 l 491 247 l 442 197 l 111 528 m 212 528 l 294 445 l 1095 445 l 1177 528 l 1095 612 l 294 612 l 212 528 z "},"∀":{"ha":1389,"x_min":167,"x_max":1222,"o":"m 167 1009 l 228 1040 l 422 655 l 967 655 l 1162 1040 l 1222 1009 l 696 -16 l 693 -16 l 167 1009 m 457 589 l 693 123 l 696 123 l 933 589 l 457 589 z "},"∂":{"ha":1389,"x_min":313,"x_max":1077,"o":"m 395 60 q 354 102 395 60 q 313 300 313 144 q 425 551 313 457 q 692 646 536 646 q 865 582 798 646 l 865 604 q 823 881 865 800 q 681 962 780 962 q 475 867 582 962 l 449 898 q 734 1024 543 1024 q 981 913 884 1024 q 1077 570 1077 802 q 953 133 1077 289 q 618 -23 829 -23 q 395 60 476 -23 m 505 229 q 536 79 505 132 q 628 26 568 26 q 785 156 716 26 q 864 530 854 286 q 747 574 815 574 q 577 481 650 574 q 505 229 505 388 z "},"∃":{"ha":1389,"x_min":278,"x_max":1097,"o":"m 278 33 l 278 99 l 1031 99 l 1031 484 l 278 484 l 278 552 l 1031 552 l 1031 924 l 278 924 l 278 990 l 1097 990 l 1097 33 l 278 33 z "},"∇":{"ha":1389,"x_min":237,"x_max":1147,"o":"m 237 991 l 237 1042 l 1147 1042 l 1147 991 l 769 -3 l 629 -3 l 237 991 m 480 977 l 780 179 l 1077 977 l 480 977 z "},"∈":{"ha":1389,"x_min":187,"x_max":1202,"o":"m 319 197 q 253 258 319 197 q 187 511 187 320 q 319 825 187 703 q 699 948 450 948 l 1202 948 l 1202 882 l 699 882 q 380 789 494 882 q 255 544 266 697 l 1202 544 l 1202 477 l 255 477 q 380 232 266 324 q 699 140 494 140 l 1202 140 l 1202 73 l 699 73 q 319 197 450 73 z "},"∋":{"ha":1389,"x_min":187,"x_max":1202,"o":"m 187 73 l 187 140 l 690 140 q 1009 232 895 140 q 1134 477 1123 324 l 187 477 l 187 544 l 1134 544 q 1009 789 1123 697 q 690 882 895 882 l 187 882 l 187 948 l 690 948 q 1070 825 939 948 q 1202 511 1202 703 q 1070 197 1202 320 q 690 73 939 73 l 187 73 z "},"∑":{"ha":1389,"x_min":279,"x_max":1111,"o":"m 279 -81 l 647 400 l 288 997 l 288 1042 l 1082 1042 l 1096 747 l 1020 747 l 954 986 l 536 986 l 821 502 l 396 -41 l 975 -41 l 1034 176 l 1111 176 l 1097 -194 l 279 -194 l 279 -81 z "},"√":{"ha":873,"x_min":57,"x_max":888,"o":"m 64 347 q 71 365 57 358 l 259 456 q 277 450 270 460 l 442 167 l 692 1188 l 692 1194 q 705 1207 692 1207 l 875 1207 q 888 1194 888 1207 l 888 1134 q 875 1120 888 1120 l 765 1120 l 490 -3 q 481 -12 487 -11 l 422 -41 q 404 -35 410 -46 l 195 327 l 107 286 q 90 293 95 282 l 64 347 z "},"∝":{"ha":1389,"x_min":41,"x_max":1348,"o":"m 127 305 q 84 348 127 305 q 41 511 41 391 q 128 718 41 632 q 338 803 216 803 q 553 743 460 803 q 727 566 647 684 l 728 566 q 899 743 807 684 q 1109 803 990 803 q 1348 692 1253 803 l 1295 650 q 1109 738 1226 738 q 768 513 916 738 l 768 510 q 1109 285 916 285 q 1295 372 1227 285 l 1348 331 q 1109 220 1253 220 q 899 280 991 220 q 728 457 807 340 l 727 457 q 339 220 564 220 q 127 305 214 220 m 174 671 q 140 638 174 671 q 106 511 106 605 q 174 351 106 418 q 341 285 243 285 q 522 338 439 285 q 685 510 605 392 l 685 513 q 522 684 605 631 q 341 738 439 738 q 174 671 243 738 z "},"∞":{"ha":1389,"x_min":41,"x_max":1348,"o":"m 123 305 q 82 347 123 305 q 41 511 41 389 q 123 718 41 633 q 327 802 206 802 q 693 566 541 802 l 696 566 q 1062 802 848 802 q 1265 718 1183 802 q 1348 511 1348 633 q 1265 305 1348 389 q 1062 221 1183 221 q 696 457 848 221 l 693 457 q 327 221 541 221 q 123 305 206 221 m 170 670 q 138 637 170 670 q 106 511 106 605 q 170 353 106 418 q 327 288 233 288 q 651 510 507 288 l 651 513 q 495 684 574 632 q 325 735 416 735 q 170 670 233 735 m 738 510 q 1062 288 882 288 q 1219 353 1156 288 q 1283 511 1283 418 q 1219 670 1283 605 q 1062 735 1156 735 q 738 513 882 735 l 738 510 z "},"∟":{"ha":1389,"x_min":209,"x_max":1215,"o":"m 209 33 l 209 1039 l 275 1039 l 275 99 l 1215 99 l 1215 33 l 209 33 z "},"∠":{"ha":1389,"x_min":123,"x_max":1251,"o":"m 123 33 l 123 35 l 1088 1000 l 1137 951 l 285 102 l 285 98 l 1251 98 l 1251 33 l 123 33 z "},"∥":{"ha":1389,"x_min":274,"x_max":1118,"o":"m 274 58 l 818 1146 l 878 1115 l 332 27 l 274 58 m 514 -58 l 1058 1029 l 1118 998 l 572 -90 l 514 -58 z "},"∧":{"ha":1389,"x_min":167,"x_max":1222,"o":"m 167 14 l 693 1040 l 696 1040 l 1222 14 l 1162 -16 l 696 899 l 693 899 l 228 -16 l 167 14 z "},"∨":{"ha":1389,"x_min":167,"x_max":1222,"o":"m 167 1009 l 228 1040 l 693 125 l 696 125 l 1162 1040 l 1222 1009 l 696 -16 l 693 -16 l 167 1009 z "},"∩":{"ha":1389,"x_min":256,"x_max":1133,"o":"m 256 20 l 256 524 q 380 903 256 772 q 694 1035 503 1035 q 1009 903 886 1035 q 1133 524 1133 772 l 1133 20 l 1065 20 l 1065 524 q 963 854 1065 739 q 694 968 861 968 q 426 854 528 968 q 324 524 324 739 l 324 20 l 256 20 z "},"∪":{"ha":1389,"x_min":256,"x_max":1133,"o":"m 256 532 l 256 1035 l 324 1035 l 324 532 q 425 202 324 316 q 694 88 526 88 q 964 202 863 88 q 1065 532 1065 316 l 1065 1035 l 1133 1035 l 1133 532 q 1009 152 1133 283 q 694 20 886 20 q 380 152 503 20 q 256 532 256 283 z "},"∫":{"ha":1389,"x_min":420,"x_max":967,"o":"m 420 -79 q 500 7 423 7 q 594 -38 545 7 l 636 -79 q 694 99 694 -20 q 658 318 694 171 q 614 492 621 465 q 557 841 557 732 q 636 1089 557 1000 q 827 1181 715 1179 q 916 1162 876 1181 q 967 1111 956 1142 q 887 1025 964 1025 q 793 1070 842 1025 l 754 1108 q 694 926 694 1050 q 730 713 694 854 q 773 545 766 572 q 831 193 831 296 q 753 -52 831 45 q 562 -149 674 -149 q 471 -130 511 -149 q 420 -79 431 -111 z "},"∬":{"ha":1389,"x_min":206,"x_max":1180,"o":"m 206 -79 q 286 7 209 7 q 380 -38 331 7 l 422 -79 q 480 99 480 -20 q 444 318 480 171 q 400 492 407 465 q 343 841 343 732 q 422 1089 343 1000 q 613 1181 500 1179 q 702 1162 662 1181 q 753 1111 742 1142 q 673 1025 750 1025 q 579 1070 628 1025 l 540 1108 q 480 926 480 1050 q 516 713 480 854 q 559 545 552 572 q 617 193 617 296 q 538 -52 617 45 q 347 -149 460 -149 q 257 -130 297 -149 q 206 -79 217 -111 m 633 -79 q 713 7 636 7 q 807 -38 758 7 l 849 -79 q 907 99 907 -20 q 871 318 907 171 q 827 492 834 465 q 770 841 770 732 q 849 1089 770 1000 q 1040 1181 928 1179 q 1129 1162 1089 1181 q 1180 1111 1169 1142 q 1100 1025 1177 1025 q 1006 1070 1055 1025 l 967 1108 q 907 926 907 1050 q 943 713 907 854 q 986 545 979 572 q 1044 193 1044 296 q 966 -52 1044 45 q 774 -149 887 -149 q 684 -130 724 -149 q 633 -79 644 -111 z "},"∮":{"ha":1389,"x_min":389,"x_max":997,"o":"m 389 515 q 437 680 389 609 q 562 787 484 751 q 559 841 559 825 q 637 1089 559 1000 q 829 1181 716 1179 q 918 1162 878 1181 q 968 1111 958 1142 q 888 1025 966 1025 q 795 1070 844 1025 l 755 1108 q 696 926 696 1050 q 709 814 696 884 q 914 725 831 807 q 997 515 997 643 q 951 354 997 425 q 830 247 906 283 q 833 193 833 206 q 754 -52 833 45 q 563 -149 675 -149 q 473 -130 513 -149 q 422 -79 433 -111 q 502 7 425 7 q 595 -38 547 7 l 637 -79 q 696 99 696 -20 q 681 217 696 146 q 474 304 559 221 q 389 515 389 388 m 434 515 q 504 338 434 408 q 673 260 574 267 q 625 454 665 298 q 567 741 585 609 q 471 649 507 708 q 434 515 434 590 m 719 772 q 774 545 724 746 q 825 292 808 399 q 917 382 883 324 q 951 515 951 441 q 884 691 951 620 q 719 772 818 762 z "},"∴":{"ha":1389,"x_min":256,"x_max":1133,"o":"m 286 104 q 271 118 286 104 q 256 176 256 133 q 286 249 256 220 q 358 278 315 278 q 431 249 401 278 q 460 176 460 220 q 431 104 460 133 q 358 75 401 75 q 286 104 315 75 m 622 736 q 607 750 622 736 q 593 808 593 765 q 622 881 593 852 q 694 910 651 910 q 767 881 738 910 q 796 808 796 852 q 767 736 796 765 q 694 707 738 707 q 622 736 651 707 m 958 104 q 944 118 958 104 q 929 176 929 133 q 958 249 929 220 q 1031 278 987 278 q 1103 249 1074 278 q 1133 176 1133 220 q 1103 104 1133 133 q 1031 75 1074 75 q 958 104 987 75 z "},"∵":{"ha":1389,"x_min":256,"x_max":1133,"o":"m 286 749 q 271 764 286 749 q 256 822 256 779 q 286 895 256 865 q 358 924 315 924 q 431 895 401 924 q 460 822 460 865 q 431 749 460 779 q 358 720 401 720 q 286 749 315 720 m 622 117 q 607 132 622 117 q 593 190 593 146 q 622 262 593 233 q 694 292 651 292 q 767 262 738 292 q 796 190 796 233 q 767 117 796 146 q 694 88 738 88 q 622 117 651 88 m 958 749 q 944 764 958 749 q 929 822 929 779 q 958 895 929 865 q 1031 924 987 924 q 1103 895 1074 924 q 1133 822 1133 865 q 1103 749 1133 779 q 1031 720 1074 720 q 958 749 987 720 z "},"∽":{"ha":1389,"x_min":41,"x_max":1348,"o":"m 123 306 q 82 348 123 306 q 41 512 41 391 q 123 718 41 633 q 327 802 206 802 q 583 696 473 802 l 537 647 q 327 735 445 735 q 170 671 233 735 q 106 512 106 606 q 170 353 106 418 q 330 288 233 288 q 503 338 427 288 q 656 513 578 388 q 845 734 750 667 q 1062 802 940 802 q 1266 717 1184 802 q 1348 510 1348 632 q 1266 304 1348 388 q 1063 221 1184 221 q 807 327 917 221 l 853 374 q 1063 288 944 288 q 1220 352 1157 288 q 1283 511 1283 416 q 1220 670 1283 605 q 1059 735 1157 735 q 885 685 962 735 q 724 495 808 635 q 545 288 640 355 q 328 221 450 221 q 123 306 206 221 z "},"≒":{"ha":1389,"x_min":209,"x_max":1180,"o":"m 209 345 l 209 411 l 1180 411 l 1180 345 l 209 345 m 209 612 l 209 678 l 1180 678 l 1180 612 l 209 612 m 378 812 q 362 827 378 812 q 347 886 347 842 q 378 960 347 929 q 452 990 408 990 q 526 960 495 990 q 556 886 556 929 q 526 812 556 842 q 452 783 495 783 q 378 812 408 783 m 863 62 q 848 77 863 62 q 833 136 833 92 q 863 210 833 179 q 937 240 894 240 q 1011 210 981 240 q 1042 136 1042 179 q 1011 62 1042 92 q 937 33 981 33 q 863 62 894 33 z "},"≠":{"ha":1389,"x_min":209,"x_max":1180,"o":"m 209 334 l 209 400 l 613 400 l 693 623 l 209 623 l 209 689 l 716 689 l 814 954 l 876 932 l 788 689 l 1180 689 l 1180 623 l 764 623 l 684 400 l 1180 400 l 1180 334 l 659 334 l 563 71 l 500 92 l 589 334 l 209 334 z "},"≡":{"ha":1389,"x_min":209,"x_max":1180,"o":"m 209 245 l 209 312 l 1180 312 l 1180 245 l 209 245 m 209 477 l 209 544 l 1180 544 l 1180 477 l 209 477 m 209 709 l 209 776 l 1180 776 l 1180 709 l 209 709 z "},"≦":{"ha":1389,"x_min":157,"x_max":1222,"o":"m 157 738 l 157 741 l 1198 1162 l 1222 1101 l 328 741 l 328 738 l 1222 377 l 1198 315 l 157 738 m 167 18 l 1222 18 l 1222 -49 l 167 -49 l 167 18 m 167 140 l 167 208 l 1222 208 l 1222 140 l 167 140 z "},"≧":{"ha":1389,"x_min":167,"x_max":1232,"o":"m 167 18 l 1222 18 l 1222 -49 l 167 -49 l 167 18 m 167 140 l 167 208 l 1222 208 l 1222 140 l 167 140 m 167 377 l 1061 738 l 1061 741 l 167 1101 l 191 1162 l 1232 741 l 1232 738 l 191 315 l 167 377 z "},"≪":{"ha":1389,"x_min":118,"x_max":1264,"o":"m 118 510 l 118 513 l 868 1039 l 907 985 l 231 513 l 231 510 l 905 38 l 867 -16 l 118 510 m 475 510 l 475 513 l 1225 1039 l 1264 985 l 587 513 l 587 510 l 1261 38 l 1223 -16 l 475 510 z "},"≫":{"ha":1389,"x_min":118,"x_max":1264,"o":"m 118 985 l 157 1039 l 907 513 l 907 510 l 159 -16 l 121 38 l 795 510 l 795 513 l 118 985 m 475 985 l 514 1039 l 1264 513 l 1264 510 l 515 -16 l 477 38 l 1152 510 l 1152 513 l 475 985 z "},"⊂":{"ha":1389,"x_min":187,"x_max":1202,"o":"m 319 197 q 253 258 319 197 q 187 511 187 320 q 319 825 187 703 q 699 948 450 948 l 1202 948 l 1202 882 l 699 882 q 368 780 483 882 q 254 511 254 678 q 368 241 254 343 q 699 140 483 140 l 1202 140 l 1202 73 l 699 73 q 319 197 450 73 z "},"⊃":{"ha":1389,"x_min":187,"x_max":1202,"o":"m 187 73 l 187 140 l 690 140 q 1021 241 906 140 q 1135 511 1135 343 q 1021 780 1135 678 q 690 882 906 882 l 187 882 l 187 948 l 690 948 q 1070 825 939 948 q 1202 511 1202 703 q 1070 197 1202 320 q 690 73 939 73 l 187 73 z "},"⊆":{"ha":1389,"x_min":187,"x_max":1202,"o":"m 302 348 q 244 402 302 348 q 187 622 187 456 q 302 896 187 788 q 624 1004 416 1004 l 1202 1004 l 1202 937 l 624 937 q 349 849 445 937 q 254 622 254 761 q 349 395 254 483 q 624 307 445 307 l 1202 307 l 1202 240 l 624 240 q 302 348 416 240 m 201 18 l 201 84 l 1202 84 l 1202 18 l 201 18 z "},"⊇":{"ha":1389,"x_min":187,"x_max":1202,"o":"m 187 18 l 187 84 l 1188 84 l 1188 18 l 187 18 m 187 240 l 187 307 l 765 307 q 1040 395 944 307 q 1135 622 1135 483 q 1040 849 1135 761 q 765 937 944 937 l 187 937 l 187 1004 l 765 1004 q 1087 896 972 1004 q 1202 622 1202 788 q 1087 348 1202 456 q 765 240 972 240 l 187 240 z "},"⊥":{"ha":1389,"x_min":138,"x_max":1251,"o":"m 138 33 l 138 96 l 661 96 l 661 989 l 728 989 l 728 96 l 1251 96 l 1251 33 l 138 33 z "},"⊿":{"ha":1389,"x_min":152,"x_max":1191,"o":"m 152 33 l 152 35 l 1190 1073 l 1191 1073 l 1191 33 l 152 33 m 312 99 l 1123 99 l 1123 913 l 1122 913 l 312 102 l 312 99 z "},"⌒":{"ha":1389,"x_min":33,"x_max":1356,"o":"m 33 901 q 694 1175 309 1175 q 1356 901 1080 1175 l 1312 806 q 694 1062 1044 1062 q 77 806 345 1062 l 33 901 z "},"①":{"ha":1389,"x_min":60,"x_max":1329,"o":"m 110 269 q 85 328 110 269 q 60 515 60 387 q 110 762 60 644 q 245 964 160 879 q 448 1099 330 1048 q 694 1150 566 1150 q 941 1099 823 1150 q 1279 762 1179 998 q 1329 515 1329 646 q 1278 267 1329 385 q 1143 65 1227 149 q 941 -69 1058 -19 q 694 -119 823 -119 q 448 -69 566 -119 q 245 66 330 -19 q 110 269 160 151 m 277 932 q 191 846 277 932 q 104 515 104 760 q 277 98 104 271 q 694 -75 450 -75 q 1112 98 939 -75 q 1284 515 1284 270 q 1112 933 1284 761 q 694 1105 939 1105 q 277 932 450 1105 m 509 728 l 509 817 q 688 876 606 834 l 793 876 l 793 170 l 655 170 l 655 728 l 509 728 z "},"②":{"ha":1389,"x_min":60,"x_max":1329,"o":"m 110 269 q 85 328 110 269 q 60 515 60 387 q 110 762 60 644 q 245 964 160 879 q 448 1099 330 1048 q 694 1150 566 1150 q 941 1099 823 1150 q 1144 964 1059 1048 q 1279 762 1229 879 q 1329 515 1329 644 q 1278 267 1329 385 q 1143 65 1227 149 q 941 -69 1058 -19 q 694 -119 823 -119 q 448 -69 566 -119 q 245 66 330 -19 q 110 269 160 151 m 277 932 q 191 846 277 932 q 104 515 104 760 q 277 98 104 270 q 694 -75 450 -75 q 1112 98 939 -75 q 1284 515 1284 270 q 1112 933 1284 761 q 694 1105 939 1105 q 277 932 449 1105 m 442 781 q 692 892 549 892 q 869 833 803 892 q 936 682 936 773 q 863 498 936 591 q 652 279 791 406 q 789 286 722 286 l 966 286 l 966 170 l 454 170 l 454 250 q 720 499 639 407 q 802 656 802 591 q 677 784 802 784 q 519 707 601 784 l 442 781 z "},"③":{"ha":1389,"x_min":60,"x_max":1329,"o":"m 110 269 q 85 328 110 269 q 60 515 60 387 q 110 762 60 644 q 245 964 160 879 q 448 1099 330 1048 q 694 1150 566 1150 q 941 1099 823 1150 q 1279 762 1179 998 q 1329 515 1329 646 q 1278 267 1329 385 q 1143 65 1227 149 q 941 -69 1058 -19 q 694 -119 823 -119 q 448 -69 566 -119 q 245 66 330 -19 q 110 269 160 151 m 277 932 q 191 846 277 932 q 104 515 104 760 q 277 98 104 271 q 694 -75 450 -75 q 1112 98 939 -75 q 1284 515 1284 270 q 1112 933 1284 761 q 694 1105 939 1105 q 277 932 450 1105 m 420 255 l 486 342 q 681 263 570 263 q 779 292 741 263 q 818 372 818 320 q 587 484 818 484 l 587 583 q 793 692 793 583 q 762 760 793 735 q 677 785 731 785 q 517 716 590 785 l 446 802 q 673 892 551 892 q 863 842 795 892 q 930 701 930 791 q 796 541 930 593 l 796 537 q 914 472 869 518 q 959 358 959 426 q 880 209 959 264 q 684 153 802 153 q 420 255 513 153 z "},"④":{"ha":1389,"x_min":60,"x_max":1329,"o":"m 110 269 q 85 328 110 269 q 60 515 60 387 q 110 762 60 644 q 245 964 160 879 q 448 1099 330 1048 q 694 1150 566 1150 q 941 1099 823 1150 q 1279 762 1179 998 q 1329 515 1329 646 q 1278 267 1329 385 q 1143 65 1227 149 q 941 -69 1058 -19 q 694 -119 823 -119 q 448 -69 566 -119 q 245 66 330 -19 q 110 269 160 151 m 277 932 q 191 846 277 932 q 104 515 104 760 q 277 98 104 271 q 694 -75 450 -75 q 1112 98 939 -75 q 1284 515 1284 270 q 1112 933 1284 761 q 694 1105 939 1105 q 277 932 450 1105 m 378 349 l 378 442 l 688 876 l 852 876 l 852 452 l 951 452 l 951 349 l 852 349 l 852 170 l 722 170 l 722 349 l 378 349 m 515 452 l 722 452 l 722 602 q 727 750 722 640 l 722 750 q 688 695 708 727 q 659 648 667 663 l 515 452 z "},"⑤":{"ha":1389,"x_min":60,"x_max":1329,"o":"m 110 269 q 85 328 110 269 q 60 515 60 387 q 110 762 60 644 q 245 964 160 879 q 448 1099 330 1048 q 694 1150 566 1150 q 941 1099 823 1150 q 1279 762 1179 998 q 1329 515 1329 646 q 1278 267 1329 385 q 1143 65 1227 149 q 941 -69 1058 -19 q 694 -119 823 -119 q 448 -69 566 -119 q 245 66 330 -19 q 110 269 160 151 m 277 932 q 191 846 277 932 q 104 515 104 760 q 277 98 104 271 q 694 -75 450 -75 q 1112 98 939 -75 q 1284 515 1284 270 q 1112 933 1284 761 q 694 1105 939 1105 q 277 932 450 1105 m 430 252 l 494 342 q 681 263 585 263 q 786 299 745 263 q 827 395 827 335 q 788 490 827 454 q 686 525 749 525 q 557 481 624 525 l 491 522 l 515 876 l 929 876 l 929 761 l 631 761 l 616 595 q 722 620 670 620 q 897 563 827 620 q 966 396 966 506 q 885 220 966 286 q 690 153 804 153 q 430 252 536 153 z "},"⑥":{"ha":1389,"x_min":60,"x_max":1329,"o":"m 110 269 q 85 328 110 269 q 60 515 60 387 q 110 762 60 644 q 245 964 160 879 q 448 1099 330 1048 q 694 1150 566 1150 q 941 1099 823 1150 q 1279 762 1179 998 q 1329 515 1329 646 q 1278 267 1329 385 q 1143 65 1227 149 q 941 -69 1058 -19 q 694 -119 823 -119 q 448 -69 566 -119 q 245 66 330 -19 q 110 269 160 151 m 277 932 q 191 846 277 932 q 104 515 104 760 q 277 98 104 271 q 694 -75 450 -75 q 1112 98 939 -75 q 1284 515 1284 270 q 1112 933 1284 761 q 694 1105 939 1105 q 277 932 450 1105 m 490 241 q 450 284 490 241 q 410 513 410 328 q 498 795 410 697 q 716 892 587 892 q 929 811 845 892 l 856 727 q 722 780 800 780 q 593 720 643 780 q 538 526 544 659 q 720 610 618 610 q 883 553 822 610 q 944 389 944 496 q 872 218 944 282 q 685 153 800 153 q 490 241 570 153 m 543 430 q 697 258 562 258 q 781 293 746 258 q 815 385 815 328 q 781 476 815 442 q 688 510 747 510 q 543 430 605 510 z "},"⑦":{"ha":1389,"x_min":60,"x_max":1329,"o":"m 110 269 q 85 328 110 269 q 60 515 60 387 q 110 762 60 644 q 245 964 160 879 q 448 1099 330 1048 q 694 1150 566 1150 q 941 1099 823 1150 q 1279 762 1179 998 q 1329 515 1329 646 q 1278 267 1329 385 q 1143 65 1227 149 q 941 -69 1058 -19 q 694 -119 823 -119 q 448 -69 566 -119 q 245 66 330 -19 q 110 269 160 151 m 277 932 q 191 846 277 932 q 104 515 104 760 q 277 98 104 271 q 694 -75 450 -75 q 1112 98 939 -75 q 1284 515 1284 270 q 1112 933 1284 761 q 694 1105 939 1105 q 277 932 450 1105 m 445 761 l 445 876 l 952 876 l 952 792 q 781 519 823 647 q 726 170 738 392 l 585 170 q 642 491 595 359 q 799 761 689 623 l 445 761 z "},"⑧":{"ha":1389,"x_min":60,"x_max":1329,"o":"m 110 269 q 85 328 110 269 q 60 515 60 387 q 110 762 60 644 q 245 964 160 879 q 448 1099 330 1048 q 694 1150 566 1150 q 941 1099 823 1150 q 1144 964 1059 1048 q 1279 762 1229 879 q 1329 515 1329 644 q 1278 267 1329 385 q 1143 65 1227 149 q 941 -69 1058 -19 q 694 -119 823 -119 q 448 -69 566 -119 q 245 66 330 -19 q 110 269 160 151 m 277 932 q 191 846 277 932 q 104 515 104 760 q 277 98 104 270 q 694 -75 450 -75 q 1112 98 939 -75 q 1284 515 1284 270 q 1112 933 1284 761 q 694 1105 939 1105 q 277 932 449 1105 m 426 345 q 570 530 426 458 l 570 534 q 458 697 458 608 q 526 840 458 787 q 698 892 594 892 q 866 840 802 892 q 930 699 930 787 q 823 537 930 610 l 823 533 q 924 458 887 500 q 960 350 960 415 q 886 210 960 266 q 694 153 812 153 q 501 208 576 153 q 426 345 426 262 m 551 365 q 593 283 551 315 q 697 251 635 251 q 796 278 760 251 q 833 359 833 305 q 757 450 834 412 q 646 496 720 468 q 551 365 551 437 m 612 771 q 596 759 612 771 q 581 700 581 746 q 622 625 581 654 q 743 570 663 595 q 812 692 812 624 q 779 766 812 736 q 694 796 746 796 q 612 771 643 796 z "},"⑨":{"ha":1389,"x_min":60,"x_max":1329,"o":"m 110 269 q 85 328 110 269 q 60 515 60 387 q 110 762 60 644 q 245 964 160 879 q 448 1099 330 1048 q 694 1150 566 1150 q 941 1099 823 1150 q 1279 762 1179 998 q 1329 515 1329 646 q 1278 267 1329 385 q 1143 65 1227 149 q 941 -69 1058 -19 q 694 -119 823 -119 q 448 -69 566 -119 q 245 66 330 -19 q 110 269 160 151 m 277 932 q 191 846 277 932 q 104 515 104 760 q 277 98 104 271 q 694 -75 450 -75 q 1112 98 939 -75 q 1284 515 1284 270 q 1112 933 1284 761 q 694 1105 939 1105 q 277 932 450 1105 m 507 494 q 475 523 507 494 q 444 656 444 551 q 515 827 444 762 q 701 892 587 892 q 896 804 815 892 q 977 532 977 716 q 888 250 977 347 q 671 153 800 153 q 458 233 543 153 l 532 317 q 665 264 586 264 q 792 325 743 264 q 846 519 841 385 q 673 438 776 438 q 507 494 570 438 m 608 753 q 591 736 608 753 q 574 659 574 719 q 606 567 574 600 q 699 534 639 534 q 842 616 780 534 q 690 788 821 788 q 608 753 642 788 z "},"⑩":{"ha":1389,"x_min":60,"x_max":1329,"o":"m 110 269 q 85 328 110 269 q 60 515 60 387 q 110 762 60 644 q 245 964 160 879 q 448 1099 330 1048 q 694 1150 566 1150 q 941 1099 823 1150 q 1279 762 1179 998 q 1329 515 1329 646 q 1278 267 1329 385 q 1143 65 1227 149 q 941 -69 1058 -19 q 694 -119 823 -119 q 448 -69 566 -119 q 245 66 330 -19 q 110 269 160 151 m 277 932 q 191 846 277 932 q 104 515 104 760 q 277 98 104 271 q 694 -75 450 -75 q 1112 98 939 -75 q 1284 515 1284 270 q 1112 933 1284 761 q 694 1105 939 1105 q 277 932 450 1105 m 282 728 l 282 817 q 431 876 362 833 l 529 876 l 529 170 l 400 170 l 400 728 l 282 728 m 711 254 q 680 305 711 254 q 648 526 648 355 q 711 795 648 697 q 876 892 773 892 q 1040 795 979 892 q 1101 526 1101 697 q 1040 254 1101 355 q 876 153 978 153 q 711 254 774 153 m 876 783 q 827 783 876 783 q 779 524 779 783 q 876 264 779 264 q 972 517 972 264 l 972 530 q 876 783 972 783 z "},"⑪":{"ha":1389,"x_min":60,"x_max":1329,"o":"m 110 269 q 85 328 110 269 q 60 515 60 387 q 110 762 60 644 q 245 964 160 879 q 448 1099 330 1048 q 694 1150 566 1150 q 941 1099 823 1150 q 1279 762 1179 998 q 1329 515 1329 646 q 1278 267 1329 385 q 1143 65 1227 149 q 941 -69 1058 -19 q 694 -119 823 -119 q 448 -69 566 -119 q 245 66 330 -19 q 110 269 160 151 m 277 932 q 191 846 277 932 q 104 515 104 760 q 277 98 104 271 q 694 -75 450 -75 q 1112 98 939 -75 q 1284 515 1284 270 q 1112 933 1284 761 q 694 1105 939 1105 q 277 932 450 1105 m 342 728 l 342 817 q 491 876 419 833 l 589 876 l 589 170 l 460 170 l 460 728 l 342 728 m 723 728 l 723 817 q 871 876 802 833 l 968 876 l 968 170 l 840 170 l 840 728 l 723 728 z "},"⑫":{"ha":1389,"x_min":60,"x_max":1329,"o":"m 110 269 q 85 328 110 269 q 60 515 60 387 q 110 762 60 644 q 245 964 160 879 q 448 1099 330 1048 q 694 1150 566 1150 q 941 1099 823 1150 q 1144 964 1059 1048 q 1279 762 1229 879 q 1329 515 1329 644 q 1278 267 1329 385 q 1143 65 1227 149 q 941 -69 1058 -19 q 694 -119 823 -119 q 448 -69 566 -119 q 245 66 330 -19 q 110 269 160 151 m 277 932 q 191 846 277 932 q 104 515 104 760 q 277 98 104 270 q 694 -75 450 -75 q 1112 98 939 -75 q 1284 515 1284 270 q 1112 933 1284 761 q 694 1105 939 1105 q 277 932 449 1105 m 282 728 l 282 817 q 430 876 357 833 l 528 876 l 528 170 l 399 170 l 399 728 l 282 728 m 651 789 q 849 892 738 892 q 989 833 936 892 q 1043 666 1043 773 q 914 385 1043 559 q 833 279 884 346 q 940 286 888 286 l 1065 286 l 1065 170 l 661 170 l 661 250 q 861 503 802 414 q 920 665 920 593 q 830 784 920 784 q 723 716 780 784 l 651 789 z "},"⑬":{"ha":1389,"x_min":60,"x_max":1329,"o":"m 110 269 q 85 328 110 269 q 60 515 60 387 q 110 762 60 644 q 245 964 160 879 q 448 1099 330 1048 q 694 1150 566 1150 q 941 1099 823 1150 q 1279 762 1179 998 q 1329 515 1329 646 q 1278 267 1329 385 q 1143 65 1227 149 q 941 -69 1058 -19 q 694 -119 823 -119 q 448 -69 566 -119 q 245 66 330 -19 q 110 269 160 151 m 277 932 q 191 846 277 932 q 104 515 104 760 q 277 98 104 271 q 694 -75 450 -75 q 1112 98 939 -75 q 1284 515 1284 270 q 1112 933 1284 761 q 694 1105 939 1105 q 277 932 450 1105 m 286 728 l 286 817 q 434 876 362 833 l 532 876 l 532 170 l 403 170 l 403 728 l 286 728 m 642 245 l 704 330 q 844 263 770 263 q 913 292 886 263 q 940 373 940 320 q 902 455 940 426 q 769 484 864 484 l 769 583 q 920 692 920 583 q 898 760 920 735 q 837 785 876 785 q 727 730 779 785 l 661 811 q 841 892 743 892 q 994 842 939 892 q 1048 701 1048 791 q 943 541 1048 593 l 943 537 q 1035 472 1000 518 q 1070 358 1070 426 q 1006 209 1070 264 q 848 153 943 153 q 642 245 712 153 z "},"⑭":{"ha":1389,"x_min":60,"x_max":1329,"o":"m 110 269 q 85 328 110 269 q 60 515 60 387 q 110 762 60 644 q 245 964 160 879 q 448 1099 330 1048 q 694 1150 566 1150 q 941 1099 823 1150 q 1279 762 1179 998 q 1329 515 1329 646 q 1278 267 1329 385 q 1143 65 1227 149 q 941 -69 1058 -19 q 694 -119 823 -119 q 448 -69 566 -119 q 245 66 330 -19 q 110 269 160 151 m 277 932 q 191 846 277 932 q 104 515 104 760 q 277 98 104 271 q 694 -75 450 -75 q 1112 98 939 -75 q 1284 515 1284 270 q 1112 933 1284 761 q 694 1105 939 1105 q 277 932 450 1105 m 282 728 l 282 817 q 430 876 357 833 l 528 876 l 528 170 l 399 170 l 399 728 l 282 728 m 633 349 l 633 442 l 865 876 l 1017 876 l 1017 452 l 1090 452 l 1090 349 l 1017 349 l 1017 170 l 898 170 l 898 349 l 633 349 m 751 452 l 898 452 l 898 602 q 903 750 898 662 l 898 750 q 876 701 890 731 q 853 648 863 670 l 751 452 z "},"⑮":{"ha":1389,"x_min":60,"x_max":1329,"o":"m 110 269 q 85 328 110 269 q 60 515 60 387 q 110 762 60 644 q 245 964 160 879 q 448 1099 330 1048 q 694 1150 566 1150 q 941 1099 823 1150 q 1279 762 1179 998 q 1329 515 1329 646 q 1278 267 1329 385 q 1143 65 1227 149 q 941 -69 1058 -19 q 694 -119 823 -119 q 448 -69 566 -119 q 245 66 330 -19 q 110 269 160 151 m 277 932 q 191 846 277 932 q 104 515 104 760 q 277 98 104 271 q 694 -75 450 -75 q 1112 98 939 -75 q 1284 515 1284 270 q 1112 933 1284 761 q 694 1105 939 1105 q 277 932 450 1105 m 282 728 l 282 817 q 430 876 357 833 l 528 876 l 528 170 l 399 170 l 399 728 l 282 728 m 642 245 l 700 334 q 841 263 770 263 q 917 299 887 263 q 947 395 947 335 q 920 490 947 454 q 844 525 890 525 q 750 481 798 525 l 692 522 l 709 876 l 1047 876 l 1047 761 l 817 761 l 807 595 q 884 620 845 620 q 1021 563 967 620 q 1076 396 1076 506 q 1009 220 1076 286 q 849 153 943 153 q 642 245 727 153 z "},"⑯":{"ha":1389,"x_min":60,"x_max":1329,"o":"m 110 269 q 85 328 110 269 q 60 515 60 387 q 110 762 60 644 q 245 964 160 879 q 448 1099 330 1048 q 694 1150 566 1150 q 941 1099 823 1150 q 1279 762 1179 998 q 1329 515 1329 646 q 1278 267 1329 385 q 1143 65 1227 149 q 941 -69 1058 -19 q 694 -119 823 -119 q 448 -69 566 -119 q 245 66 330 -19 q 110 269 160 151 m 277 932 q 191 846 277 932 q 104 515 104 760 q 277 98 104 271 q 694 -75 450 -75 q 1112 98 939 -75 q 1284 515 1284 270 q 1112 933 1284 761 q 694 1105 939 1105 q 277 932 450 1105 m 282 728 l 282 817 q 430 876 357 833 l 528 876 l 528 170 l 399 170 l 399 728 l 282 728 m 716 241 q 684 284 716 241 q 651 513 651 328 q 722 795 651 697 q 897 892 792 892 q 1072 811 1001 892 l 1005 727 q 905 780 966 780 q 768 526 772 780 q 907 610 829 610 q 1034 553 986 610 q 1082 389 1082 496 q 1024 218 1082 282 q 873 153 966 153 q 716 241 781 153 m 770 427 q 882 258 788 258 q 941 293 917 258 q 964 385 964 328 q 940 476 964 442 q 873 510 916 510 q 770 427 817 510 z "},"⑰":{"ha":1389,"x_min":60,"x_max":1329,"o":"m 110 269 q 85 328 110 269 q 60 515 60 387 q 110 762 60 644 q 245 964 160 879 q 448 1099 330 1048 q 694 1150 566 1150 q 941 1099 823 1150 q 1279 762 1179 998 q 1329 515 1329 646 q 1278 267 1329 385 q 1143 65 1227 149 q 941 -69 1058 -19 q 694 -119 823 -119 q 448 -69 566 -119 q 245 66 330 -19 q 110 269 160 151 m 277 932 q 191 846 277 932 q 104 515 104 760 q 277 98 104 271 q 694 -75 450 -75 q 1112 98 939 -75 q 1284 515 1284 270 q 1112 933 1284 761 q 694 1105 939 1105 q 277 932 450 1105 m 286 728 l 286 817 q 434 876 362 833 l 532 876 l 532 170 l 403 170 l 403 728 l 286 728 m 659 761 l 659 876 l 1074 876 l 1074 792 q 939 523 972 650 q 895 170 906 396 l 768 170 q 811 493 776 362 q 933 761 846 624 l 659 761 z "},"⑱":{"ha":1389,"x_min":60,"x_max":1329,"o":"m 110 269 q 85 328 110 269 q 60 515 60 387 q 110 762 60 644 q 245 964 160 879 q 448 1099 330 1048 q 694 1150 566 1150 q 941 1099 823 1150 q 1144 964 1059 1048 q 1279 762 1229 879 q 1329 515 1329 644 q 1278 267 1329 385 q 1143 65 1227 149 q 941 -69 1058 -19 q 694 -119 823 -119 q 448 -69 566 -119 q 245 66 330 -19 q 110 269 160 151 m 277 932 q 191 846 277 932 q 104 515 104 760 q 277 98 104 270 q 694 -75 450 -75 q 1112 98 939 -75 q 1284 515 1284 270 q 1112 933 1284 761 q 694 1105 939 1105 q 277 932 449 1105 m 282 728 l 282 817 q 431 876 362 833 l 529 876 l 529 170 l 400 170 l 400 728 l 282 728 m 662 345 q 773 530 662 461 l 773 534 q 686 697 686 605 q 741 841 686 789 q 881 892 795 892 q 1020 840 967 892 q 1073 697 1073 788 q 990 537 1073 606 l 990 533 q 1100 350 1100 463 q 1038 210 1100 266 q 882 153 977 153 q 724 208 787 153 q 662 345 662 262 m 842 496 q 777 376 777 437 q 808 283 777 315 q 884 251 838 251 q 956 278 929 251 q 982 355 982 305 q 950 433 982 404 q 842 496 918 461 m 821 772 q 810 760 821 772 q 799 701 799 747 q 829 625 799 654 q 918 570 860 595 q 966 682 966 624 q 942 768 966 739 q 880 796 918 796 q 821 772 842 796 z "},"⑲":{"ha":1389,"x_min":60,"x_max":1329,"o":"m 110 269 q 85 328 110 269 q 60 515 60 387 q 110 762 60 644 q 245 964 160 879 q 448 1099 330 1048 q 694 1150 566 1150 q 941 1099 823 1150 q 1279 762 1179 998 q 1329 515 1329 646 q 1278 267 1329 385 q 1143 65 1227 149 q 941 -69 1058 -19 q 694 -119 823 -119 q 448 -69 566 -119 q 245 66 330 -19 q 110 269 160 151 m 277 932 q 191 846 277 932 q 104 515 104 760 q 277 98 104 271 q 694 -75 450 -75 q 1112 98 939 -75 q 1284 515 1284 270 q 1112 933 1284 761 q 694 1105 939 1105 q 277 932 450 1105 m 282 728 l 282 817 q 430 876 357 833 l 528 876 l 528 170 l 399 170 l 399 728 l 282 728 m 709 493 q 685 521 709 493 q 661 656 661 549 q 718 828 661 764 q 868 892 776 892 q 1025 804 960 892 q 1090 532 1090 716 q 1020 250 1090 347 q 846 153 949 153 q 670 233 743 153 l 739 317 q 837 266 777 266 q 972 518 966 266 q 838 437 917 437 q 709 493 758 437 m 803 752 q 791 734 803 752 q 779 659 779 716 q 802 569 779 602 q 868 536 826 536 q 970 617 925 536 q 861 788 952 788 q 803 752 827 788 z "},"⑳":{"ha":1389,"x_min":60,"x_max":1329,"o":"m 110 269 q 85 328 110 269 q 60 515 60 387 q 110 762 60 644 q 245 964 160 879 q 448 1099 330 1048 q 694 1150 566 1150 q 941 1099 823 1150 q 1144 964 1059 1048 q 1279 762 1229 879 q 1329 515 1329 644 q 1278 267 1329 385 q 1143 65 1227 149 q 941 -69 1058 -19 q 694 -119 823 -119 q 448 -69 566 -119 q 245 66 330 -19 q 110 269 160 151 m 277 932 q 191 846 277 932 q 104 515 104 760 q 277 98 104 270 q 694 -75 450 -75 q 1112 98 939 -75 q 1284 515 1284 270 q 1112 933 1284 761 q 694 1105 939 1105 q 277 932 449 1105 m 278 789 q 476 892 365 892 q 616 833 563 892 q 670 680 670 773 q 614 496 670 586 q 460 279 559 407 q 567 286 515 286 l 692 286 l 692 170 l 288 170 l 288 250 q 487 503 427 412 q 547 665 547 593 q 457 784 547 784 q 350 716 406 784 l 278 789 m 774 254 q 743 305 774 254 q 712 526 712 355 q 773 795 712 697 q 935 892 834 892 q 1097 795 1036 892 q 1158 526 1158 697 q 1097 254 1158 355 q 936 153 1036 153 q 774 254 836 153 m 937 783 q 891 783 937 783 q 845 524 845 783 q 937 264 845 264 q 1028 524 1028 264 q 937 783 1028 783 z "},"─":{"ha":1389,"x_min":0,"x_max":1389,"o":"m 0 500 l 0 556 l 1389 556 l 1389 500 l 0 500 z "},"━":{"ha":1389,"x_min":0,"x_max":1389,"o":"m 0 445 l 0 612 l 1389 612 l 1389 445 l 0 445 z "},"│":{"ha":1389,"x_min":667,"x_max":722,"o":"m 667 -167 l 667 1222 l 722 1222 l 722 -167 l 667 -167 z "},"┃":{"ha":1389,"x_min":612,"x_max":777,"o":"m 612 -167 l 612 1222 l 777 1222 l 777 -167 l 612 -167 z "},"┌":{"ha":1389,"x_min":667,"x_max":1389,"o":"m 667 -167 l 667 556 l 1389 556 l 1389 500 l 722 500 l 722 -167 l 667 -167 z "},"┏":{"ha":1389,"x_min":612,"x_max":1389,"o":"m 612 -167 l 612 612 l 1389 612 l 1389 445 l 777 445 l 777 -167 l 612 -167 z "},"┐":{"ha":1389,"x_min":0,"x_max":722,"o":"m 0 500 l 0 556 l 722 556 l 722 -167 l 667 -167 l 667 500 l 0 500 z "},"┓":{"ha":1389,"x_min":0,"x_max":777,"o":"m 0 445 l 0 612 l 777 612 l 777 -167 l 612 -167 l 612 445 l 0 445 z "},"└":{"ha":1389,"x_min":667,"x_max":1389,"o":"m 667 500 l 667 1222 l 722 1222 l 722 556 l 1389 556 l 1389 500 l 667 500 z "},"┗":{"ha":1389,"x_min":612,"x_max":1389,"o":"m 612 445 l 612 1222 l 777 1222 l 777 612 l 1389 612 l 1389 445 l 612 445 z "},"┘":{"ha":1389,"x_min":0,"x_max":722,"o":"m 0 500 l 0 556 l 667 556 l 667 1222 l 722 1222 l 722 500 l 0 500 z "},"┛":{"ha":1389,"x_min":0,"x_max":777,"o":"m 0 445 l 0 612 l 612 612 l 612 1222 l 777 1222 l 777 445 l 0 445 z "},"├":{"ha":1389,"x_min":667,"x_max":1389,"o":"m 667 -167 l 667 1222 l 722 1222 l 722 556 l 1389 556 l 1389 500 l 722 500 l 722 -167 l 667 -167 z "},"┝":{"ha":1389,"x_min":667,"x_max":1389,"o":"m 667 -167 l 667 1222 l 722 1222 l 722 612 l 1389 612 l 1389 445 l 722 445 l 722 -167 l 667 -167 z "},"┠":{"ha":1389,"x_min":612,"x_max":1389,"o":"m 612 -167 l 612 1222 l 777 1222 l 777 556 l 1389 556 l 1389 500 l 777 500 l 777 -167 l 612 -167 z "},"┣":{"ha":1389,"x_min":612,"x_max":1389,"o":"m 612 -167 l 612 1222 l 777 1222 l 777 612 l 1389 612 l 1389 445 l 777 445 l 777 -167 l 612 -167 z "},"┤":{"ha":1389,"x_min":0,"x_max":722,"o":"m 0 500 l 0 556 l 667 556 l 667 1222 l 722 1222 l 722 -167 l 667 -167 l 667 500 l 0 500 z "},"┥":{"ha":1389,"x_min":0,"x_max":722,"o":"m 0 445 l 0 612 l 667 612 l 667 1222 l 722 1222 l 722 -167 l 667 -167 l 667 445 l 0 445 z "},"┨":{"ha":1389,"x_min":0,"x_max":777,"o":"m 0 500 l 0 556 l 612 556 l 612 1222 l 777 1222 l 777 -167 l 612 -167 l 612 500 l 0 500 z "},"┫":{"ha":1389,"x_min":0,"x_max":777,"o":"m 0 445 l 0 612 l 612 612 l 612 1222 l 777 1222 l 777 -167 l 612 -167 l 612 445 l 0 445 z "},"┬":{"ha":1389,"x_min":0,"x_max":1389,"o":"m 0 500 l 0 556 l 1389 556 l 1389 500 l 722 500 l 722 -167 l 667 -167 l 667 500 l 0 500 z "},"┯":{"ha":1389,"x_min":0,"x_max":1389,"o":"m 0 445 l 0 612 l 1389 612 l 1389 445 l 722 445 l 722 -167 l 667 -167 l 667 445 l 0 445 z "},"┰":{"ha":1389,"x_min":0,"x_max":1389,"o":"m 0 500 l 0 556 l 1389 556 l 1389 500 l 777 500 l 777 -167 l 612 -167 l 612 500 l 0 500 z "},"┳":{"ha":1389,"x_min":0,"x_max":1389,"o":"m 0 445 l 0 612 l 1389 612 l 1389 445 l 777 445 l 777 -167 l 612 -167 l 612 445 l 0 445 z "},"┴":{"ha":1389,"x_min":0,"x_max":1389,"o":"m 0 500 l 0 556 l 667 556 l 667 1222 l 722 1222 l 722 556 l 1389 556 l 1389 500 l 0 500 z "},"┷":{"ha":1389,"x_min":0,"x_max":1389,"o":"m 0 445 l 0 612 l 667 612 l 667 1222 l 722 1222 l 722 612 l 1389 612 l 1389 445 l 0 445 z "},"┸":{"ha":1389,"x_min":0,"x_max":1389,"o":"m 0 500 l 0 556 l 612 556 l 612 1222 l 777 1222 l 777 556 l 1389 556 l 1389 500 l 0 500 z "},"┻":{"ha":1389,"x_min":0,"x_max":1389,"o":"m 0 445 l 0 612 l 612 612 l 612 1222 l 777 1222 l 777 612 l 1389 612 l 1389 445 l 0 445 z "},"┼":{"ha":1389,"x_min":0,"x_max":1389,"o":"m 0 500 l 0 556 l 667 556 l 667 1222 l 722 1222 l 722 556 l 1389 556 l 1389 500 l 722 500 l 722 -167 l 667 -167 l 667 500 l 0 500 z "},"┿":{"ha":1389,"x_min":0,"x_max":1389,"o":"m 0 445 l 0 612 l 667 612 l 667 1222 l 722 1222 l 722 612 l 1389 612 l 1389 445 l 722 445 l 722 -167 l 667 -167 l 667 445 l 0 445 z "},"╂":{"ha":1389,"x_min":0,"x_max":1389,"o":"m 0 500 l 0 556 l 612 556 l 612 1222 l 777 1222 l 777 556 l 1389 556 l 1389 500 l 777 500 l 777 -167 l 612 -167 l 612 500 l 0 500 z "},"╋":{"ha":1389,"x_min":0,"x_max":1389,"o":"m 0 445 l 0 612 l 612 612 l 612 1222 l 777 1222 l 777 612 l 1389 612 l 1389 445 l 777 445 l 777 -167 l 612 -167 l 612 445 l 0 445 z "},"■":{"ha":1389,"x_min":138,"x_max":1251,"o":"m 138 -27 l 138 1084 l 1251 1084 l 1251 -27 l 138 -27 z "},"□":{"ha":1389,"x_min":152,"x_max":1237,"o":"m 152 -27 l 152 1058 l 1237 1058 l 1237 -27 l 152 -27 m 206 27 l 1183 27 l 1183 1004 l 206 1004 l 206 27 z "},"▲":{"ha":1389,"x_min":57,"x_max":1332,"o":"m 57 16 l 694 1120 l 1332 16 l 57 16 z "},"△":{"ha":1389,"x_min":57,"x_max":1332,"o":"m 57 16 l 694 1120 l 1332 16 l 57 16 m 151 71 l 1238 71 l 694 1012 l 151 71 z "},"▼":{"ha":1389,"x_min":57,"x_max":1332,"o":"m 57 1015 l 1332 1015 l 694 -90 l 57 1015 z "},"▽":{"ha":1389,"x_min":57,"x_max":1332,"o":"m 57 1015 l 1332 1015 l 694 -90 l 57 1015 m 151 960 l 694 19 l 1238 960 l 151 960 z "},"◆":{"ha":1389,"x_min":33,"x_max":1356,"o":"m 33 515 l 694 1177 l 1356 515 l 694 -146 l 33 515 z "},"◇":{"ha":1389,"x_min":33,"x_max":1356,"o":"m 33 515 l 694 1177 l 1356 515 l 694 -146 l 33 515 m 110 515 l 694 -69 l 1279 515 l 694 1100 l 110 515 z "},"○":{"ha":1389,"x_min":84,"x_max":1305,"o":"m 263 84 q 174 174 263 84 q 84 515 84 263 q 263 947 84 768 q 694 1126 442 1126 q 1126 947 947 1126 q 1305 515 1305 768 q 1126 84 1305 263 q 694 -95 947 -95 q 263 84 442 -95 m 301 909 q 220 827 301 909 q 138 515 138 746 q 301 122 138 285 q 694 -41 464 -41 q 1088 122 925 -41 q 1251 515 1251 285 q 1088 909 1251 746 q 694 1072 925 1072 q 301 909 464 1072 z "},"◎":{"ha":1389,"x_min":84,"x_max":1305,"o":"m 263 84 q 174 174 263 84 q 84 515 84 263 q 263 947 84 768 q 694 1126 442 1126 q 1126 947 947 1126 q 1305 515 1305 768 q 1126 84 1305 263 q 694 -95 947 -95 q 263 84 442 -95 m 301 909 q 220 827 301 909 q 138 515 138 746 q 301 122 138 285 q 694 -41 464 -41 q 1088 122 925 -41 q 1251 515 1251 285 q 1088 909 1251 746 q 694 1072 925 1072 q 301 909 464 1072 m 412 233 q 353 292 412 233 q 294 515 294 351 q 412 798 294 680 q 694 916 530 916 q 977 798 859 916 q 1095 515 1095 680 q 977 233 1095 351 q 694 115 859 115 q 412 233 530 115 m 445 765 q 393 713 445 765 q 340 515 340 661 q 445 266 340 370 q 694 161 549 161 q 944 266 840 161 q 1048 515 1048 370 q 944 765 1048 661 q 694 869 840 869 q 445 765 549 869 z "},"●":{"ha":1389,"x_min":84,"x_max":1305,"o":"m 263 84 q 174 174 263 84 q 84 515 84 263 q 263 947 84 768 q 694 1126 442 1126 q 1126 947 947 1126 q 1305 515 1305 768 q 1126 84 1305 263 q 694 -95 947 -95 q 263 84 442 -95 z "},"★":{"ha":1389,"x_min":53,"x_max":1336,"o":"m 53 667 l 53 674 l 476 768 l 692 1141 l 697 1141 l 913 768 l 1336 674 l 1336 667 l 1044 359 l 1099 -85 l 1093 -90 l 694 107 l 296 -90 l 290 -85 l 345 359 l 53 667 z "},"☆":{"ha":1389,"x_min":52,"x_max":1337,"o":"m 52 661 l 54 674 l 476 768 l 688 1141 l 701 1141 l 913 768 l 1335 674 l 1337 661 l 1044 359 l 1101 -83 l 1092 -91 l 694 107 l 297 -91 l 288 -83 l 345 359 l 52 661 m 292 594 l 486 407 l 444 119 l 694 255 l 945 119 l 903 407 l 1097 594 l 827 652 l 694 891 l 564 652 l 292 594 z "},"♀":{"ha":1389,"x_min":343,"x_max":1046,"o":"m 343 716 q 389 890 343 811 q 515 1018 435 968 q 692 1067 594 1067 q 868 1021 789 1067 q 996 896 947 975 q 1046 704 1046 817 q 970 496 1046 591 q 773 374 894 401 l 773 247 l 860 247 q 881 239 872 247 q 890 218 890 231 l 890 121 q 881 100 890 109 q 860 91 872 91 l 773 91 l 773 3 q 764 -18 773 -9 q 743 -26 755 -26 l 646 -26 q 625 -18 633 -26 q 616 3 616 -9 l 616 91 l 529 91 q 508 100 517 91 q 499 121 499 109 l 499 218 q 508 239 499 231 q 529 247 517 247 l 616 247 l 616 374 q 419 496 495 401 q 343 716 343 591 m 557 854 q 528 825 557 854 q 499 716 499 796 q 557 578 499 636 q 694 521 614 521 q 832 578 774 521 q 890 716 890 636 q 832 854 890 796 q 694 911 774 911 q 557 854 614 911 z "},"♂":{"ha":1389,"x_min":225,"x_max":1164,"o":"m 275 224 q 250 264 275 224 q 226 401 225 304 q 273 578 227 499 q 398 706 319 656 q 578 755 477 755 q 765 701 678 755 l 960 899 l 920 941 q 915 972 906 955 q 941 990 924 990 l 1134 990 q 1155 981 1146 990 q 1164 960 1164 972 l 1164 768 q 1146 741 1164 749 q 1115 747 1128 732 l 1073 787 l 875 591 q 929 407 929 505 q 882 231 929 309 q 756 102 836 152 q 580 52 677 52 q 404 99 483 53 q 275 224 326 145 m 440 542 q 411 513 440 542 q 382 404 382 484 q 440 267 382 324 q 578 209 498 209 q 715 267 658 209 q 773 404 773 324 q 715 542 773 484 q 578 600 658 600 q 440 542 498 600 z "},"♪":{"ha":1389,"x_min":355,"x_max":1042,"o":"m 355 -8 q 430 122 355 65 q 590 179 505 179 q 675 161 646 179 l 675 1139 l 709 1139 q 867 841 709 979 q 1042 540 1042 689 q 928 205 1042 391 l 892 205 q 977 494 977 380 q 905 694 977 609 q 730 803 833 780 l 730 122 q 656 -43 730 22 q 481 -109 583 -109 q 393 -81 431 -109 q 355 -8 355 -54 z "},"♭":{"ha":1389,"x_min":486,"x_max":1024,"o":"m 486 -83 l 486 1115 l 540 1115 l 540 448 q 661 584 586 529 q 825 639 736 639 q 969 589 914 639 q 1024 461 1024 540 q 891 213 1024 315 q 765 125 825 163 q 498 -83 579 11 l 486 -83 m 540 15 q 757 217 593 71 q 833 316 800 256 q 867 437 867 376 q 760 555 867 555 q 648 508 709 555 q 540 376 587 461 l 540 15 z "},"♯":{"ha":1389,"x_min":340,"x_max":1042,"o":"m 340 201 l 340 332 l 525 359 l 525 636 l 340 608 l 340 739 l 525 766 l 525 1074 l 578 1074 l 578 774 l 804 807 l 804 1116 l 859 1116 l 859 815 l 1042 842 l 1042 712 l 859 685 l 859 408 l 1042 435 l 1042 305 l 859 278 l 859 -43 l 804 -43 l 804 270 l 578 236 l 578 -84 l 525 -84 l 525 228 l 340 201 m 578 368 l 804 400 l 804 677 l 578 644 l 578 368 z "},"　":{"ha":1389,"x_min":0,"x_max":0,"o":""},"、":{"ha":694,"x_min":65,"x_max":433,"o":"m 65 227 q 81 241 65 241 l 84 241 q 404 72 323 197 q 433 -14 433 31 q 409 -84 433 -60 q 346 -109 385 -109 q 258 -47 286 -109 q 233 5 255 -45 q 193 79 210 54 l 171 111 q 77 212 141 156 q 65 227 65 222 z "},"。":{"ha":694,"x_min":72,"x_max":456,"o":"m 128 -56 q 100 -28 128 -56 q 72 79 72 0 q 128 215 72 159 q 264 271 184 271 q 400 216 345 271 q 456 80 456 160 q 399 -56 456 0 q 264 -113 343 -113 q 128 -56 184 -113 m 173 170 q 154 152 173 170 q 136 80 136 133 q 173 -11 136 27 q 264 -49 210 -49 q 355 -11 317 -49 q 392 80 392 27 q 355 170 392 133 q 264 208 317 208 q 173 170 210 208 z "},"〃":{"ha":1389,"x_min":232,"x_max":1073,"o":"m 232 197 l 236 205 q 427 467 327 279 q 526 746 526 654 q 492 779 526 768 q 458 798 458 791 q 484 823 458 810 q 537 836 510 836 q 661 789 597 836 q 726 716 726 743 q 702 677 726 700 q 674 646 678 654 q 582 498 632 570 q 440 335 532 426 q 250 191 349 244 q 241 189 245 189 q 232 197 232 189 m 579 190 l 583 198 q 774 465 674 271 q 873 753 873 659 q 840 786 873 774 q 806 804 806 798 q 831 829 806 817 q 884 842 857 842 q 1008 796 944 842 q 1073 723 1073 750 q 1051 683 1073 707 q 1025 652 1029 659 q 932 500 982 574 q 789 332 882 427 q 597 184 696 237 q 589 182 593 182 q 579 190 579 182 z "},"々":{"ha":1237,"x_min":81,"x_max":1090,"o":"m 88 185 q 85 188 88 185 q 81 197 81 191 q 87 209 81 203 q 526 861 411 560 q 530 886 530 873 q 442 962 530 916 q 434 972 434 966 q 503 991 434 991 q 614 969 571 991 q 697 909 658 947 q 736 850 736 872 q 709 804 736 829 q 675 772 681 780 q 589 650 639 719 q 826 673 726 654 q 873 698 846 677 q 914 719 901 719 q 1023 654 955 719 q 1090 552 1090 589 q 1073 521 1090 534 q 1029 494 1055 507 q 985 465 1002 481 q 891 376 967 449 q 735 233 815 304 q 844 138 791 195 q 897 35 897 81 q 876 -38 897 -11 q 814 -65 854 -65 q 755 -46 774 -65 q 696 43 735 -27 q 423 339 618 182 q 418 350 418 345 q 438 366 418 366 l 442 366 q 669 275 564 334 q 856 559 783 419 q 860 571 860 567 q 840 585 860 585 q 617 553 703 578 q 582 547 595 547 q 534 581 568 547 q 448 477 494 529 q 111 182 260 274 q 100 179 106 179 q 88 185 95 179 z "},"〆":{"ha":1370,"x_min":134,"x_max":1211,"o":"m 157 -64 q 145 -44 157 -64 q 134 11 134 -24 q 156 77 134 46 q 208 190 197 134 q 239 414 218 245 q 270 647 259 583 q 404 768 289 768 q 488 755 437 768 q 718 655 600 726 q 979 944 949 903 q 1008 1004 1008 985 q 985 1049 1008 1023 q 932 1096 962 1076 q 926 1105 926 1100 q 939 1119 926 1119 q 1074 1095 1028 1119 q 1153 1036 1120 1072 q 1211 924 1211 971 q 1154 868 1211 891 q 1025 789 1096 845 q 810 593 955 734 q 1027 395 959 490 q 1089 245 1089 315 q 1069 183 1089 206 q 1023 160 1050 160 q 943 209 979 160 q 703 483 831 361 q 334 19 465 221 q 266 -75 293 -45 q 209 -104 239 -104 q 157 -64 179 -104 m 305 304 q 320 236 305 236 q 350 256 330 236 q 468 385 369 277 q 624 555 567 494 q 448 675 526 639 q 377 697 404 697 q 323 637 331 697 q 305 304 305 526 z "},"〇":{"ha":1389,"x_min":73,"x_max":1316,"o":"m 157 204 q 115 276 157 204 q 73 515 73 347 q 157 827 73 684 q 383 1053 240 970 q 694 1137 526 1137 q 1006 1053 863 1137 q 1232 827 1149 970 q 1316 515 1316 684 q 1232 204 1316 347 q 1006 -22 1149 61 q 694 -106 863 -106 q 383 -22 526 -106 q 157 204 240 61 m 301 909 q 220 827 301 909 q 138 515 138 746 q 301 122 138 285 q 694 -41 464 -41 q 1088 122 925 -41 q 1251 515 1251 285 q 1088 909 1251 746 q 694 1072 925 1072 q 301 909 464 1072 z "},"〈":{"ha":694,"x_min":114,"x_max":623,"o":"m 114 528 l 524 1176 l 623 1133 l 239 528 l 623 -76 l 524 -121 l 114 528 z "},"〉":{"ha":694,"x_min":72,"x_max":581,"o":"m 72 -76 l 456 528 l 72 1133 l 171 1176 l 581 528 l 171 -121 l 72 -76 z "},"《":{"ha":694,"x_min":38,"x_max":647,"o":"m 38 528 l 340 1176 l 423 1150 l 132 528 l 423 -95 l 340 -121 l 38 528 m 262 528 l 563 1176 l 647 1150 l 355 528 l 647 -95 l 563 -121 l 262 528 z "},"》":{"ha":694,"x_min":47,"x_max":656,"o":"m 47 -95 l 339 528 l 47 1150 l 132 1176 l 433 528 l 132 -121 l 47 -95 m 271 -95 l 563 528 l 271 1150 l 354 1176 l 656 528 l 354 -121 l 271 -95 z "},"「":{"ha":694,"x_min":208,"x_max":654,"o":"m 208 22 l 208 1181 l 654 1181 l 654 1073 l 330 1073 l 330 22 l 208 22 z "},"」":{"ha":694,"x_min":41,"x_max":487,"o":"m 41 -18 l 365 -18 l 365 1034 l 487 1034 l 487 -126 l 41 -126 l 41 -18 z "},"『":{"ha":694,"x_min":163,"x_max":639,"o":"m 163 8 l 163 1154 l 639 1154 l 639 956 l 366 956 l 366 8 l 163 8 m 201 46 l 328 46 l 328 994 l 601 994 l 601 1116 l 201 1116 l 201 46 z "},"』":{"ha":694,"x_min":56,"x_max":532,"o":"m 56 75 l 328 75 l 328 1023 l 532 1023 l 532 -123 l 56 -123 l 56 75 m 94 37 l 94 -85 l 494 -85 l 494 985 l 366 985 l 366 37 l 94 37 z "},"【":{"ha":694,"x_min":222,"x_max":635,"o":"m 222 -119 l 222 1150 l 635 1150 l 635 1143 q 441 878 517 1044 q 366 515 366 711 q 441 153 366 320 q 635 -113 517 -14 l 635 -119 l 222 -119 z "},"】":{"ha":694,"x_min":60,"x_max":472,"o":"m 60 -113 q 254 153 179 -14 q 328 515 328 319 q 253 878 328 711 q 60 1143 178 1044 l 60 1150 l 472 1150 l 472 -119 l 60 -119 l 60 -113 z "},"〒":{"ha":1199,"x_min":145,"x_max":1054,"o":"m 145 563 l 145 686 l 1054 686 l 1054 563 l 667 563 l 667 14 l 532 14 l 532 563 l 145 563 m 145 854 l 145 978 l 1054 978 l 1054 854 l 145 854 z "},"〓":{"ha":1389,"x_min":152,"x_max":1237,"o":"m 152 -27 l 152 380 l 1237 380 l 1237 -27 l 152 -27 m 152 651 l 152 1058 l 1237 1058 l 1237 651 l 152 651 z "},"〔":{"ha":694,"x_min":289,"x_max":644,"o":"m 289 60 l 289 996 l 594 1194 l 644 1112 l 399 956 l 399 100 l 644 -57 l 594 -137 l 289 60 z "},"〕":{"ha":694,"x_min":50,"x_max":406,"o":"m 50 -57 l 296 100 l 296 956 l 50 1112 l 100 1194 l 406 996 l 406 60 l 100 -137 l 50 -57 z "},"〝":{"ha":694,"x_min":83,"x_max":655,"o":"m 92 1082 q 83 1119 83 1097 q 119 1164 83 1141 q 186 1188 155 1188 q 229 1160 217 1188 q 369 793 254 1103 l 369 789 q 358 776 369 783 q 341 769 347 769 q 331 773 335 769 q 104 1063 141 1009 l 92 1082 m 378 1082 q 369 1119 369 1097 q 405 1164 369 1141 q 472 1188 441 1188 q 515 1160 503 1188 q 655 793 540 1103 l 655 789 q 644 776 655 783 q 627 769 633 769 q 617 773 621 769 q 391 1063 427 1009 l 378 1082 z "},"〟":{"ha":694,"x_min":38,"x_max":610,"o":"m 38 263 l 38 267 q 49 281 38 274 q 66 289 60 289 q 76 285 72 289 q 250 62 225 94 q 290 9 274 30 q 315 -25 305 -11 q 324 -54 324 -39 q 288 -107 324 -83 q 220 -132 252 -132 q 174 -95 189 -132 q 38 263 127 15 m 323 263 l 323 267 q 334 281 323 274 q 351 289 345 289 q 361 285 357 289 q 603 -26 595 -14 q 610 -54 610 -39 q 574 -107 610 -83 q 507 -132 538 -132 q 458 -95 475 -132 q 323 263 404 38 z "},"ぁ":{"ha":1240,"x_min":202,"x_max":1048,"o":"m 202 103 q 281 296 202 199 q 471 445 359 392 q 481 548 475 490 q 431 547 464 547 q 247 666 273 547 q 258 680 247 680 l 264 677 q 407 646 301 646 q 495 650 456 646 q 500 724 500 689 q 468 786 500 783 q 435 804 435 789 q 459 833 435 819 q 505 846 483 846 q 594 820 557 846 q 631 768 631 793 q 618 717 631 743 q 600 665 605 690 q 711 707 669 677 q 782 736 753 736 q 838 722 811 736 q 865 682 865 708 q 789 614 865 642 q 585 562 713 587 q 574 481 581 537 q 663 498 601 488 l 659 537 q 670 548 659 548 q 693 534 681 548 q 712 502 705 519 l 738 503 q 958 432 868 503 q 1048 235 1048 361 q 1015 98 1048 157 q 933 4 982 38 q 793 -58 884 -30 q 575 -87 701 -87 q 563 -75 563 -87 l 570 -64 q 828 58 738 -30 q 918 237 918 145 q 863 378 918 330 q 722 429 808 426 q 597 149 718 297 q 608 124 600 141 q 616 87 616 107 q 597 49 616 68 q 552 30 579 30 q 506 58 525 30 q 315 -18 408 -18 q 233 15 264 -18 q 202 103 202 47 m 361 255 q 339 223 361 255 q 317 146 317 191 q 342 100 317 100 q 469 159 395 100 q 460 264 460 208 l 464 358 q 361 255 404 319 m 568 404 q 560 302 560 336 q 563 252 560 267 q 655 423 632 342 q 568 404 601 416 z "},"あ":{"ha":1350,"x_min":148,"x_max":1217,"o":"m 148 156 q 248 399 148 277 q 492 589 349 522 q 509 736 498 648 q 434 734 468 734 q 284 765 345 734 q 206 880 224 796 l 206 882 q 212 887 206 887 l 214 886 q 401 844 263 844 q 522 849 475 844 q 530 959 530 909 q 510 1026 530 1009 q 469 1046 490 1043 q 448 1059 448 1050 q 475 1084 448 1067 q 528 1100 503 1100 q 637 1069 593 1100 q 681 1002 681 1038 q 665 946 681 981 q 639 865 648 911 q 812 935 732 878 q 884 960 849 960 q 949 943 918 960 q 981 899 981 926 q 883 819 981 854 q 623 751 785 784 q 606 629 612 699 q 739 655 659 646 l 734 713 q 742 719 734 719 q 766 701 750 719 q 787 659 781 682 q 826 661 800 661 q 1103 572 990 661 q 1217 326 1217 483 q 1175 153 1217 228 q 1072 37 1134 79 q 926 -33 1010 -5 q 618 -77 787 -77 q 610 -71 610 -77 l 613 -66 q 949 92 831 -23 q 1066 340 1066 206 q 991 517 1066 453 q 798 582 916 582 q 754 404 798 502 q 636 217 711 307 q 650 186 639 209 q 661 138 661 163 q 640 93 661 114 q 587 72 620 72 q 532 113 555 72 q 283 11 406 11 q 185 49 222 11 q 148 156 148 87 m 340 363 q 309 320 340 363 q 278 210 278 277 q 319 144 278 144 q 492 225 391 144 q 480 353 480 283 q 486 499 480 423 q 340 363 401 450 m 601 548 q 591 410 591 469 q 597 327 591 350 q 732 578 704 457 q 601 548 647 568 z "},"ぃ":{"ha":1263,"x_min":191,"x_max":1078,"o":"m 191 684 q 244 707 191 707 q 340 666 297 707 q 384 582 384 625 q 367 491 384 556 q 350 353 350 426 q 368 233 350 281 q 406 166 387 184 q 438 146 425 148 q 491 232 448 146 q 552 347 534 317 q 562 353 555 353 q 575 335 572 353 q 538 145 538 165 q 546 102 538 125 q 553 48 553 80 q 536 -1 553 16 q 492 -18 518 -18 q 313 94 381 -18 q 245 387 245 205 l 248 506 q 239 592 248 557 q 220 637 231 627 q 191 684 191 667 m 746 567 q 788 590 746 590 q 985 492 892 590 q 1078 271 1078 395 q 1004 167 1078 167 q 948 193 962 167 q 928 280 935 220 q 902 388 921 340 q 853 474 883 435 q 800 526 823 513 q 746 567 746 559 z "},"い":{"ha":1370,"x_min":118,"x_max":1238,"o":"m 130 906 q 124 913 130 906 q 118 929 118 920 q 138 945 118 939 q 182 951 157 951 q 294 901 240 951 q 349 800 349 852 q 326 685 349 770 q 304 515 304 600 q 350 297 304 361 q 427 233 396 233 q 461 273 438 233 q 522 385 484 313 q 581 494 559 457 q 587 496 582 496 q 593 487 593 496 l 593 486 q 567 368 589 464 q 545 241 545 273 q 555 182 545 210 q 566 116 566 153 q 546 59 566 79 q 496 39 526 39 q 273 179 358 39 q 189 549 189 319 l 191 703 q 180 815 191 769 q 155 877 168 861 q 130 906 141 892 m 829 780 q 875 802 829 802 q 1121 678 1004 802 q 1238 401 1238 555 q 1220 309 1238 342 q 1157 275 1202 275 q 1073 353 1080 275 q 1036 537 1062 472 q 979 648 1009 602 q 923 715 948 693 q 876 750 898 736 q 841 770 853 764 q 829 780 829 776 z "},"ぅ":{"ha":1123,"x_min":245,"x_max":859,"o":"m 277 379 q 261 398 277 379 q 245 455 245 416 q 253 508 245 494 q 267 522 260 522 l 279 515 q 326 488 300 488 q 396 510 353 488 q 632 576 532 576 q 795 509 732 576 q 859 317 859 442 q 731 16 859 127 q 388 -106 604 -95 q 374 -92 374 -106 q 382 -81 374 -84 q 634 78 544 -31 q 724 355 724 187 q 608 494 724 494 q 526 471 563 494 q 445 410 488 448 q 385 357 401 372 q 350 342 369 342 q 277 379 308 342 m 355 838 q 366 852 355 852 l 374 849 q 493 804 418 825 q 631 783 568 784 q 747 707 747 780 q 677 659 747 659 l 604 662 q 426 627 543 662 l 388 614 q 374 625 374 614 q 385 638 374 629 q 483 701 395 647 q 398 763 441 720 q 355 838 355 806 z "},"う":{"ha":1184,"x_min":210,"x_max":978,"o":"m 248 528 q 229 550 248 528 q 210 616 210 572 q 224 693 210 659 q 229 697 227 697 l 237 692 q 304 654 269 654 q 397 682 340 654 q 694 766 567 766 q 900 683 822 766 q 978 442 978 600 q 817 63 978 203 q 382 -91 655 -77 q 374 -84 374 -91 q 380 -76 374 -77 q 706 131 589 -11 q 823 491 823 273 q 781 632 823 586 q 673 678 739 678 q 555 647 606 678 q 400 522 505 616 q 384 507 389 513 q 335 483 359 483 q 248 528 285 483 m 351 1111 q 357 1119 351 1119 l 361 1118 q 515 1058 418 1084 q 694 1031 613 1032 q 836 943 836 1028 q 754 890 836 890 l 661 894 q 384 833 562 894 q 376 836 376 833 q 378 842 376 840 q 514 930 419 873 q 517 935 517 932 q 513 941 517 939 q 417 1007 469 958 q 351 1111 365 1057 z "},"ぇ":{"ha":1179,"x_min":222,"x_max":1008,"o":"m 222 22 q 262 100 224 71 q 413 243 328 151 q 635 494 498 336 q 531 457 601 484 q 437 415 461 430 q 389 400 414 400 q 314 441 346 400 q 282 529 282 483 q 300 575 282 575 l 309 570 q 382 534 335 534 q 543 562 429 534 q 678 605 656 590 q 727 620 700 620 q 790 589 754 620 q 826 538 826 559 q 806 502 826 518 q 591 296 722 434 q 670 267 647 296 q 693 170 693 239 q 709 79 693 102 q 791 56 724 56 q 865 67 822 56 q 933 79 907 79 q 983 56 959 79 q 1008 0 1008 33 q 806 -72 1008 -72 q 634 -20 678 -72 q 590 172 590 31 q 574 214 590 214 q 498 164 543 214 q 338 -42 404 62 q 292 -68 321 -68 q 243 -47 263 -68 q 222 22 222 -27 m 418 669 q 422 678 418 674 q 506 734 467 709 q 452 796 473 760 q 430 848 430 833 q 439 863 430 863 l 449 860 q 663 788 529 815 q 722 755 699 780 q 745 703 745 730 q 688 658 745 658 q 633 665 669 658 q 561 671 598 671 q 494 668 524 671 q 448 661 464 665 q 430 658 431 658 q 418 669 418 658 z "},"え":{"ha":1283,"x_min":168,"x_max":1157,"o":"m 168 46 q 182 101 168 73 q 218 145 197 129 q 422 340 302 209 q 580 519 465 388 q 709 666 694 651 q 699 667 709 667 q 577 625 688 667 q 436 563 467 582 q 373 544 406 544 q 283 593 321 544 q 244 696 244 643 q 258 750 244 750 l 263 746 q 362 699 297 699 q 572 733 427 699 q 745 787 718 768 q 804 807 772 807 q 880 770 837 807 q 924 705 924 734 q 901 671 924 690 q 610 389 804 595 l 610 388 q 652 392 627 392 q 754 244 754 392 q 777 118 754 152 q 887 84 800 84 q 984 99 929 84 q 1069 114 1039 114 q 1128 86 1099 114 q 1157 26 1157 58 q 1057 -52 1157 -38 q 887 -62 978 -62 q 690 3 741 -62 q 639 243 639 69 q 610 305 639 305 q 513 245 567 304 q 397 107 460 187 q 300 -27 334 27 q 250 -57 278 -57 q 168 46 168 -57 m 418 879 l 420 884 q 526 954 486 929 q 532 962 532 956 l 528 968 q 434 1109 452 1029 q 437 1119 434 1119 l 500 1089 q 720 1024 585 1053 q 793 984 766 1015 q 821 922 821 954 q 755 873 821 873 q 688 882 732 873 q 571 891 643 891 q 426 873 499 891 q 418 879 418 873 z "},"ぉ":{"ha":1282,"x_min":179,"x_max":1112,"o":"m 208 37 q 193 52 208 37 q 179 106 179 66 q 228 145 179 145 l 258 144 q 454 256 289 144 q 453 450 453 321 q 385 446 416 446 q 245 515 283 446 q 231 558 231 543 q 243 574 231 574 l 250 572 q 359 548 297 548 q 454 553 420 548 l 454 658 q 436 718 454 703 q 400 737 418 734 q 382 756 382 741 q 411 785 382 772 q 474 798 439 798 q 549 772 509 798 q 589 718 589 746 q 579 689 589 708 q 560 574 570 670 q 618 610 591 583 q 647 617 625 617 q 693 600 669 617 q 718 560 718 583 q 557 468 718 502 q 556 396 556 445 l 556 317 q 802 393 693 393 q 976 332 910 393 q 1042 169 1042 271 q 976 5 1042 66 q 817 -56 910 -56 q 669 -4 724 -56 q 614 125 614 47 q 628 141 614 141 q 637 134 635 141 q 768 50 678 50 q 876 88 841 50 q 910 185 910 126 q 869 279 910 244 q 751 313 829 313 q 559 229 673 313 q 560 157 559 182 l 568 24 q 542 -58 568 -16 q 474 -100 515 -100 q 415 -56 433 -100 q 332 34 397 -11 q 266 7 296 7 q 208 37 236 7 m 374 69 q 435 47 415 47 q 454 146 452 47 q 374 69 397 90 m 796 598 q 785 609 785 598 q 822 635 785 620 q 898 651 859 651 q 1049 606 986 651 q 1112 495 1112 560 q 1095 445 1112 463 q 1055 427 1078 427 q 1012 437 1031 427 q 972 448 993 448 q 931 445 952 448 q 896 439 910 442 q 880 437 882 437 q 863 446 863 437 q 910 488 863 456 q 958 526 958 521 q 940 547 958 532 q 884 579 922 563 q 796 598 845 595 z "},"お":{"ha":1434,"x_min":118,"x_max":1295,"o":"m 153 109 q 135 127 153 109 q 118 180 118 145 q 131 224 118 216 q 171 232 144 232 l 209 231 q 471 378 258 231 q 468 643 468 552 q 357 636 414 636 q 182 772 218 636 q 190 783 182 783 l 195 781 q 336 749 259 749 q 469 757 414 749 l 471 898 q 456 970 471 944 q 425 1000 442 996 q 393 1008 407 1005 q 378 1020 378 1012 q 412 1053 378 1038 q 487 1069 445 1069 q 577 1038 529 1069 q 625 975 625 1006 q 614 947 625 967 q 602 916 604 926 q 587 779 589 806 q 652 811 620 785 q 709 837 685 837 q 761 817 732 837 q 789 773 789 798 q 585 662 789 705 q 583 570 583 631 l 583 448 q 904 551 766 551 q 1124 475 1042 551 q 1206 271 1206 399 q 1124 67 1206 142 q 927 -8 1043 -8 q 743 56 811 -8 q 675 216 675 119 q 684 227 675 227 l 688 224 q 863 110 745 110 q 1008 162 960 110 q 1055 294 1055 214 q 1000 419 1055 373 q 842 465 945 465 q 586 353 739 465 q 587 304 587 336 q 589 256 587 273 l 600 87 q 567 -14 600 37 q 487 -65 534 -65 q 419 -15 439 -65 q 305 110 393 49 q 222 72 258 72 q 153 109 187 72 m 343 142 q 437 107 408 107 q 471 263 471 107 q 343 142 380 172 m 899 830 q 894 833 894 830 q 897 838 894 836 q 1044 880 945 880 q 1219 825 1142 880 q 1295 690 1295 770 q 1277 631 1295 651 q 1232 612 1259 612 q 1179 625 1204 612 q 1118 637 1154 637 q 1009 624 1082 637 q 994 627 994 624 q 1005 638 994 631 q 1065 681 1016 646 q 1114 730 1114 716 q 1090 764 1114 743 q 1015 806 1066 785 q 899 830 963 826 z "},"か":{"ha":1402,"x_min":125,"x_max":1297,"o":"m 161 614 q 143 639 161 614 q 125 702 125 663 q 142 741 125 741 q 152 736 148 741 q 239 701 189 701 q 457 736 258 701 q 498 924 498 880 q 479 983 498 968 q 444 1000 461 997 q 426 1015 426 1004 q 451 1044 426 1029 q 518 1058 476 1058 q 611 1023 560 1058 q 662 943 662 987 q 652 916 662 928 q 586 758 613 865 q 694 772 663 772 q 821 722 785 772 q 857 532 857 671 q 825 266 857 393 q 729 56 793 138 q 581 -26 665 -26 q 506 38 518 -26 q 490 84 500 65 q 463 133 480 103 q 431 189 445 163 q 434 195 431 195 l 438 194 q 503 156 457 179 q 572 133 549 133 q 661 220 621 133 q 720 413 701 308 q 738 599 738 518 q 681 680 738 680 q 556 655 648 680 q 351 178 460 385 q 270 39 294 69 q 215 9 245 9 q 165 38 184 9 q 146 105 146 66 q 182 180 146 144 q 308 365 241 244 q 422 620 374 486 q 287 581 316 595 q 240 566 258 566 q 161 614 197 566 m 910 783 q 972 792 910 792 q 1093 770 1034 792 q 1253 635 1199 731 q 1297 490 1297 559 q 1272 386 1297 420 q 1213 351 1248 351 q 1154 363 1177 351 q 1119 378 1131 374 q 960 393 1078 392 q 954 399 954 393 q 958 407 954 404 q 1032 435 993 420 q 1092 460 1072 450 q 1134 500 1134 479 q 1047 692 1134 600 q 914 777 994 749 q 910 783 910 779 z "},"が":{"ha":1432,"x_min":125,"x_max":1354,"o":"m 161 614 q 143 639 161 614 q 125 702 125 663 q 142 741 125 741 q 152 736 148 741 q 239 701 189 701 q 457 736 258 701 q 498 924 498 880 q 479 983 498 968 q 444 1000 461 997 q 426 1015 426 1004 q 451 1044 426 1029 q 518 1058 476 1058 q 611 1023 560 1058 q 662 943 662 987 q 652 916 662 928 q 586 758 613 865 q 694 772 663 772 q 821 722 785 772 q 857 532 857 671 q 825 266 857 393 q 729 56 793 138 q 581 -26 665 -26 q 506 38 518 -26 q 490 84 500 65 q 463 133 480 103 q 431 189 445 163 q 434 195 431 195 l 438 194 q 503 156 457 179 q 572 133 549 133 q 661 220 621 133 q 720 413 701 308 q 738 599 738 518 q 681 680 738 680 q 556 655 648 680 q 351 178 460 385 q 270 39 294 69 q 215 9 245 9 q 165 38 184 9 q 146 105 146 66 q 182 180 146 144 q 308 365 241 244 q 422 620 374 486 q 287 581 316 595 q 240 566 258 566 q 161 614 197 566 m 910 783 q 972 792 910 792 q 1093 770 1034 792 q 1253 635 1199 731 q 1297 490 1297 559 q 1272 386 1297 420 q 1213 351 1248 351 q 1154 363 1177 351 q 1119 378 1131 374 q 960 393 1078 392 q 954 399 954 393 q 958 407 954 404 q 1032 435 993 420 q 1092 460 1072 450 q 1134 500 1134 479 q 1047 692 1134 600 q 914 777 994 749 q 910 783 910 779 m 986 1008 q 1002 1023 986 1023 l 1005 1023 q 1181 940 1133 987 q 1221 873 1221 906 q 1166 811 1221 811 q 1099 876 1139 811 q 990 998 1058 941 q 986 1008 986 1002 m 1114 1104 q 1118 1114 1112 1109 q 1128 1118 1123 1118 l 1131 1118 q 1354 966 1354 1074 q 1308 918 1354 918 q 1237 975 1279 918 q 1119 1096 1185 1042 q 1114 1104 1114 1099 z "},"き":{"ha":1218,"x_min":208,"x_max":1051,"o":"m 271 543 q 239 567 271 543 q 208 642 208 591 q 222 693 208 693 l 227 690 q 305 629 254 648 q 448 610 357 610 q 651 631 540 610 q 595 754 627 678 q 492 746 540 746 q 314 787 380 746 q 248 882 248 827 q 256 916 248 916 l 293 892 q 368 867 315 882 q 469 852 420 852 q 552 856 518 852 q 530 909 544 875 q 510 955 515 944 q 423 1009 491 1004 q 401 1021 401 1012 q 422 1064 401 1043 q 472 1085 444 1085 q 631 982 631 1085 q 659 876 631 959 q 757 925 727 897 q 797 959 787 954 q 831 964 807 964 q 881 949 856 964 q 906 911 906 933 q 846 837 906 872 q 697 777 787 802 q 757 654 713 738 q 867 715 867 684 q 830 754 867 731 q 829 758 829 755 q 839 760 829 761 q 859 758 849 758 l 956 769 q 1023 755 996 769 q 1051 713 1051 741 q 815 551 1051 620 q 936 395 895 429 q 977 309 977 361 q 955 231 977 256 q 906 206 933 206 q 844 225 879 206 q 513 316 685 315 q 382 284 435 316 q 330 198 330 252 q 374 110 330 144 q 571 56 446 56 q 671 68 621 56 q 754 80 722 80 q 817 54 787 80 q 846 0 846 27 q 621 -77 846 -77 q 334 -15 446 -77 q 221 171 221 47 q 252 279 221 233 q 336 350 285 326 q 549 395 437 396 q 791 363 661 395 q 795 369 795 363 q 705 524 736 465 q 450 495 564 495 q 271 543 335 495 z "},"ぎ":{"ha":1358,"x_min":208,"x_max":1282,"o":"m 271 543 q 239 567 271 543 q 208 642 208 591 q 222 693 208 693 l 227 690 q 305 629 254 648 q 448 610 357 610 q 651 631 540 610 q 595 754 627 678 q 492 746 540 746 q 314 787 380 746 q 248 882 248 827 q 256 916 248 916 l 293 892 q 368 867 315 882 q 469 852 420 852 q 552 856 518 852 q 530 909 544 875 q 510 955 515 944 q 423 1009 491 1004 q 401 1021 401 1012 q 422 1064 401 1043 q 472 1085 444 1085 q 631 982 631 1085 q 659 876 631 959 q 757 925 727 897 q 797 959 787 954 q 831 964 807 964 q 881 949 856 964 q 906 911 906 933 q 846 837 906 872 q 697 777 787 802 q 757 654 713 738 q 867 715 867 684 q 830 754 867 731 q 829 758 829 755 q 839 760 829 761 q 859 758 849 758 l 956 769 q 1023 755 996 769 q 1051 713 1051 741 q 815 551 1051 620 q 936 395 895 429 q 977 309 977 361 q 955 231 977 256 q 906 206 933 206 q 844 225 879 206 q 513 316 685 315 q 382 284 435 316 q 330 198 330 252 q 374 110 330 144 q 571 56 446 56 q 671 68 621 56 q 754 80 722 80 q 817 54 787 80 q 846 0 846 27 q 621 -77 846 -77 q 334 -15 446 -77 q 221 171 221 47 q 252 279 221 233 q 336 350 285 326 q 549 395 437 396 q 791 363 661 395 q 795 369 795 363 q 705 524 736 465 q 450 495 564 495 q 271 543 335 495 m 917 1078 q 936 1092 917 1092 q 1150 928 1150 1029 q 1096 878 1150 878 q 1035 930 1069 878 q 921 1069 983 1012 q 917 1078 917 1073 m 1043 1156 q 1061 1169 1043 1169 q 1234 1105 1177 1145 q 1282 1020 1282 1070 q 1237 970 1282 970 q 1166 1025 1208 970 q 1048 1147 1120 1090 q 1043 1156 1043 1152 z "},"く":{"ha":1055,"x_min":202,"x_max":836,"o":"m 258 418 q 202 516 202 464 q 270 632 202 568 q 559 910 492 838 q 625 1006 625 982 q 608 1053 625 1031 q 591 1080 591 1074 q 613 1090 591 1090 q 744 1029 689 1090 q 799 922 799 968 q 781 880 799 894 q 755 865 776 876 l 724 850 q 391 610 553 757 q 347 567 391 610 q 323 531 323 541 q 326 515 323 521 q 337 500 330 509 q 352 486 345 492 q 372 469 359 479 q 392 453 384 460 q 425 429 400 446 q 559 324 449 411 q 836 19 836 107 q 810 -51 836 -26 q 747 -76 785 -76 q 666 -8 709 -76 q 258 418 556 164 z "},"ぐ":{"ha":1251,"x_min":202,"x_max":1128,"o":"m 258 418 q 202 516 202 464 q 270 632 202 568 q 559 910 492 838 q 625 1006 625 982 q 608 1053 625 1031 q 591 1080 591 1074 q 613 1090 591 1090 q 744 1029 689 1090 q 799 922 799 968 q 781 880 799 894 q 755 865 776 876 l 724 850 q 391 610 553 757 l 347 567 q 323 531 323 541 q 326 515 323 521 q 337 500 330 509 q 352 486 345 492 q 372 469 359 479 q 392 453 384 460 q 425 429 400 446 q 559 324 449 411 q 836 19 836 107 q 810 -51 836 -26 q 747 -76 785 -76 q 666 -8 709 -76 q 258 418 556 164 m 755 761 q 776 776 755 776 q 996 605 996 707 q 941 551 996 551 q 878 605 914 551 q 760 751 815 697 q 755 761 755 755 m 884 868 q 907 883 884 883 q 1128 723 1128 831 q 1078 673 1128 673 q 1047 685 1061 673 q 1009 730 1034 697 q 890 859 960 799 q 884 868 884 863 z "},"け":{"ha":1378,"x_min":172,"x_max":1260,"o":"m 220 130 q 196 172 220 130 q 172 353 172 214 q 208 661 172 492 q 243 916 243 830 q 210 990 243 968 q 199 1004 199 998 q 211 1019 199 1010 q 244 1027 222 1027 q 350 973 302 1027 q 397 882 397 920 q 378 811 397 844 q 353 764 358 779 q 279 389 279 564 q 290 307 279 346 q 308 269 300 269 q 332 305 316 269 q 381 420 349 342 q 421 499 414 499 q 429 490 429 499 q 384 183 384 266 l 392 110 q 372 65 392 84 q 328 46 353 46 q 220 130 267 46 m 538 770 q 543 779 538 779 q 548 777 547 779 q 722 728 613 728 q 911 736 831 728 q 869 1000 902 960 q 833 1024 850 1021 q 801 1029 815 1027 q 787 1047 787 1032 q 810 1080 787 1062 q 883 1097 834 1097 q 988 1070 932 1097 q 1044 1005 1044 1043 l 1035 922 q 1040 764 1035 888 q 1111 792 1073 768 q 1154 817 1149 817 q 1223 800 1185 817 q 1260 751 1260 784 q 1200 687 1260 719 q 1046 633 1141 655 q 1048 495 1048 538 q 941 102 1048 240 q 633 -84 833 -35 q 617 -73 617 -84 l 623 -66 q 838 153 761 5 q 916 509 916 301 l 914 613 q 812 608 846 608 q 538 770 574 608 z "},"げ":{"ha":1434,"x_min":172,"x_max":1369,"o":"m 220 130 q 196 172 220 130 q 172 353 172 214 q 208 661 172 492 q 243 916 243 830 q 210 990 243 968 q 199 1004 199 998 q 211 1019 199 1010 q 244 1027 222 1027 q 350 973 302 1027 q 397 882 397 920 q 378 811 397 844 q 353 764 358 779 q 279 389 279 564 q 290 307 279 346 q 308 269 300 269 q 332 305 316 269 q 381 420 349 342 q 421 499 414 499 q 429 490 429 499 q 384 183 384 266 l 392 110 q 372 65 392 84 q 328 46 353 46 q 220 130 267 46 m 538 770 q 543 779 538 779 q 548 777 547 779 q 722 728 613 728 q 911 736 831 728 q 869 1000 902 960 q 833 1024 850 1021 q 801 1029 815 1027 q 787 1047 787 1032 q 810 1080 787 1062 q 883 1097 834 1097 q 988 1070 932 1097 q 1044 1005 1044 1043 l 1035 922 q 1040 764 1035 888 q 1111 792 1073 768 q 1154 817 1149 817 q 1223 800 1185 817 q 1260 751 1260 784 q 1200 687 1260 719 q 1046 633 1141 655 q 1048 495 1048 538 q 941 102 1048 240 q 633 -84 833 -35 q 617 -73 617 -84 l 623 -66 q 838 153 761 5 q 916 509 916 301 l 914 613 q 812 608 846 608 q 538 770 574 608 m 1054 1104 q 1069 1119 1054 1119 q 1074 1118 1073 1119 q 1226 1021 1181 1077 q 1257 954 1257 985 q 1214 903 1257 903 q 1184 916 1196 903 q 1137 989 1172 928 q 1058 1095 1101 1050 q 1054 1104 1054 1099 m 1157 1185 q 1177 1199 1157 1199 q 1369 1044 1369 1142 q 1322 998 1369 998 q 1263 1054 1299 998 q 1161 1177 1225 1120 q 1157 1185 1157 1181 z "},"こ":{"ha":1236,"x_min":195,"x_max":1036,"o":"m 195 250 q 228 382 195 327 q 235 387 231 387 q 244 377 244 387 q 355 179 244 241 q 602 126 450 126 q 894 167 754 126 q 945 176 916 176 q 1006 153 975 176 q 1036 94 1036 129 q 673 -27 1036 -27 q 195 250 195 -27 m 296 978 q 305 989 296 989 l 312 987 q 525 958 387 958 l 761 970 q 885 943 836 970 q 935 869 935 916 q 916 825 935 846 q 868 804 897 804 l 815 807 q 524 719 727 806 q 452 690 456 689 q 448 699 448 690 q 494 741 448 700 q 566 800 541 781 q 590 821 590 818 q 585 823 590 823 q 297 971 349 829 q 296 978 296 975 z "}}}
